<?xml version="1.0" standalone="no"?>
<!DOCTYPE svg PUBLIC "-//W3C//DTD SVG 20010904//EN"
 "http://www.w3.org/TR/2001/REC-SVG-20010904/DTD/svg10.dtd">
<svg version="1.0" xmlns="http://www.w3.org/2000/svg"
 width="720.000000pt" height="1280.000000pt" viewBox="0 0 720.000000 1280.000000"
 preserveAspectRatio="xMidYMid meet">

<g transform="translate(0.000000,1280.000000) scale(0.100000,-0.100000)"
fill="#000000" stroke="none">
<path d="M7145 12237 c-61 -50 -265 -256 -265 -268 0 -6 -9 -24 -21 -40 -15
-21 -29 -29 -50 -29 -77 0 -179 -74 -203 -148 -14 -40 -22 -50 -49 -57 -28 -9
-53 -40 -69 -87 -2 -4 -40 -23 -86 -42 -45 -18 -90 -40 -100 -48 -9 -8 -28
-20 -42 -26 -51 -25 -99 -58 -123 -84 -14 -15 -44 -32 -68 -38 -23 -7 -56 -22
-73 -35 -17 -12 -44 -26 -61 -29 -33 -8 -76 -39 -134 -94 -70 -69 -116 -104
-171 -132 -61 -31 -75 -44 -113 -111 -20 -35 -35 -48 -67 -59 -46 -15 -78 -50
-87 -91 -4 -21 -19 -35 -63 -58 -46 -25 -62 -40 -79 -76 -12 -25 -21 -48 -21
-51 0 -13 -112 -114 -127 -114 -8 0 -36 -21 -62 -48 -25 -26 -56 -54 -67 -62
-12 -8 -36 -37 -54 -65 -18 -27 -60 -77 -94 -111 -70 -70 -144 -155 -172 -199
-22 -35 -133 -142 -175 -168 -114 -73 144 -21 356 72 61 27 119 51 130 55 11
3 123 10 248 16 205 9 236 12 305 36 116 40 174 83 316 233 72 75 232 240 358
366 125 127 258 269 296 317 37 48 99 114 137 146 39 33 99 94 135 137 129
154 168 201 230 285 36 47 96 126 135 175 114 145 105 115 105 355 0 115 -3
210 -7 209 -5 0 -26 -15 -48 -32z"/>
<path d="M1291 11401 c-32 -9 -39 -31 -11 -31 12 0 19 -4 16 -8 -8 -13 -67 -1
-73 14 -3 8 -13 14 -24 14 -35 0 -132 -43 -168 -74 -58 -51 -83 -63 -153 -74
-75 -12 -101 -26 -174 -94 -29 -26 -65 -50 -80 -54 -71 -18 -138 -72 -192
-154 -51 -78 -61 -98 -74 -147 -6 -24 -19 -49 -29 -57 -23 -15 -69 -117 -69
-151 0 -31 23 -118 51 -195 23 -63 23 -67 -5 -194 -14 -64 -45 -116 -69 -116
-19 0 -76 -32 -81 -46 -10 -27 18 -95 61 -146 24 -27 43 -54 43 -60 0 -14 53
-86 102 -139 55 -59 179 -150 232 -169 30 -12 43 -23 49 -45 20 -65 62 -145
79 -151 10 -3 21 -19 25 -35 3 -16 16 -40 29 -54 13 -14 24 -28 24 -30 0 -39
204 -220 235 -209 7 3 21 -8 31 -25 10 -17 26 -31 36 -31 18 0 126 -50 208
-95 73 -41 75 -29 6 36 -36 33 -72 75 -81 91 -17 35 -20 53 -4 26 5 -10 16
-18 22 -18 12 0 40 -27 45 -42 4 -14 47 -53 55 -50 4 1 7 -3 7 -8 0 -13 67
-78 159 -155 56 -47 78 -59 100 -57 25 3 30 -2 44 -36 9 -22 23 -42 31 -45 9
-4 16 -13 16 -21 0 -10 6 -13 18 -10 16 5 16 5 -1 -6 -14 -9 -29 -2 -90 47
-40 32 -82 64 -95 71 -20 11 -22 10 -22 -10 1 -36 28 -61 130 -119 52 -29 109
-65 125 -80 17 -14 80 -71 142 -125 61 -55 123 -107 138 -117 14 -11 25 -20
23 -22 -2 -2 -36 5 -76 16 -40 10 -86 16 -102 12 -23 -4 -30 -2 -30 11 0 12
-10 16 -40 16 -22 0 -57 7 -76 15 -22 9 -51 12 -77 9 -23 -3 -98 -6 -167 -7
-109 -2 -131 -6 -175 -27 -27 -13 -56 -32 -63 -42 -19 -26 -30 -22 -34 10 l-3
27 -25 -26 c-14 -15 -40 -30 -57 -33 -38 -9 -38 -11 -18 -50 19 -37 14 -42
-27 -25 -55 23 -171 15 -231 -17 -108 -56 -264 -209 -338 -332 -104 -170 -150
-341 -170 -622 -11 -153 5 -357 42 -567 l13 -73 -29 -31 c-17 -17 -46 -40 -65
-52 -19 -11 -44 -30 -56 -41 -33 -34 -86 -75 -126 -99 -38 -22 -58 -53 -58
-88 0 -32 74 -179 87 -174 8 2 13 -4 13 -15 0 -13 -7 -20 -19 -20 -11 0 -23
-4 -26 -10 -3 -5 -17 -10 -31 -10 -16 0 -24 -6 -25 -17 0 -11 -3 -13 -6 -5 -6
17 -23 5 -23 -17 0 -27 -20 -42 -42 -30 -17 9 -18 -11 -18 -640 l0 -651 92 63
c122 83 190 121 274 154 66 25 76 26 274 27 152 1 215 -3 245 -13 40 -14 112
-56 130 -76 20 -22 132 -105 141 -105 28 0 104 -109 104 -149 0 -6 4 -11 9
-11 5 0 11 -10 14 -22 3 -13 15 -54 27 -93 27 -87 37 -128 45 -185 18 -124 24
-162 38 -238 25 -141 2 -289 -64 -423 -16 -32 -29 -62 -29 -68 0 -5 -3 -11 -7
-13 -5 -1 -20 -21 -35 -43 -30 -44 -61 -78 -103 -114 -35 -29 -59 -19 -63 28
-2 17 -7 31 -12 31 -5 0 -12 9 -15 20 -3 11 -17 23 -30 26 -21 5 -34 38 -40
104 -2 22 -22 67 -34 74 -14 9 -19 -18 -20 -95 0 -36 -5 -77 -10 -91 -8 -22
-26 -123 -45 -248 -5 -40 -41 -230 -56 -305 -6 -27 -17 -90 -25 -140 -13 -85
-41 -208 -64 -285 -5 -19 -18 -64 -29 -99 -10 -35 -26 -69 -35 -76 -9 -6 -14
-15 -10 -18 3 -4 0 -14 -8 -23 -7 -9 -15 -28 -17 -42 -2 -14 -10 -34 -18 -46
-8 -11 -14 -29 -14 -38 0 -10 -4 -26 -9 -36 -6 -9 -22 -62 -37 -117 -15 -55
-32 -109 -37 -120 -6 -11 -12 -25 -13 -32 -8 -47 -40 -158 -60 -207 -13 -33
-24 -66 -24 -75 0 -20 -19 -79 -36 -114 -8 -16 -14 -39 -14 -51 0 -12 -8 -38
-19 -58 -10 -21 -24 -59 -30 -85 -6 -26 -18 -64 -25 -83 -8 -19 -24 -80 -36
-135 -12 -55 -28 -122 -36 -149 -8 -26 -14 -57 -14 -68 0 -11 -7 -50 -15 -87
-26 -122 -38 -186 -46 -256 -4 -38 -17 -135 -28 -215 -11 -80 -21 -151 -21
-157 0 -10 526 -13 2596 -13 l2596 0 -6 23 c-3 12 -9 40 -12 62 -4 22 -10 45
-14 50 -15 20 -20 179 -7 205 13 26 97 75 181 107 55 20 131 101 169 180 12
23 25 43 29 43 4 0 19 21 32 48 35 67 66 99 104 107 39 8 42 -6 9 -55 -27 -41
-69 -171 -92 -285 -9 -44 -21 -99 -26 -122 -15 -68 -12 -103 9 -103 14 0 21
14 30 63 7 34 20 82 28 107 9 25 28 86 42 135 14 50 28 92 29 95 2 2 11 0 20
-6 13 -8 21 -6 34 7 19 19 59 104 59 124 0 8 6 16 13 18 9 4 9 6 0 6 -7 1 -13
10 -13 21 0 25 28 27 37 3 4 -10 15 -33 26 -50 15 -26 23 -31 36 -24 11 6 23
4 35 -5 10 -7 23 -11 28 -8 4 3 11 -8 14 -25 5 -24 17 -35 63 -57 31 -15 60
-33 64 -41 4 -7 15 -13 23 -13 17 0 84 -69 84 -87 0 -27 24 -63 42 -63 15 0
18 -5 13 -19 -3 -11 -1 -22 5 -26 5 -3 10 0 10 7 0 7 12 -1 28 -18 l27 -32
135 10 c81 5 147 15 167 24 26 13 41 14 88 4 64 -13 133 -7 212 21 29 10 73
21 98 24 l45 7 0 214 0 213 -37 7 c-21 3 -48 13 -61 21 -13 8 -32 11 -43 8
-18 -6 -19 -5 -7 14 7 12 19 21 27 21 10 0 12 3 5 10 -14 14 -136 -9 -151 -29
-12 -15 -14 -14 -27 2 -7 9 -22 17 -33 17 -12 0 -23 8 -26 20 -4 15 -14 20
-42 20 -34 0 -37 2 -33 25 4 19 0 26 -23 34 -16 5 -29 15 -29 20 0 17 -41 13
-62 -6 -10 -9 -18 -11 -18 -6 0 11 -37 27 -54 24 -4 -1 -24 3 -42 9 -24 8 -36
19 -40 38 -4 15 -11 33 -16 39 -6 7 -8 25 -5 40 4 16 4 22 1 16 -11 -24 -43
-14 -50 15 -4 15 -24 44 -45 64 -39 38 -52 82 -27 90 19 7 0 58 -21 58 -28 0
-40 59 -16 76 15 11 16 15 3 27 -8 8 -23 17 -34 19 -12 2 -18 10 -16 22 2 9
-7 34 -18 54 -16 26 -20 46 -16 72 4 23 2 30 -4 20 -13 -22 -50 15 -50 52 0
16 -5 28 -13 28 -8 0 -11 14 -9 45 3 38 2 44 -12 39 -9 -3 -16 -1 -16 5 0 6 5
11 10 11 6 0 10 9 10 20 0 12 -7 20 -16 20 -9 0 -22 17 -31 40 -9 22 -20 40
-25 40 -4 0 -8 5 -8 12 0 6 -8 20 -17 30 -15 17 -15 19 2 32 16 11 16 13 2 19
-15 6 -47 66 -47 88 0 5 7 9 15 9 22 0 8 26 -22 39 -18 8 -24 17 -20 31 3 11
-1 21 -9 24 -8 3 -14 14 -14 25 0 11 -4 23 -10 26 -5 3 -10 39 -10 80 0 53 -4
78 -16 89 -14 14 -14 18 0 38 18 25 22 128 6 128 -6 0 -6 9 0 26 15 39 12 167
-4 189 -10 14 -11 25 -3 42 6 15 7 27 0 35 -5 7 -11 38 -13 68 -4 83 -6 111
-15 159 -7 37 -6 43 6 36 12 -7 11 -6 0 9 -8 10 -16 41 -18 69 -1 29 -5 68 -8
87 -8 50 -17 150 -16 184 0 16 -5 38 -12 50 -7 11 -12 50 -13 86 -1 36 -6 83
-13 105 -6 22 -14 47 -16 55 -17 59 -57 251 -57 278 0 17 -4 32 -9 32 -6 0 -5
8 1 19 7 15 6 23 -6 35 -8 9 -16 26 -16 38 -1 40 -26 172 -39 203 -6 17 -14
48 -16 69 -2 22 -10 51 -18 65 -7 14 -16 51 -20 81 -4 30 -15 69 -23 85 -9 17
-17 41 -19 54 -1 13 -6 27 -12 30 -5 3 -17 35 -26 71 -9 36 -22 82 -30 103 -8
20 -15 50 -15 65 0 15 -4 32 -8 38 -5 5 -19 43 -31 84 -13 41 -30 92 -38 113
-30 70 -3 115 178 299 47 48 97 89 110 92 13 4 46 0 74 -7 42 -11 53 -20 76
-58 15 -24 28 -52 28 -61 1 -10 6 -18 11 -18 6 0 10 -7 10 -15 0 -9 13 -45 30
-82 16 -36 30 -72 30 -79 0 -8 5 -14 10 -14 6 0 10 -7 10 -16 0 -9 8 -28 19
-42 10 -15 29 -49 41 -77 12 -27 26 -58 31 -68 6 -10 25 -47 44 -82 19 -35 44
-88 55 -118 11 -30 32 -67 45 -81 14 -15 25 -31 25 -35 0 -5 6 -14 14 -20 8
-7 18 -26 21 -42 4 -16 11 -29 16 -29 5 0 9 -7 9 -15 0 -8 14 -37 30 -63 17
-27 30 -56 30 -65 0 -8 7 -17 15 -21 8 -3 15 -16 15 -29 0 -14 7 -30 15 -37 8
-7 15 -18 15 -24 0 -6 9 -22 20 -36 11 -14 20 -33 20 -42 0 -15 84 -166 99
-178 3 -3 26 -45 51 -95 25 -49 50 -97 56 -105 31 -40 107 -205 106 -230 0
-21 3 -27 14 -23 8 3 14 0 14 -6 0 -6 -4 -11 -9 -11 -5 0 -1 -15 8 -32 9 -18
20 -33 24 -33 16 0 37 -50 31 -76 -3 -16 1 -30 11 -39 8 -7 15 -17 15 -22 0
-6 8 -22 18 -36 10 -15 24 -47 32 -72 7 -25 33 -83 58 -130 69 -130 92 -178
92 -195 0 -8 5 -15 10 -15 6 0 10 -11 10 -25 0 -14 8 -35 18 -46 18 -19 28
-36 50 -89 8 -18 11 1161 11 3958 1 3183 -2 3983 -11 3980 -7 -2 -20 -17 -28
-34 -9 -18 -22 -28 -32 -26 -18 3 -27 -7 -33 -40 -3 -12 -11 -26 -20 -30 -8
-5 -19 -28 -25 -51 -19 -73 -31 -96 -53 -99 -12 -2 -26 -13 -32 -25 -5 -13
-17 -23 -25 -24 -8 -1 -4 -4 10 -8 l25 -7 -22 -12 c-24 -13 -31 -46 -13 -57
14 -9 2 -25 -19 -25 -21 0 -63 -42 -59 -60 5 -19 -46 -52 -83 -54 -25 -1 -35
-7 -37 -21 -5 -23 -26 -45 -44 -46 -7 0 -3 -4 10 -9 12 -5 22 -13 22 -17 -1
-11 -37 -53 -45 -53 -4 0 -18 -9 -32 -20 -14 -11 -21 -20 -14 -20 6 0 11 -7
11 -15 0 -8 11 -22 24 -30 13 -9 27 -23 30 -32 5 -12 0 -14 -26 -9 -31 6 -35
3 -68 -49 -40 -63 -75 -82 -122 -69 -25 7 -34 17 -41 44 -15 60 -26 65 -62 28
-18 -18 -38 -49 -45 -69 -12 -34 -15 -35 -59 -35 -34 1 -50 6 -62 21 -22 28
-30 53 -18 57 19 6 -2 36 -29 41 -19 4 -32 0 -43 -13 -11 -12 -24 -17 -38 -13
-11 3 -21 1 -21 -5 0 -5 -13 -15 -29 -22 -20 -8 -32 -21 -36 -41 -5 -23 -12
-29 -34 -29 -31 0 -51 -16 -51 -40 0 -24 -29 -80 -42 -80 -5 0 -21 -9 -34 -19
-14 -11 -33 -17 -44 -14 -15 4 -20 0 -20 -15 0 -23 -25 -48 -34 -33 -4 5 -20
16 -36 25 -26 12 -30 12 -30 0 0 -8 -4 -14 -10 -14 -5 0 -10 7 -10 15 0 10
-10 15 -30 15 -29 0 -30 -2 -30 -46 l0 -46 -27 17 c-18 12 -28 14 -31 7 -2 -7
-15 -12 -28 -12 -21 0 -24 4 -24 40 0 47 26 57 33 13 l4 -28 2 28 c0 15 6 27
11 27 6 0 10 10 10 23 -1 22 -1 22 -15 -3 -11 -19 -14 -21 -15 -7 0 21 -38 23
-46 2 -5 -11 -16 -14 -43 -10 -20 3 -30 2 -23 -1 17 -8 16 -48 -2 -41 -15 6
-26 -12 -26 -44 0 -12 10 -23 26 -29 14 -6 23 -14 19 -20 -3 -5 -12 -7 -20 -4
-8 3 -25 -6 -40 -22 -26 -28 -32 -44 -15 -44 6 0 10 -7 10 -15 0 -10 -10 -15
-30 -15 -16 0 -30 -5 -30 -11 0 -6 6 -9 13 -6 6 2 20 0 30 -5 11 -5 17 -5 17
2 0 5 20 10 45 10 25 0 45 5 45 11 0 5 -4 8 -9 5 -4 -3 -17 1 -27 9 -19 15
-19 15 0 30 11 8 28 15 38 15 10 0 18 6 18 13 0 14 31 47 43 47 4 0 7 -7 7
-16 0 -14 2 -13 17 1 16 16 17 16 30 -1 17 -23 16 -34 -2 -34 -18 0 -19 -12
-4 -27 16 -16 1 -35 -24 -31 -20 3 -22 -1 -19 -38 3 -41 -16 -72 -38 -59 -5 3
-10 2 -10 -2 0 -5 -11 -20 -24 -34 -13 -14 -26 -34 -28 -45 -2 -10 -12 -20
-22 -22 -23 -5 -39 -20 -49 -44 -3 -10 -17 -18 -30 -18 -13 0 -28 -5 -34 -11
-6 -6 -25 -8 -48 -3 -23 4 -32 10 -25 14 24 15 1 28 -36 20 -40 -9 -56 -20
-31 -20 21 0 22 -23 1 -41 -13 -10 -17 -10 -25 2 -5 8 -9 20 -9 27 0 15 -22
16 -37 1 -8 -8 -13 -5 -18 12 -5 16 -2 26 9 34 17 13 22 45 7 45 -5 0 -12 -7
-15 -16 -3 -8 -9 -13 -14 -10 -10 6 -82 -28 -93 -45 -5 -8 -9 -24 -9 -36 0
-12 -6 -26 -13 -30 -15 -9 -47 -69 -47 -88 0 -16 -45 -39 -60 -30 -9 6 -9 9 0
15 9 6 6 10 -9 15 -15 5 -21 14 -21 38 0 67 94 343 131 383 10 11 19 25 19 31
0 6 6 13 12 15 10 4 10 10 1 31 -10 21 -20 27 -43 27 -16 0 -30 4 -30 10 0 5
-7 6 -17 3 -11 -4 -14 -3 -9 5 5 8 0 12 -12 12 -11 0 -23 -8 -26 -17 -6 -14
-9 -15 -15 -4 -9 14 -4 14 -206 -13 -60 -9 -122 -13 -137 -10 -20 4 -34 -1
-55 -20 -30 -28 -53 -34 -53 -13 -1 7 -8 3 -18 -9 -26 -31 -75 -52 -111 -46
-23 3 -49 -4 -89 -24 -59 -30 -80 -31 -151 -7 -31 10 -46 12 -54 4 -8 -8 -8
-11 1 -11 7 0 12 -5 12 -12 0 -18 87 -92 139 -118 l48 -24 -29 -29 c-16 -16
-34 -50 -41 -74 -6 -25 -17 -48 -24 -50 -17 -7 -16 -32 1 -39 32 -12 39 -61
34 -237 -4 -149 -8 -179 -27 -222 -12 -27 -25 -52 -29 -55 -4 -3 -20 -32 -37
-65 -72 -143 -179 -260 -293 -319 -18 -9 -43 -16 -55 -14 -19 3 -15 11 41 68
35 36 70 80 79 98 8 17 19 32 24 32 13 0 11 58 -2 65 -6 4 -17 -2 -25 -14 -9
-12 -19 -19 -24 -16 -5 3 -25 -1 -45 -9 -20 -9 -33 -11 -30 -6 3 5 0 12 -6 15
-5 4 -9 21 -8 39 2 17 0 36 -4 43 -4 6 0 30 9 54 8 24 14 55 13 69 0 14 0 27
1 30 1 3 3 21 5 40 1 19 7 51 12 71 8 27 7 45 -3 67 -14 35 -5 131 15 155 6 9
8 18 3 21 -12 7 -25 136 -26 261 -2 106 -4 113 -70 219 -18 28 -40 68 -50 89
-9 20 -29 45 -44 54 -32 19 -50 38 -115 115 -30 35 -54 55 -63 51 -7 -3 -17 2
-20 11 -3 9 -12 16 -20 16 -7 0 -21 11 -30 25 -9 14 -24 25 -33 25 -9 0 -34
18 -56 40 -22 21 -45 39 -51 40 -13 0 -44 70 -44 96 0 9 -19 34 -42 55 -39 36
-48 39 -98 39 l-55 0 46 -43 c26 -23 53 -47 60 -53 34 -29 87 -93 94 -113 3
-11 13 -21 20 -21 8 0 32 -26 54 -57 22 -32 55 -79 73 -105 18 -27 40 -48 48
-48 19 0 50 -49 50 -78 0 -11 -8 -23 -17 -25 -16 -4 -16 -5 -1 -6 9 0 20 -10
23 -21 3 -11 10 -20 15 -20 8 0 30 -53 30 -72 0 -5 -18 1 -40 13 -21 12 -36
27 -33 32 3 6 1 7 -5 3 -18 -11 -14 -46 4 -46 12 0 15 -6 10 -22 -3 -13 -6
-31 -6 -41 0 -9 -6 -16 -12 -15 -7 2 -12 -3 -10 -11 2 -8 0 -21 -3 -29 -4 -12
-8 -12 -21 -2 -8 7 -13 19 -10 26 5 12 -22 29 -32 19 -3 -3 0 -17 7 -31 16
-35 5 -49 -25 -30 -34 23 -37 20 -30 -21 18 -99 19 -126 5 -119 -8 3 -22 9
-31 12 -13 5 -15 11 -7 31 5 14 6 42 2 62 -3 20 -6 44 -5 54 0 10 -5 17 -11
14 -7 -2 -17 -30 -23 -63 -12 -68 -31 -104 -55 -104 -16 0 -84 22 -199 65 -59
22 -117 15 -203 -25 -37 -18 -74 -29 -82 -26 -19 7 -20 56 -1 56 7 0 34 22 59
49 25 27 52 51 59 54 9 4 7 6 -4 6 -10 1 -37 15 -61 32 -89 63 -209 69 -224
11 -5 -21 0 -30 31 -55 42 -34 66 -74 66 -112 0 -22 -3 -25 -24 -19 -45 11
-83 -22 -104 -90 l-18 -61 -64 4 c-62 5 -84 4 -147 -1 -34 -3 -55 -22 -52 -45
3 -31 -1 -36 -15 -24 -11 9 -12 18 -3 40 8 23 6 36 -11 73 -12 24 -22 50 -22
56 0 7 -6 12 -13 12 -7 0 -24 14 -37 31 -14 17 -32 39 -41 49 -10 10 -20 32
-24 49 -4 17 -15 33 -26 36 -14 5 -19 16 -19 41 0 21 -4 33 -10 29 -19 -12 32
65 57 84 24 20 24 20 67 -10 66 -44 83 -42 251 37 40 18 55 32 68 62 10 22 16
48 15 58 -1 11 2 36 6 57 7 31 5 40 -10 51 -17 13 -17 17 -4 57 8 23 25 56 37
73 33 45 53 90 43 99 -4 5 -36 -14 -70 -41 -61 -49 -100 -69 -100 -51 0 16 52
59 87 74 18 8 33 19 33 24 0 16 -40 13 -85 -7 -30 -14 -45 -16 -63 -8 -20 10
-22 16 -17 46 4 20 19 47 36 63 16 15 29 32 29 38 0 14 -118 8 -149 -7 -14 -7
-42 -30 -62 -51 -71 -74 -130 -138 -157 -171 -93 -113 -79 -104 -146 -99 -51
3 -65 1 -83 -16 -13 -11 -23 -16 -23 -10 0 5 -25 9 -57 9 -45 -1 -57 2 -61 17
-2 9 -8 17 -12 17 -4 0 -6 21 -4 47 3 35 -1 49 -14 59 -15 12 -15 15 -2 23 8
6 16 21 17 33 0 13 4 40 7 61 5 33 3 40 -14 44 -26 7 -26 20 1 28 11 4 18 12
16 18 -4 13 39 104 54 113 5 3 19 24 31 47 11 23 40 62 63 86 35 36 41 48 32
61 -8 14 -5 25 13 50 19 26 21 36 11 56 -6 14 -11 33 -11 43 0 27 40 59 89 70
28 6 52 19 66 37 18 23 27 26 63 22 34 -3 43 0 48 14 8 25 20 15 28 -22 8 -44
88 -110 133 -110 7 0 13 -3 13 -7 0 -5 4 -14 9 -22 8 -12 13 -12 24 -3 17 14
47 6 47 -12 0 -20 43 -53 78 -60 99 -19 104 -21 149 -66 9 -8 37 -28 63 -45
109 -69 160 -105 160 -115 0 -5 6 -10 14 -10 7 0 52 -30 100 -66 48 -37 89
-64 91 -62 9 8 -54 88 -69 88 -22 0 -39 54 -31 99 6 34 4 42 -12 48 -10 3 -34
20 -53 37 -19 17 -53 40 -75 50 -82 39 -90 45 -109 80 -11 20 -23 36 -28 36
-5 0 -22 16 -39 35 -17 19 -37 35 -45 35 -8 0 -14 4 -14 10 0 14 -129 138
-150 145 -10 3 -26 17 -34 31 -9 13 -35 32 -56 40 -22 9 -40 19 -40 23 0 4
-33 25 -72 46 -40 21 -86 48 -103 60 -16 13 -57 37 -90 55 -33 18 -76 48 -95
66 -56 53 -193 94 -360 108 -30 2 -66 1 -79 -3z m49 -21 c0 -5 -8 -10 -17 -10
-15 0 -16 2 -3 10 19 12 20 12 20 0z m-189 -83 c-10 -9 -11 -8 -5 6 3 10 9 15
12 12 3 -3 0 -11 -7 -18z m849 -341 c0 -2 -7 -6 -15 -10 -8 -3 -15 -1 -15 4 0
6 7 10 15 10 8 0 15 -2 15 -4z m-1443 -28 c-3 -8 -6 -5 -6 6 -1 11 2 17 5 13
3 -3 4 -12 1 -19z m1587 -103 c12 -46 -10 -59 -44 -25 -11 11 -29 20 -40 20
-11 0 -20 5 -20 11 0 7 10 9 24 5 14 -3 28 -2 31 4 12 20 43 10 49 -15z m113
-61 c-3 -3 -12 -4 -19 -1 -8 3 -5 6 6 6 11 1 17 -2 13 -5z m-817 -668 c0 -23
-16 -27 -17 -5 -1 10 2 19 8 19 5 0 9 -6 9 -14z m818 -78 c-3 -7 -13 -15 -24
-17 -16 -3 -17 -1 -5 13 16 19 34 21 29 4z m-838 -243 c10 -13 9 -15 -10 -15
-25 0 -49 -25 -50 -52 0 -23 -11 -23 -44 3 -30 23 -32 34 -12 55 18 17 56 19
56 2 0 -8 6 -6 17 5 21 21 27 21 43 2z m1935 -15 c9 -16 13 -30 9 -30 -10 0
-42 45 -37 52 7 13 12 9 28 -22z m-2389 -35 c-11 -35 -29 -45 -41 -24 -4 6
-17 14 -29 19 -17 7 -13 9 22 9 40 1 56 14 30 24 -7 3 -4 6 8 6 19 1 20 -2 10
-34z m2434 -15 c0 -5 -4 -10 -10 -10 -5 0 -10 5 -10 10 0 6 5 10 10 10 6 0 10
-4 10 -10z m-2374 -15 c-3 -8 -1 -15 4 -15 6 0 10 3 10 8 0 15 56 4 92 -18 39
-23 42 -40 7 -40 -10 0 -19 -7 -19 -15 0 -8 5 -15 10 -15 6 0 10 -18 10 -40 0
-22 5 -40 11 -40 7 0 10 16 8 43 -3 30 0 44 9 44 8 0 12 -16 12 -44 0 -35 3
-43 18 -43 20 0 42 -21 62 -58 11 -23 10 -24 -27 -21 -21 2 -44 7 -50 12 -19
14 -16 -13 4 -35 15 -16 15 -20 0 -35 -8 -10 -17 -31 -19 -48 -2 -21 -9 -31
-23 -33 -11 -2 -29 -15 -39 -29 -18 -24 -18 -27 -3 -38 11 -8 17 -27 17 -53 0
-34 3 -40 16 -35 20 7 44 -21 44 -51 0 -19 -1 -19 -23 2 -13 12 -28 22 -34 22
-6 0 -27 15 -46 33 -20 17 -55 47 -79 66 -73 58 -167 160 -198 214 -23 39 -30
65 -30 104 0 28 5 55 10 58 6 3 10 17 10 31 0 14 4 23 8 20 5 -3 18 3 28 13
33 30 71 34 101 11 35 -28 53 -25 66 10 6 17 18 30 25 30 8 0 12 -6 8 -15z
m314 -30 c-7 -8 -16 -15 -21 -15 -5 0 -9 7 -9 15 0 9 9 15 21 15 18 0 19 -2 9
-15z m40 11 c0 -3 -4 -8 -10 -11 -5 -3 -10 -1 -10 4 0 6 5 11 10 11 6 0 10 -2
10 -4z m4217 -18 c-3 -8 -6 -5 -6 6 -1 11 2 17 5 13 3 -3 4 -12 1 -19z m-4342
-18 c-10 -11 -25 -20 -33 -20 -12 0 -12 4 3 20 10 11 25 20 33 20 12 0 12 -4
-3 -20z m3785 -270 c0 -5 -9 -10 -21 -10 -11 0 -17 5 -14 10 3 6 13 10 21 10
8 0 14 -4 14 -10z m78 -78 c2 -7 -6 -12 -17 -12 -21 0 -27 11 -14 24 9 9 26 2
31 -12z m-18 -43 c0 -5 -4 -9 -10 -9 -5 0 -10 7 -10 16 0 8 5 12 10 9 6 -3 10
-10 10 -16z m-312 -69 c0 -9 -3 -7 -8 5 -5 11 -8 29 -8 40 0 16 2 15 8 -5 4
-14 8 -32 8 -40z m264 10 c19 -17 19 -20 5 -26 -19 -7 -23 -34 -6 -34 5 0 8
-4 4 -10 -8 -13 -45 21 -45 42 0 9 5 20 10 23 6 4 8 11 5 16 -10 16 5 10 27
-11z m-1956 -16 c66 -26 124 -59 124 -69 0 -5 7 -23 15 -39 15 -28 14 -30 -15
-56 -35 -31 -36 -37 -12 -43 14 -4 14 -6 -5 -12 -12 -4 -25 -16 -28 -26 -4
-11 -11 -17 -16 -13 -6 3 -16 0 -24 -6 -11 -10 -15 -10 -15 -1 0 7 -5 9 -10 6
-6 -4 -21 0 -34 9 -13 8 -33 12 -44 10 -14 -4 -27 4 -46 29 -22 28 -26 44 -25
91 1 31 -1 59 -3 62 -3 2 7 18 21 33 23 25 40 34 72 40 4 0 24 -6 45 -15z
m1651 -96 c-3 -8 -6 -5 -6 6 -1 11 2 17 5 13 3 -3 4 -12 1 -19z m33 -33 c0
-21 5 -25 28 -25 15 0 44 5 65 11 22 6 41 8 44 5 9 -9 -38 -76 -53 -76 -8 0
-14 -4 -14 -10 0 -5 -11 -12 -25 -16 -14 -3 -25 -10 -25 -14 0 -5 -15 -11 -32
-15 -58 -12 -68 -16 -68 -31 0 -9 -11 -30 -25 -48 -14 -18 -25 -40 -25 -48 0
-9 -20 -37 -44 -64 -24 -26 -42 -53 -39 -61 3 -7 0 -13 -6 -13 -6 0 -11 -5
-11 -11 0 -5 4 -7 10 -4 12 7 25 -40 15 -55 -5 -7 -18 0 -36 22 -25 27 -32 30
-39 18 -5 -8 -10 -19 -10 -23 0 -5 -5 -5 -11 -1 -7 4 -10 1 -7 -6 4 -14 -35
-59 -67 -75 -11 -6 -22 -24 -25 -39 -4 -22 -11 -30 -29 -31 -14 -1 -27 -7 -29
-13 -2 -7 -10 -12 -18 -12 -8 0 -14 -7 -14 -16 0 -8 -4 -13 -8 -10 -5 3 -21
-2 -37 -10 -15 -8 -30 -12 -32 -10 -6 6 40 68 94 128 24 26 43 51 43 55 0 4
35 44 76 88 42 44 122 141 177 215 56 74 104 137 107 140 9 7 23 44 21 54 -1
5 5 6 14 3 9 -4 15 -1 15 8 0 8 5 15 10 15 6 0 10 -11 10 -25z m-1820 -189
c-5 -5 -17 -5 -27 -1 -17 8 -17 8 0 12 9 3 17 10 17 16 0 7 4 6 10 -3 5 -9 5
-19 0 -24z m-1260 -47 c0 -5 -9 -9 -20 -9 -17 0 -19 2 -8 14 13 14 28 12 28
-5z m-20 -49 c0 -5 -4 -10 -10 -10 -5 0 -10 5 -10 10 0 6 5 10 10 10 6 0 10
-4 10 -10z m-103 -46 c-3 -3 -12 -4 -19 -1 -8 3 -5 6 6 6 11 1 17 -2 13 -5z
m50 0 c-3 -3 -12 -4 -19 -1 -8 3 -5 6 6 6 11 1 17 -2 13 -5z m2543 -454 c0
-44 -9 -50 -27 -21 -9 15 -8 23 3 40 21 29 24 27 24 -19z m-32 -82 c-12 -35
-49 -40 -40 -6 5 21 6 21 13 2 6 -17 7 -17 13 7 4 14 6 29 5 35 -4 21 3 28 10
9 5 -11 4 -32 -1 -47z m1045 -153 c22 -20 26 -30 21 -52 -7 -26 -20 -43 -36
-43 -13 0 -68 59 -68 74 0 51 38 60 83 21z m-1205 -343 c2 -19 -1 -32 -8 -32
-7 0 -10 -7 -6 -15 3 -10 -1 -15 -13 -15 -21 0 -31 19 -31 60 0 51 53 53 58 2z
m-2538 -118 c41 -8 102 -22 135 -31 33 -8 83 -18 111 -23 62 -10 247 -100 335
-162 35 -25 78 -52 94 -61 17 -8 51 -35 76 -59 25 -23 78 -70 118 -103 41 -33
88 -73 106 -90 100 -93 123 -112 152 -133 18 -13 38 -20 43 -17 6 4 50 -33 99
-82 110 -111 161 -172 161 -194 0 -10 4 -19 8 -21 11 -4 67 -125 76 -161 4
-19 3 -26 -3 -22 -11 6 -4 -21 9 -40 13 -19 42 -160 38 -185 -4 -24 -5 -24
-13 5 -4 17 -15 39 -23 50 -14 19 -14 19 -7 -5 5 -14 10 -57 12 -97 l5 -72 80
-3 c93 -4 111 3 75 27 -77 50 -20 73 185 74 189 1 232 7 568 76 41 9 100 21
130 27 195 38 283 73 363 145 43 38 75 53 116 53 35 0 169 -48 247 -88 93 -48
163 -78 239 -103 39 -12 82 -28 97 -36 14 -7 30 -13 36 -13 5 0 56 -22 113
-49 57 -27 133 -60 169 -74 97 -36 159 -67 215 -106 63 -43 121 -93 117 -100
-2 -3 -18 -11 -37 -18 -49 -17 -111 -61 -201 -145 -86 -80 -193 -163 -200
-155 -3 2 9 28 25 56 26 43 28 51 13 51 -9 0 -30 -14 -47 -31 -35 -36 -43 -25
-19 28 10 21 18 45 20 53 1 8 5 27 9 43 8 30 -9 38 -29 13 -6 -8 -27 -17 -47
-20 -28 -5 -39 -2 -54 14 -15 17 -31 20 -95 20 -52 0 -82 5 -96 15 -10 8 -36
19 -56 25 -20 6 -50 21 -65 33 -55 45 -104 67 -148 67 -56 0 -75 8 -75 31 0
25 -29 35 -105 39 -103 5 -115 3 -240 -54 -27 -13 -61 -26 -75 -30 -14 -4 -34
-11 -45 -16 -11 -4 -47 -14 -80 -21 -33 -7 -72 -18 -87 -26 -49 -24 -112 -41
-198 -53 -47 -7 -118 -18 -159 -26 -90 -17 -116 -18 -142 -1 -17 10 -22 9 -31
-7 -6 -10 -39 -31 -74 -47 -83 -38 -145 -39 -197 -3 -21 14 -37 30 -34 37 2 6
52 28 113 49 60 21 123 44 139 52 17 8 53 22 80 32 54 19 87 41 45 30 -63 -16
-232 -27 -305 -20 -44 4 -93 8 -110 9 -16 2 -43 6 -59 10 -28 8 -29 7 -22 -20
4 -15 22 -51 40 -79 58 -90 85 -144 92 -182 l7 -38 -28 22 c-19 16 -32 19 -39
12 -5 -5 -13 -58 -17 -117 -8 -122 -21 -173 -54 -218 -12 -16 -42 -66 -66
-111 -57 -106 -79 -119 -239 -138 -93 -11 -120 -19 -135 -42 -8 -13 -22 -24
-30 -24 -8 0 -20 -12 -27 -27 -12 -25 -18 -28 -63 -26 -28 1 -65 6 -82 11 -25
8 -36 7 -46 -3 -8 -7 -25 -11 -40 -8 -33 7 -46 23 -18 23 21 0 41 27 41 55 0
9 -4 13 -10 10 -5 -3 -18 -2 -27 4 -16 9 -15 11 9 20 17 6 33 25 46 53 10 24
34 54 52 68 18 14 42 33 54 43 11 11 33 25 48 33 15 8 29 23 33 34 3 11 11 20
16 20 15 0 10 26 -7 41 -24 20 -13 84 20 110 14 11 26 26 26 32 0 7 20 38 44
70 32 42 46 71 51 106 3 26 5 51 4 57 -1 5 -1 35 0 67 1 64 15 73 61 37 14
-11 33 -20 42 -20 9 0 27 -14 40 -31 13 -16 38 -47 55 -67 36 -41 39 -35 23
48 -8 42 -21 66 -65 117 -83 98 -138 231 -113 274 11 18 11 22 0 26 -7 3 -26
16 -41 29 -16 13 -37 24 -46 24 -9 0 -31 10 -48 22 -60 43 -406 70 -445 35
-10 -10 -26 -17 -35 -17 -9 0 -17 -4 -17 -10 0 -5 5 -10 11 -10 13 0 61 -56
75 -89 16 -37 100 -76 263 -121 78 -21 145 -41 151 -45 16 -10 3 -23 -38 -35
-20 -7 -57 -21 -82 -32 -75 -33 -80 -35 -224 -83 -76 -25 -139 -45 -140 -43 0
2 -11 23 -24 48 -30 61 -28 77 18 139 53 70 52 83 -2 76 -152 -20 -168 -26
-182 -60 -8 -18 -18 -35 -23 -38 -6 -4 -35 3 -67 14 -49 18 -60 19 -86 7 -17
-7 -30 -21 -30 -30 0 -10 -8 -22 -18 -27 -26 -14 -69 -9 -68 8 1 8 -13 18 -30
23 -41 11 -64 36 -43 48 12 8 12 11 -2 22 -34 29 -42 51 -46 136 -2 48 -12
114 -23 147 -10 33 -21 80 -24 105 -8 56 -44 127 -68 133 -12 4 -18 15 -18 35
0 17 -4 34 -10 37 -17 10 -11 25 10 25 12 0 20 -7 20 -17 0 -15 2 -16 10 -3
15 25 -6 36 -76 38 -46 2 -73 -2 -90 -13 -13 -8 -31 -14 -41 -13 -36 3 -62 -2
-75 -15 -13 -13 -129 -39 -138 -30 -2 2 2 8 9 13 20 12 5 43 -16 36 -10 -3
-25 -1 -33 5 -13 9 -12 10 3 5 10 -3 15 -2 12 3 -3 5 0 21 6 35 10 20 9 28 -5
41 -20 21 -21 35 -1 35 38 0 39 91 3 167 -6 12 -8 33 -4 48 4 16 2 33 -5 41
-7 9 -9 27 -3 51 14 66 15 77 15 107 0 16 7 35 17 42 13 9 14 16 6 24 -7 7
-10 34 -7 73 4 47 11 68 29 88 13 14 24 28 24 32 0 18 89 90 144 117 72 35
140 39 256 14z m510 -29 c14 -16 10 -18 -14 -9 -9 3 -16 10 -16 15 0 14 16 11
30 -6z m120 -89 c0 -3 -4 -8 -10 -11 -5 -3 -10 -1 -10 4 0 6 5 11 10 11 6 0
10 -2 10 -4z m2019 -100 c59 -88 76 -112 124 -169 49 -58 58 -92 22 -92 -17 0
-69 55 -117 124 l-17 24 -31 -27 c-18 -15 -44 -26 -61 -26 -34 0 -36 -8 -11
-41 22 -29 52 -107 52 -136 0 -28 -24 -46 -50 -38 -19 6 -21 12 -15 44 10 58
-41 155 -122 233 -43 43 -63 69 -61 83 5 32 45 20 94 -30 45 -44 95 -64 130
-51 16 6 16 17 -2 88 -16 69 22 77 65 14z m-349 -186 c21 -11 41 -24 45 -30 3
-5 31 -22 61 -36 77 -36 71 -57 -16 -61 -36 -2 -85 -11 -108 -19 -32 -12 -47
-13 -55 -5 -6 6 -27 11 -47 11 -45 0 -76 21 -67 44 4 10 15 16 24 15 57 -5 63
-1 63 44 0 24 3 47 7 50 12 13 54 7 93 -13z m-290 -22 c22 -36 26 -58 10 -58
-16 0 -59 53 -60 73 0 28 29 19 50 -15z m520 -172 c0 -20 -38 -31 -188 -57
-98 -17 -135 -20 -143 -12 -22 22 -2 40 53 46 29 4 87 13 128 20 103 20 150
21 150 3z m-1000 -468 c0 -5 -7 -8 -15 -8 -17 0 -18 2 -9 25 5 13 8 14 15 3 5
-7 9 -16 9 -20z m54 -125 c10 -32 24 -80 32 -106 16 -52 12 -78 -6 -33 -5 15
-10 32 -10 37 0 5 -4 17 -10 27 -13 24 -40 109 -40 128 0 30 17 4 34 -53z
m-1680 -411 c-6 -9 -17 -17 -25 -17 -8 0 -13 -9 -12 -20 2 -23 -18 -39 -28
-23 -11 17 -59 -37 -58 -64 2 -45 15 -73 34 -74 49 -2 55 -5 55 -24 0 -24 -30
-23 -58 3 -23 21 -38 22 -45 3 -6 -15 -57 -10 -57 5 0 5 -7 9 -16 9 -14 0 -14
-3 -4 -15 7 -9 10 -18 6 -22 -8 -8 -33 23 -52 66 -11 24 -12 37 -5 44 6 6 11
16 11 22 0 5 -5 3 -10 -5 -8 -12 -10 -10 -10 8 0 13 4 20 10 17 6 -3 10 1 10
9 0 9 -4 16 -10 16 -20 0 -9 18 15 24 14 4 25 10 25 14 0 5 13 7 28 4 17 -2
33 2 41 12 7 8 19 12 27 9 9 -3 25 -1 37 4 73 34 113 31 91 -5z m1211 -108
c14 -15 25 -31 25 -35 0 -5 16 -15 35 -23 59 -25 55 -64 -7 -79 -23 -6 -30 -3
-43 23 -16 31 -35 40 -35 17 0 -7 -30 -41 -66 -75 -48 -45 -74 -62 -93 -62
-20 0 -31 -7 -39 -25 -13 -27 -67 -65 -94 -65 -9 0 -33 -16 -54 -35 -44 -42
-76 -52 -111 -36 -14 7 -26 10 -27 9 -42 -68 -52 -72 -96 -29 -33 31 -38 56
-15 65 8 3 15 12 15 21 0 19 20 19 46 0 30 -22 36 -18 32 22 -3 34 0 39 37 60
24 13 49 20 62 17 18 -5 21 -2 16 16 -7 27 80 115 105 105 10 -3 26 5 43 25
19 20 37 30 58 30 22 0 35 8 51 30 19 27 26 30 56 24 26 -5 35 -2 40 10 9 24
32 20 59 -10z m-899 -9 c7 -29 1 -41 -15 -30 -14 8 -14 55 -1 55 5 0 12 -11
16 -25z m81 -1398 c6 -4 18 -5 26 -1 8 3 42 -2 75 -10 33 -9 72 -16 87 -16 17
0 37 -10 51 -25 12 -13 43 -29 68 -36 25 -6 57 -24 73 -40 15 -16 35 -29 44
-29 8 0 20 -5 27 -12 8 -8 52 -12 135 -13 l122 0 60 38 c41 25 72 37 96 37 72
0 225 -79 392 -202 77 -57 86 -60 202 -73 28 -3 48 -13 67 -35 15 -16 32 -30
38 -30 5 0 10 -3 10 -8 0 -4 16 -16 35 -26 19 -11 35 -23 35 -28 0 -4 6 -8 13
-8 21 0 144 -131 177 -188 9 -15 28 -49 44 -75 24 -40 28 -56 24 -97 -5 -54 5
-87 17 -51 18 57 54 -58 47 -149 -2 -19 -19 -66 -39 -104 -30 -58 -34 -72 -24
-88 7 -11 9 -28 6 -38 -6 -20 10 -37 20 -20 4 6 10 8 15 5 4 -3 10 4 13 15 6
22 27 28 27 8 -1 -20 -24 -45 -37 -41 -8 3 -13 -5 -13 -22 0 -14 -5 -36 -11
-48 -18 -35 -122 -128 -149 -133 -40 -9 -72 -37 -64 -57 3 -10 14 -17 23 -16
46 4 58 -15 18 -30 -12 -5 -29 -21 -37 -36 l-15 -28 -85 7 c-96 7 -182 22
-455 77 -359 72 -397 83 -534 157 -155 83 -225 158 -307 332 -31 63 -60 123
-65 132 -5 10 -9 25 -9 33 0 8 -4 24 -10 35 -5 11 -14 29 -20 40 -5 11 -10 24
-10 30 0 6 -9 29 -19 53 -10 23 -45 105 -76 182 -32 77 -107 241 -167 364 -60
124 -108 234 -106 245 2 17 13 22 48 27 54 7 101 5 117 -4z m2103 -758 c0 -11
-4 -17 -10 -14 -5 3 -10 13 -10 21 0 8 5 14 10 14 6 0 10 -9 10 -21z m47 -56
c29 3 61 -1 93 -13 29 -11 52 -14 57 -9 6 6 21 4 38 -5 16 -8 33 -12 38 -9 12
7 127 -114 127 -133 0 -7 11 -25 25 -40 30 -32 62 -98 71 -144 4 -19 13 -38
19 -42 7 -4 18 -29 25 -55 7 -27 17 -52 21 -57 5 -6 9 -22 9 -36 0 -14 6 -32
13 -39 10 -11 10 -13 0 -7 -9 5 -13 -2 -13 -23 0 -16 6 -31 13 -34 8 -2 12
-29 12 -83 1 -43 4 -89 9 -102 12 -34 -45 -86 -120 -109 -87 -27 -500 -26
-659 1 -60 10 -114 22 -119 27 -12 11 31 59 52 59 26 0 106 92 149 170 22 41
53 113 68 159 27 80 28 88 21 225 -7 151 -10 182 -19 206 -11 32 -16 80 -8 80
5 0 12 -6 14 -12 3 -7 6 -3 6 10 1 12 -5 22 -11 22 -9 0 -8 4 2 10 11 7 16 5
18 -6 3 -13 13 -15 49 -11z m1242 -115 c48 -2 55 -6 126 -74 54 -51 74 -76 69
-88 -7 -19 16 -22 34 -4 10 10 11 5 6 -20 -7 -36 10 -44 31 -15 15 20 38 8 30
-16 -3 -12 3 -22 20 -31 15 -8 29 -28 35 -49 6 -22 24 -47 46 -65 24 -19 34
-34 31 -46 -3 -13 2 -20 19 -24 13 -4 24 -13 24 -22 0 -8 7 -17 16 -21 8 -3
13 -12 9 -21 -3 -8 3 -29 13 -46 10 -17 22 -44 26 -59 3 -15 12 -26 19 -24 7
1 13 -11 15 -30 2 -17 10 -37 18 -43 8 -7 14 -25 14 -41 0 -15 5 -31 10 -34 6
-4 8 -11 5 -16 -4 -5 1 -9 9 -9 11 0 16 -9 16 -28 0 -15 8 -38 17 -52 12 -17
18 -50 21 -110 4 -82 -3 -114 -30 -152 -10 -14 -8 -21 11 -42 20 -21 26 -43
36 -141 7 -63 19 -122 26 -131 10 -12 10 -20 1 -34 -7 -12 -8 -29 -2 -52 5
-18 11 -57 15 -85 4 -29 11 -53 16 -53 5 0 9 -10 9 -22 0 -29 -59 -66 -71 -46
-5 7 -9 21 -9 31 0 11 -8 17 -24 17 -32 0 -91 42 -91 65 0 13 -12 26 -34 36
-19 9 -40 24 -48 34 -7 11 -13 15 -13 10 0 -4 -9 0 -21 11 l-21 19 24 6 23 7
-22 1 c-22 1 -34 31 -13 31 6 0 5 8 -2 20 -7 11 -22 20 -34 20 -20 0 -44 35
-44 64 0 11 -26 27 -111 71 -10 5 -19 17 -19 27 0 9 -11 25 -25 36 -14 11 -25
27 -25 36 0 9 -15 22 -34 30 -27 11 -35 21 -40 52 -10 51 -32 84 -56 84 -14 0
-20 8 -22 33 -2 24 -7 31 -20 29 -11 -2 -18 3 -18 13 0 24 -43 89 -78 119 -7
6 -21 19 -30 29 -9 9 -24 17 -34 17 -11 0 -18 7 -18 19 0 10 -7 24 -15 31 -8
7 -15 25 -15 41 0 40 -15 73 -47 103 -25 23 -26 29 -16 56 6 16 7 30 3 30 -5
0 -20 10 -33 23 -20 18 -22 25 -13 40 9 14 7 21 -10 35 -16 13 -20 22 -14 37
13 30 12 35 -5 29 -28 -11 -16 27 17 56 27 24 30 30 19 44 -11 14 -11 16 4 16
14 0 16 8 13 46 -3 38 -1 44 14 41 24 -7 31 21 8 33 -21 11 -17 40 5 40 7 0
18 14 24 31 6 19 16 29 23 26 7 -3 21 -8 30 -12 11 -4 20 0 28 14 6 12 17 21
24 21 8 0 17 7 20 16 6 15 8 15 31 0 13 -9 47 -17 74 -18z m1011 -1638 c0 -5
-4 -10 -10 -10 -5 0 -10 5 -10 10 0 6 5 10 10 10 6 0 10 -4 10 -10z m340 -769
c0 -9 -23 -21 -41 -21 -4 0 -6 7 -3 15 7 16 44 21 44 6z m244 -67 c4 -9 4 -19
1 -22 -3 -3 -5 0 -5 6 0 7 -7 12 -16 12 -8 0 -12 5 -9 10 9 15 22 12 29 -6z"/>
<path d="M1000 9600 c8 -5 22 -9 30 -9 10 0 8 3 -5 9 -27 12 -43 12 -25 0z"/>
<path d="M1040 9490 c0 -5 9 -10 19 -10 11 0 23 5 26 10 4 6 -5 10 -19 10 -14
0 -26 -4 -26 -10z"/>
<path d="M1086 9201 c-3 -5 1 -14 8 -20 12 -10 13 -8 9 8 -6 23 -9 25 -17 12z"/>
<path d="M2010 7160 c-8 -6 -32 -7 -53 -4 -25 4 -45 1 -60 -8 -12 -8 -35 -18
-52 -22 -71 -18 -187 -139 -238 -248 -19 -39 -16 -70 9 -103 15 -20 16 -19 44
13 17 17 32 32 35 32 3 0 5 -15 5 -34 0 -61 43 -136 114 -199 107 -94 183 -99
303 -17 82 56 106 78 98 90 -4 6 -19 9 -33 8 -20 -2 -26 1 -24 13 2 12 -4 15
-23 11 -28 -5 -33 12 -11 37 45 50 68 67 135 105 41 22 75 46 75 51 1 6 -11
11 -26 13 -16 2 -28 9 -28 18 0 25 -50 36 -135 30 -73 -6 -186 -37 -209 -58
-6 -4 -21 -8 -34 -8 -21 0 -23 3 -18 23 4 12 8 29 9 37 1 8 9 18 17 22 10 4 6
7 -12 7 -36 1 -40 12 -20 49 17 31 112 113 145 125 9 3 17 11 17 17 0 13 -11
13 -30 0z m222 -268 c15 -15 -250 -111 -272 -97 -17 11 -11 23 26 51 54 41
130 65 188 60 27 -3 53 -9 58 -14z"/>
<path d="M2685 6760 c10 -11 20 -20 22 -20 2 0 -2 9 -9 20 -7 11 -17 20 -22
20 -5 0 -1 -9 9 -20z"/>
<path d="M2736 6701 c8 -16 21 -32 30 -35 11 -4 10 2 -6 24 -29 40 -42 46 -24
11z"/>
<path d="M2830 6575 c0 -5 5 -17 10 -25 5 -8 10 -10 10 -5 0 6 -5 17 -10 25
-5 8 -10 11 -10 5z"/>
<path d="M4144 6197 l-27 -24 31 -16 c31 -15 32 -15 32 8 0 12 10 30 23 38
l22 16 -27 0 c-15 1 -39 -10 -54 -22z"/>
<path d="M1668 5993 c7 -3 16 -2 19 1 4 3 -2 6 -13 5 -11 0 -14 -3 -6 -6z"/>
<path d="M3707 7114 c-11 -12 13 -44 33 -44 37 0 33 32 -6 44 -11 3 -23 3 -27
0z"/>
<path d="M1095 5811 c-3 -5 -1 -12 5 -16 5 -3 10 1 10 9 0 18 -6 21 -15 7z"/>
<path d="M2786 10584 c-10 -27 -7 -44 9 -44 26 0 74 -29 143 -86 92 -76 109
-72 57 15 -21 36 -156 131 -185 131 -10 0 -21 -7 -24 -16z"/>
<path d="M6080 10144 c0 -8 5 -12 10 -9 6 3 10 10 10 16 0 5 -4 9 -10 9 -5 0
-10 -7 -10 -16z"/>
<path d="M5752 9826 c7 -8 15 -12 17 -11 5 6 -10 25 -20 25 -5 0 -4 -6 3 -14z"/>
<path d="M3975 9650 c-4 -6 8 -10 30 -10 22 0 34 4 30 10 -3 6 -17 10 -30 10
-13 0 -27 -4 -30 -10z"/>
<path d="M2747 9593 c-12 -11 -8 -23 8 -23 8 0 15 7 15 15 0 16 -12 20 -23 8z"/>
<path d="M5340 9530 c-13 -8 -12 -10 3 -10 9 0 17 5 17 10 0 12 -1 12 -20 0z"/>
<path d="M5300 9490 c0 -15 5 -20 18 -18 9 2 17 10 17 18 0 8 -8 16 -17 18
-13 2 -18 -3 -18 -18z"/>
<path d="M95 6080 c3 -5 8 -10 11 -10 2 0 4 5 4 10 0 6 -5 10 -11 10 -5 0 -7
-4 -4 -10z"/>
<path d="M6711 3960 c0 -8 4 -22 9 -30 12 -18 12 -2 0 25 -6 13 -9 15 -9 5z"/>
<path d="M7105 970 c-3 -5 1 -10 10 -10 9 0 13 5 10 10 -3 6 -8 10 -10 10 -2
0 -7 -4 -10 -10z"/>
<path d="M5640 187 c0 -14 -4 -29 -10 -32 -13 -8 -13 -25 0 -25 11 0 25 68 16
77 -3 4 -6 -5 -6 -20z"/>
<path d="M5619 113 c0 -5 -2 -18 -5 -30 -2 -13 1 -23 6 -23 6 0 10 14 10 30 0
26 -9 44 -11 23z"/>
<path d="M5597 26 c-4 -10 -5 -21 -2 -24 9 -9 17 6 13 25 -3 17 -4 17 -11 -1z"/>
</g>
</svg>
