<?xml version="1.0" standalone="no"?>
<!DOCTYPE svg PUBLIC "-//W3C//DTD SVG 20010904//EN"
 "http://www.w3.org/TR/2001/REC-SVG-20010904/DTD/svg10.dtd">
<svg version="1.0" xmlns="http://www.w3.org/2000/svg"
 width="960.000000pt" height="1280.000000pt" viewBox="0 0 960.000000 1280.000000"
 preserveAspectRatio="xMidYMid meet">

<g transform="translate(0.000000,1280.000000) scale(0.100000,-0.100000)"
fill="#000000" stroke="none">
<path d="M0 12675 c0 -119 1 -125 25 -149 28 -28 32 -46 11 -46 -7 0 -17 10
-22 23 -5 13 -10 -67 -12 -203 -3 -239 -5 -228 49 -332 21 -41 16 -68 -13 -68
-10 0 -17 3 -15 8 3 4 -1 13 -9 20 -12 11 -14 8 -14 -17 l0 -29 63 3 c34 2 87
6 117 9 30 3 120 11 200 17 133 10 146 12 167 35 26 28 35 30 31 7 -3 -15 9
-19 75 -27 43 -5 81 -6 84 -2 4 3 1 17 -6 30 -8 13 -10 29 -7 35 4 6 2 11 -3
11 -6 0 -11 6 -11 13 0 7 -13 31 -30 53 -16 21 -30 42 -30 47 0 12 -73 107
-82 107 -4 0 -8 12 -8 28 0 24 -74 189 -91 202 -16 12 -50 90 -44 100 8 13 66
13 195 -2 79 -8 110 -16 127 -31 21 -18 23 -18 39 -3 19 20 96 19 284 -3 119
-14 143 -26 160 -76 6 -19 15 -35 18 -35 4 0 13 -15 20 -32 20 -53 136 -281
150 -296 7 -8 27 -45 44 -83 29 -62 36 -69 61 -69 24 0 28 3 22 18 -4 9 -13
31 -19 47 -6 17 -28 56 -49 88 -20 31 -37 65 -37 75 0 24 -60 140 -114 220
-47 70 -56 96 -33 105 9 3 188 -16 204 -22 1 -1 33 -63 71 -138 89 -180 150
-293 172 -318 10 -11 22 -33 27 -50 5 -16 17 -31 26 -33 26 -5 21 25 -8 50
-24 21 -35 68 -16 68 15 0 0 72 -22 110 -12 19 -32 43 -44 53 -13 10 -23 25
-23 33 0 8 -4 14 -8 14 -5 0 -15 18 -22 39 -7 21 -23 51 -36 66 -14 16 -24 41
-24 58 0 27 2 29 33 24 66 -11 71 -14 79 -45 11 -40 29 -53 23 -15 -9 47 5 56
74 48 41 -5 68 -14 80 -26 23 -25 101 -182 101 -203 0 -16 8 -33 71 -146 83
-149 85 -152 117 -131 11 7 11 16 -2 55 -9 26 -25 64 -35 84 -80 154 -152 314
-147 327 3 9 10 14 15 11 5 -4 17 -3 26 0 22 9 17 27 -55 182 -33 71 -60 134
-60 140 0 7 -4 12 -9 12 -5 0 -16 18 -25 40 l-16 40 -930 0 -930 0 0 -125z
m988 -6 c-2 -6 -8 -10 -13 -10 -5 0 -11 4 -13 10 -2 6 4 11 13 11 9 0 15 -5
13 -11z m-679 -128 c7 -5 26 -37 41 -72 16 -35 33 -65 39 -67 6 -2 11 -10 11
-17 0 -10 -11 -12 -40 -8 -27 4 -40 2 -40 -6 0 -7 -5 -9 -10 -6 -6 4 -18 1
-26 -6 -12 -9 -17 -10 -27 0 -14 14 -16 121 -2 121 6 0 -1 6 -14 13 -33 16
-36 30 -9 43 29 14 59 16 77 5z m109 -207 c12 -8 22 -21 22 -29 0 -8 13 -29
28 -47 30 -35 52 -96 52 -146 0 -17 4 -33 10 -37 12 -8 1 -35 -15 -35 -7 0
-24 10 -39 21 -36 29 -44 17 -19 -29 l20 -39 -23 5 c-13 2 -24 10 -24 17 0 7
-16 29 -35 49 -48 50 -65 118 -53 221 3 26 31 64 48 65 3 0 16 -7 28 -16z"/>
<path d="M240 12514 c0 -8 5 -12 10 -9 6 4 8 11 5 16 -9 14 -15 11 -15 -7z"/>
<path d="M2099 12778 c5 -13 37 -88 71 -168 34 -80 70 -165 80 -190 24 -62 33
-84 74 -173 20 -42 36 -80 36 -83 0 -3 25 -56 55 -119 30 -62 58 -126 61 -142
l6 -30 -59 -7 c-60 -6 -213 -3 -628 14 -447 19 -1411 4 -1727 -26 l-68 -7 0
-3799 0 -3800 47 53 c26 30 73 81 103 114 36 39 72 94 102 156 61 125 126 193
198 208 28 6 66 11 85 11 47 0 97 26 123 64 12 18 54 50 92 72 64 35 70 42 70
71 0 18 17 60 41 102 l41 71 5 137 6 136 36 36 c31 31 47 38 113 49 68 12 83
11 125 -3 43 -15 141 -62 153 -75 3 -3 12 -9 21 -15 23 -14 198 -150 231 -180
15 -13 40 -32 55 -42 16 -10 35 -24 43 -32 8 -7 28 -20 45 -27 16 -7 41 -24
54 -38 14 -14 29 -26 33 -26 5 0 24 -11 42 -25 18 -14 36 -25 40 -25 4 0 19
-9 33 -20 14 -11 30 -20 36 -20 16 0 -26 37 -51 44 -12 4 -22 11 -22 16 0 5
-21 22 -48 37 -56 32 -88 56 -252 191 -69 57 -155 124 -192 148 -38 24 -68 47
-68 51 0 5 8 24 18 43 17 33 49 129 85 260 17 59 23 137 33 380 3 85 10 187
14 225 14 104 12 118 -14 146 -32 34 -60 92 -75 153 -7 27 -23 71 -37 99 -14
28 -46 102 -70 165 -24 64 -68 156 -98 206 -58 99 -89 179 -88 235 0 20 7 85
15 144 17 118 26 136 89 168 66 34 127 21 219 -47 27 -19 54 -32 59 -29 7 4
14 -2 17 -14 7 -26 23 -28 23 -2 0 17 3 18 25 8 25 -12 33 -27 15 -27 -7 0 -7
-7 0 -20 9 -16 8 -22 -5 -26 -19 -8 -20 -34 0 -34 9 0 14 -8 13 -22 -1 -13 9
-54 22 -93 22 -63 24 -85 23 -220 -1 -82 -4 -215 -8 -295 -3 -80 -8 -245 -10
-367 -4 -182 -7 -229 -21 -255 -9 -18 -22 -36 -28 -40 -8 -6 -8 -10 0 -15 6
-5 12 -39 13 -78 1 -48 6 -73 16 -81 8 -6 15 -17 15 -25 0 -8 7 -32 15 -54 8
-22 14 -57 15 -77 0 -20 6 -43 14 -50 7 -8 21 -30 31 -48 10 -19 23 -42 30
-50 6 -8 22 -41 35 -72 12 -32 26 -56 30 -53 5 3 11 1 15 -5 4 -6 10 -8 15 -5
11 7 50 -30 50 -48 0 -22 26 -52 34 -39 12 20 26 13 26 -12 0 -13 3 -32 6 -40
7 -19 65 -48 85 -44 8 2 15 -7 17 -19 2 -13 10 -23 19 -23 18 0 42 -28 43 -50
0 -14 41 -40 64 -40 14 -1 48 -31 62 -55 6 -11 22 -22 35 -23 13 -2 31 -9 39
-16 8 -6 31 -20 50 -30 19 -11 38 -25 42 -31 17 -28 206 -144 260 -159 34 -10
62 -24 68 -35 5 -11 32 -27 60 -36 27 -9 52 -21 55 -26 4 -5 19 -9 35 -9 16 0
32 -4 35 -10 3 -5 21 -10 38 -10 44 -1 83 -38 91 -86 7 -37 5 -40 -24 -51 -23
-8 -30 -17 -30 -37 0 -18 -5 -26 -18 -26 -23 0 -42 -19 -42 -42 0 -10 -4 -18
-10 -18 -5 0 -10 5 -10 10 0 6 -7 10 -15 10 -8 0 -23 4 -33 9 -9 5 -39 16 -67
24 -99 31 -271 95 -320 120 -27 13 -95 46 -150 73 -55 26 -102 51 -105 56 -5
7 -74 38 -84 38 -3 0 -3 -7 0 -15 3 -8 22 -19 41 -26 33 -11 90 -44 121 -70 7
-6 50 -29 95 -50 45 -22 142 -71 216 -109 74 -38 142 -71 150 -73 85 -26 303
-142 382 -203 51 -39 64 -44 125 -49 38 -3 83 -10 99 -14 17 -5 63 -19 102
-31 40 -11 86 -32 101 -45 37 -31 82 -49 94 -37 5 5 4 37 -3 77 -16 96 -7 247
20 308 12 27 21 62 21 78 0 43 25 95 51 110 12 6 40 12 61 13 47 1 78 -32 103
-112 17 -52 35 -61 35 -17 0 45 10 56 44 49 29 -5 36 -1 67 38 20 24 38 51 42
61 12 31 35 30 76 -5 43 -35 50 -48 26 -48 -42 0 0 -45 80 -87 28 -14 66 -40
86 -57 84 -73 77 -70 107 -41 15 15 28 22 30 16 3 -10 -54 -121 -68 -131 -4
-3 -21 -30 -39 -61 -32 -58 -40 -92 -18 -84 6 3 18 -8 25 -24 11 -26 10 -34
-13 -76 -28 -53 -32 -85 -11 -85 7 0 36 15 64 33 35 22 52 41 56 61 8 37 -1
49 -30 42 -20 -5 -24 -1 -32 28 -8 28 -5 43 18 91 34 70 75 95 114 70 33 -22
57 -11 127 57 21 21 43 38 49 38 7 0 28 18 49 40 43 46 70 50 118 17 23 -15
31 -27 27 -39 -3 -10 -1 -18 4 -18 5 0 14 -11 20 -25 19 -41 55 -33 122 27 46
40 57 55 48 65 -6 7 -6 13 -2 13 5 0 15 13 22 30 8 18 21 30 32 30 10 0 20 5
22 11 2 7 34 12 80 13 78 1 84 6 55 43 -14 19 28 17 59 -3 38 -26 42 -7 5 28
-38 35 -48 58 -68 152 -13 61 -13 70 1 85 9 10 16 36 16 61 0 33 6 48 25 66
20 18 23 29 19 53 -6 30 0 41 74 115 12 13 22 27 22 32 1 13 36 54 47 54 38 0
82 -23 93 -50 7 -16 24 -33 38 -38 32 -11 82 -58 101 -94 20 -38 35 -41 67
-11 22 20 34 24 62 19 20 -3 38 -9 41 -13 3 -5 24 -7 46 -6 22 1 48 2 58 2 11
1 22 13 28 31 6 17 15 30 20 30 5 0 9 39 9 88 0 84 -1 88 -35 131 -19 24 -32
47 -30 52 5 8 2 16 -23 66 -7 13 -12 34 -12 49 0 23 -31 80 -51 94 -4 3 -10
21 -14 41 -6 32 -3 40 27 68 34 32 64 41 55 17 -8 -19 38 -49 63 -41 13 4 25
-1 37 -14 10 -12 21 -21 26 -21 5 0 53 -35 108 -79 55 -43 118 -84 140 -90 55
-16 260 -44 334 -45 136 -1 254 64 333 184 35 52 69 89 83 90 11 0 27 -50 44
-132 8 -42 19 -87 25 -100 12 -30 40 -169 40 -203 0 -14 6 -28 14 -31 10 -4
13 -30 11 -112 -1 -75 4 -122 15 -157 19 -59 18 -324 -1 -382 -10 -30 -15 -34
-37 -30 -34 7 -52 -1 -52 -23 0 -31 20 -34 21 -3 1 21 3 23 6 8 3 -11 9 -24
14 -29 14 -15 11 -24 -8 -29 -16 -4 -16 -5 1 -6 16 -1 18 -7 13 -38 -4 -20
-12 -40 -19 -44 -18 -11 -39 -89 -24 -89 7 0 27 -11 46 -25 40 -29 78 -32 87
-7 10 25 23 31 60 25 19 -3 33 -1 33 5 0 19 39 20 69 1 35 -21 35 -22 21 -50
-7 -13 -7 -19 0 -19 5 0 10 5 10 12 0 6 2 9 5 6 3 -2 -4 -22 -14 -44 -14 -29
-18 -52 -14 -87 6 -50 23 -47 23 4 0 57 60 67 103 18 22 -25 30 -29 42 -19 8
6 19 9 25 5 14 -9 13 -32 -2 -38 -9 -3 -7 -10 7 -26 18 -21 18 -24 4 -34 -20
-15 -13 -37 11 -37 26 0 34 -17 13 -28 -16 -9 -16 -13 0 -62 9 -29 17 -61 17
-72 0 -30 -24 -16 -31 18 l-7 29 -1 -32 c-1 -43 -25 -34 -52 19 -11 22 -25 37
-32 35 -7 -2 -21 3 -31 12 -14 12 -13 6 5 -19 30 -41 55 -113 45 -129 -4 -6
-24 -11 -44 -12 -51 0 -127 -39 -127 -64 0 -13 -9 -21 -30 -25 -16 -4 -40 -12
-53 -19 -19 -10 -38 -10 -90 -1 -63 11 -74 10 -187 -20 -66 -18 -151 -43 -190
-56 l-70 -23 80 -1 c44 0 121 7 170 15 50 8 118 15 153 16 57 2 65 0 93 -27
62 -58 99 -174 99 -305 0 -75 1 -80 19 -74 15 4 25 -4 45 -37 14 -24 26 -36
26 -28 0 10 4 9 13 -6 6 -11 22 -36 34 -54 23 -35 22 -77 -1 -92 -12 -8 35
-55 61 -60 12 -2 19 -14 21 -36 2 -20 9 -32 18 -32 8 0 14 -10 14 -25 0 -18 5
-25 19 -25 22 0 71 -54 71 -78 0 -12 7 -9 23 12 14 17 29 26 35 22 7 -4 12 -1
12 7 0 18 73 34 78 18 2 -6 10 -11 18 -11 8 0 14 -4 14 -10 0 -5 17 -10 38
-10 21 0 47 -7 58 -15 33 -26 105 -55 136 -55 35 0 88 -26 88 -43 0 -14 -35
-47 -49 -47 -5 0 -7 -9 -4 -20 4 -14 -2 -23 -21 -31 -28 -13 -33 -24 -15 -34
18 -12 -22 -45 -53 -45 -20 0 -31 -6 -35 -18 -4 -16 -13 -18 -64 -15 -32 2
-68 7 -80 11 -11 5 -44 5 -72 1 -60 -8 -67 -5 -67 22 0 21 -6 22 -90 10 -31
-5 -68 -4 -85 1 -16 6 -46 9 -66 9 -19 -1 -46 3 -60 8 -17 7 -19 10 -6 10 20
1 23 31 3 31 -8 0 -21 -7 -30 -15 -22 -23 -75 -19 -95 7 -16 20 -26 21 -137
20 -74 0 -120 -5 -122 -11 -2 -6 -22 -11 -45 -11 -23 -1 -61 -5 -85 -9 -35 -7
-42 -6 -38 5 7 19 -8 18 -24 -1 -7 -8 -18 -15 -24 -15 -7 0 -35 -11 -62 -24
-55 -26 -148 -56 -176 -56 -25 0 -65 68 -73 126 -4 27 -17 69 -28 94 -11 25
-30 86 -43 137 -12 51 -31 101 -42 113 -10 11 -23 46 -29 77 -14 72 -29 113
-43 113 -15 0 -12 -30 11 -90 11 -30 24 -75 28 -100 5 -25 18 -81 29 -125 11
-44 25 -152 32 -240 7 -88 18 -198 26 -245 33 -209 56 -332 79 -426 36 -145
53 -241 45 -254 -8 -12 -35 -8 -120 20 -88 29 -237 68 -345 90 -396 80 -465
92 -540 92 -82 0 -105 8 -146 49 -18 18 -28 20 -70 14 -27 -4 -55 -3 -62 2 -7
5 -25 6 -42 2 -30 -7 -30 -7 -3 -8 14 0 28 -5 30 -10 6 -16 108 -62 216 -97
59 -20 116 -39 127 -44 37 -15 169 -58 250 -80 246 -70 464 -153 650 -248 167
-85 186 -95 264 -145 24 -15 46 -26 49 -23 3 3 12 -3 20 -15 8 -11 24 -25 36
-30 11 -5 55 -34 95 -64 41 -30 77 -53 79 -50 2 2 -15 22 -37 44 -23 23 -39
41 -35 41 3 0 1 6 -5 14 -16 19 2 30 32 20 54 -16 166 -76 212 -113 28 -22 97
-73 155 -112 110 -76 124 -88 248 -210 97 -96 152 -155 152 -164 0 -3 11 -21
25 -39 24 -32 25 -35 14 -111 -6 -42 -15 -88 -20 -102 -11 -30 -3 -48 16 -33
10 8 14 7 18 -2 6 -17 36 0 51 28 6 10 12 21 13 23 7 11 71 -32 84 -56 21 -41
76 -93 98 -93 11 0 32 -14 48 -31 53 -57 63 -69 63 -74 0 -3 23 -27 50 -53 30
-29 50 -57 50 -70 0 -12 5 -22 10 -22 6 0 10 -7 10 -16 0 -8 5 -12 10 -9 6 3
10 2 10 -4 0 -5 -4 -13 -10 -16 -5 -3 -10 -13 -10 -21 0 -12 84 -14 600 -14
l600 0 0 3400 c0 2022 -4 3400 -9 3400 -5 0 -7 -18 -4 -40 4 -26 2 -40 -6 -40
-6 0 -11 -17 -11 -40 0 -45 -7 -49 -38 -20 l-22 21 0 -26 c0 -17 -7 -28 -21
-33 -17 -7 -21 -18 -25 -78 -2 -38 -4 -86 -4 -106 0 -24 -5 -38 -13 -38 -15 0
-86 57 -107 85 -14 20 -49 54 -113 110 -18 17 -39 40 -46 52 -7 14 -17 20 -26
17 -11 -5 -15 1 -15 19 0 13 -7 31 -17 38 -9 8 -25 33 -35 57 -10 23 -23 42
-28 42 -6 0 -10 6 -10 14 0 20 -58 128 -78 146 -26 23 -56 94 -68 163 -3 20
-10 39 -14 42 -5 3 -6 14 -3 25 4 13 0 20 -10 20 -23 0 -39 132 -17 145 6 4 7
11 4 17 -4 7 -9 6 -14 -2 -5 -8 -15 -10 -26 -5 -11 5 -22 8 -26 7 -7 -2 -43
41 -52 61 -3 9 -7 8 -15 -2 -8 -12 -11 -10 -16 12 -9 33 9 57 41 57 23 0 24 3
18 43 -4 23 -13 47 -20 53 -18 14 -18 25 -1 18 17 -6 41 21 32 36 -4 6 -23 10
-44 8 -34 -3 -36 -1 -39 28 -4 39 19 47 93 33 28 -5 75 -13 105 -18 97 -16
153 -33 264 -83 92 -40 173 -85 196 -108 3 -3 21 -14 41 -25 46 -26 99 -71 99
-84 0 -6 5 -11 10 -11 6 0 25 -20 42 -45 37 -53 48 -56 48 -15 0 19 -5 30 -14
30 -7 0 -20 10 -29 23 -8 12 -41 43 -73 67 -33 24 -64 50 -70 57 -18 21 -76
60 -120 82 -23 11 -56 32 -72 46 -28 24 -31 31 -36 113 -6 82 -32 207 -61 298
-8 24 -12 65 -9 98 3 38 1 55 -6 51 -12 -8 -13 -7 -38 135 -12 63 -26 140 -32
170 -6 30 -13 75 -15 100 -3 25 -9 86 -15 135 -5 50 -14 133 -21 185 -14 106
-8 150 22 157 19 5 37 48 25 60 -3 4 -6 -1 -6 -10 0 -10 -7 -17 -15 -17 -26 0
-17 35 15 58 16 13 30 29 30 36 0 8 12 22 28 31 26 18 78 67 74 73 -8 10 1 23
13 18 8 -3 14 -2 14 2 -3 20 2 32 11 27 15 -9 40 13 34 29 -3 8 5 16 20 20 17
4 26 13 26 26 0 17 7 20 40 20 59 0 55 4 59 -62 1 -22 21 -24 21 -3 0 25 17
17 24 -11 8 -32 11 -29 20 15 6 32 5 33 -22 27 -15 -4 -22 -3 -16 1 6 4 13 15
16 23 3 10 15 14 40 12 23 -2 41 3 52 14 16 16 18 15 22 -4 4 -13 16 -22 35
-24 l29 -5 0 75 c0 67 -2 73 -17 67 -10 -4 -27 -9 -38 -12 -72 -16 -105 -27
-105 -34 0 -5 -12 -9 -26 -9 -31 0 -65 -17 -82 -42 -10 -14 -17 -16 -33 -8
-10 6 -19 19 -19 29 0 15 10 21 39 26 22 3 47 13 58 21 16 12 16 15 3 24 -11
7 -4 10 28 10 28 0 45 5 48 14 6 16 55 36 90 36 14 0 25 8 29 20 3 11 11 20
16 20 13 0 12 187 -1 195 -7 5 -8 11 -1 19 5 6 9 75 9 155 l0 143 -25 -7 c-23
-5 -53 13 -53 33 0 5 -15 32 -33 58 -18 27 -36 57 -40 68 -9 22 -20 20 -132
-22 -44 -17 -105 -40 -135 -51 -30 -12 -60 -19 -67 -17 -7 3 -19 -2 -28 -10
-30 -30 -17 30 15 66 32 38 37 51 18 48 -22 -5 -17 41 6 48 11 3 29 13 38 21
10 9 23 13 31 10 7 -2 21 1 31 9 11 7 23 11 28 8 4 -3 22 4 38 16 25 18 34 19
45 10 8 -7 15 -10 15 -8 0 13 -32 67 -50 83 -24 22 -26 35 -5 35 16 0 21 35 6
44 -5 3 -12 22 -16 42 -6 33 -7 35 -20 18 -22 -30 -34 -6 -26 54 l8 53 -28 -6
c-25 -6 -29 -3 -35 22 -4 15 -11 34 -17 41 -6 8 -6 12 1 12 5 0 13 -8 16 -17
5 -12 9 -14 14 -6 10 16 62 28 62 14 0 -6 -7 -14 -15 -17 -22 -9 -18 -21 8
-28 14 -3 39 2 62 14 22 11 48 20 58 20 15 0 18 5 13 25 -5 21 -2 27 18 35 27
10 71 49 59 51 -71 10 -154 -11 -191 -47 -7 -8 -22 -14 -32 -14 -11 0 -23 -7
-28 -16 -8 -15 -10 -15 -15 0 -9 24 0 39 36 57 21 10 34 25 38 45 4 16 9 36
11 44 3 8 3 12 1 8 -3 -5 -15 -8 -27 -8 -33 0 -28 42 5 51 14 3 33 11 44 17
69 37 234 95 252 88 41 -16 43 -1 43 374 l0 358 -36 -8 c-21 -5 -40 -12 -43
-17 -7 -11 -242 -89 -294 -99 -34 -6 -38 -4 -35 11 3 17 83 53 286 130 109 41
80 41 -39 0 -199 -69 -218 -74 -224 -64 -4 5 -11 6 -17 3 -6 -4 -9 -1 -6 7 2
8 27 25 55 39 29 14 55 28 58 32 11 11 -44 108 -63 109 -10 0 -12 3 -4 6 6 2
12 11 12 19 0 9 35 31 88 55 48 22 95 44 104 49 28 15 37 12 31 -11 -4 -16 -2
-20 8 -17 8 3 13 14 12 26 -2 16 9 25 52 42 l55 22 0 114 c0 75 -4 114 -11
114 -15 0 -142 -51 -153 -61 -15 -13 -46 -11 -46 4 0 6 7 20 14 30 12 16 11
57 -1 57 -2 0 -24 -12 -49 -26 -34 -20 -44 -32 -44 -51 0 -26 7 -27 53 -8 12
5 17 2 17 -9 0 -9 -2 -16 -4 -16 -2 0 -41 -13 -87 -30 -46 -16 -85 -28 -86
-26 -2 2 18 14 44 26 26 13 49 24 51 26 2 1 -1 18 -6 38 -9 33 -8 38 19 60 59
50 228 156 258 162 31 6 31 7 31 70 l0 64 -1055 0 c-580 0 -1055 -2 -1055 -5
0 -3 10 -19 21 -34 12 -16 18 -34 15 -40 -4 -6 -4 -17 1 -23 4 -7 9 -22 10
-33 2 -10 7 -22 11 -25 13 -9 32 -60 32 -86 0 -14 6 -37 14 -52 7 -15 19 -52
25 -82 6 -30 20 -73 31 -95 16 -35 41 -105 55 -155 2 -8 13 -44 24 -79 12 -36
24 -82 27 -103 4 -21 11 -41 15 -44 5 -3 9 -16 9 -29 0 -13 13 -64 30 -113 16
-50 30 -101 30 -114 0 -13 5 -29 11 -35 6 -6 13 -37 16 -69 3 -33 8 -61 12
-64 13 -10 46 -144 58 -240 3 -24 11 -53 18 -65 8 -11 19 -49 26 -85 6 -36 18
-79 25 -97 8 -17 12 -38 9 -45 -3 -8 -7 -32 -9 -54 -2 -21 -7 -72 -11 -113 -5
-47 -5 -72 2 -68 10 6 63 -45 63 -62 0 -6 5 -11 11 -11 5 0 7 -6 3 -12 -6 -9
-3 -9 9 0 25 21 33 8 35 -57 2 -58 1 -60 -29 -73 -17 -7 -63 -29 -103 -48
l-71 -35 1 -70 0 -70 36 3 c31 3 37 0 48 -27 7 -17 13 -31 14 -31 1 0 18 8 38
19 34 17 36 20 23 37 -28 37 -19 60 34 83 28 11 60 22 73 24 20 2 23 -3 26
-40 2 -24 7 -43 11 -43 4 0 29 7 55 16 40 14 50 14 57 3 4 -7 3 -19 -2 -25
-15 -18 -16 -150 -2 -165 9 -9 19 -7 46 10 19 11 51 21 71 21 29 0 36 4 36 20
0 20 16 26 36 12 6 -4 13 -31 16 -61 4 -44 2 -56 -13 -69 -11 -9 -19 -20 -19
-24 0 -18 -55 -68 -74 -68 -44 0 -53 16 -56 103 -1 10 -6 17 -13 14 -7 -2 -12
-26 -12 -62 0 -54 -2 -60 -25 -66 -14 -4 -19 -7 -11 -8 8 -1 11 -7 6 -18 -11
-27 -15 -66 -7 -78 4 -5 7 -14 8 -20 0 -5 2 -16 2 -22 1 -7 11 -13 22 -13 16
0 20 7 20 33 0 69 24 55 70 -39 l31 -65 24 25 c13 14 31 26 40 26 36 0 72 32
73 63 0 20 -2 26 -7 18 -6 -9 -10 -6 -14 11 -11 38 -8 58 8 58 11 0 15 11 15
37 0 118 31 -127 36 -280 2 -61 8 -111 18 -130 8 -18 16 -60 17 -94 3 -71 -8
-90 -66 -113 -19 -8 -35 -17 -35 -22 0 -4 -6 -8 -12 -8 -7 0 -56 -16 -108 -36
-188 -72 -226 -85 -270 -93 -25 -5 -51 -10 -59 -12 -8 -2 -17 5 -20 18 -7 25
-33 58 -50 64 -5 2 -12 19 -13 38 -2 24 2 36 16 45 37 21 65 49 60 58 -3 5 2
20 11 34 14 21 16 39 10 98 -8 81 -31 138 -47 115 -7 -10 -8 -8 -3 9 9 31 -2
60 -26 67 -14 5 -18 12 -14 26 5 14 2 17 -8 13 -10 -3 -18 2 -22 15 -4 12 -15
21 -27 21 -18 0 -19 -4 -14 -32 8 -38 7 -100 0 -107 -11 -11 -22 24 -17 51 6
32 -12 39 -22 9 -13 -42 -65 -51 -65 -11 0 10 -7 23 -15 30 -8 7 -15 16 -15
21 0 4 -18 27 -40 49 -50 51 -60 84 -30 100 18 10 26 8 45 -10 13 -13 25 -32
27 -43 2 -11 8 -22 14 -24 10 -3 20 29 26 90 1 9 10 17 19 17 22 0 33 45 23
97 -9 47 -17 53 -76 53 -41 0 -49 4 -63 28 l-15 27 6 -30 c3 -16 8 -38 10 -47
3 -10 0 -26 -6 -37 -7 -15 -7 -26 1 -39 9 -15 6 -24 -19 -51 l-30 -34 -66 68
c-36 38 -66 72 -66 77 0 12 -59 83 -117 143 -44 45 -51 63 -32 82 8 8 8 13 0
17 -6 4 -11 0 -11 -10 0 -12 -31 14 -87 72 -225 232 -239 246 -307 299 -27 21
-85 62 -130 91 -44 29 -109 74 -143 99 -34 25 -79 53 -100 62 -21 9 -71 31
-110 50 -74 35 -99 36 -90 2 4 -15 0 -19 -20 -19 -14 0 -37 7 -51 15 -15 8
-55 22 -89 32 -35 10 -63 23 -63 30 0 17 32 16 75 -1 19 -8 35 -11 35 -6 0 12
-76 45 -125 54 -22 4 -44 11 -50 16 -11 9 -47 13 -85 10 -19 -1 -14 -5 20 -14
25 -7 54 -18 65 -24 11 -6 28 -13 38 -16 9 -3 17 -10 17 -16 0 -11 -78 -7
-122 6 -27 8 -21 -11 7 -26 33 -17 19 -25 -58 -34 -33 -3 -65 -13 -74 -21 -13
-14 -93 -21 -177 -15 -16 1 -31 -3 -35 -8 -10 -16 -61 -3 -54 14 3 9 -2 14
-15 14 -15 0 -19 -5 -15 -20 4 -16 0 -20 -17 -20 -22 0 -80 29 -80 40 0 3 -19
6 -42 7 -61 1 -139 11 -146 18 -16 15 18 24 66 16 54 -8 63 -3 37 23 -8 8 -15
22 -15 31 0 9 -7 15 -17 13 -10 -2 -19 4 -21 15 -3 13 3 17 25 17 37 0 55 -13
47 -33 -4 -11 -1 -17 9 -17 20 0 31 17 16 25 -5 4 -8 13 -5 20 7 18 -94 31
-132 17 -15 -6 -47 -13 -70 -15 -28 -4 -49 -12 -58 -25 -7 -11 -24 -22 -38
-26 -13 -3 -26 -15 -29 -26 -4 -15 -13 -20 -39 -20 -19 0 -39 -5 -46 -12 -16
-16 -16 5 -1 34 13 25 5 35 -16 18 -13 -11 -18 -11 -28 -1 -9 10 -7 16 11 28
12 9 22 21 22 27 0 6 -5 4 -11 -4 -9 -12 -10 -10 -6 8 3 13 -2 36 -11 52 -13
22 -14 32 -5 41 10 10 171 62 288 94 28 7 167 45 310 85 143 40 277 77 298 82
20 6 37 16 36 22 -2 26 -36 111 -45 109 -5 -1 -38 -8 -74 -17 -36 -8 -110 -24
-165 -36 -55 -12 -126 -30 -158 -41 -31 -10 -71 -19 -88 -19 -17 0 -39 -4 -49
-10 -10 -5 -55 -16 -101 -25 -150 -27 -303 -65 -311 -78 -4 -6 -5 -19 -1 -27
3 -8 6 -25 6 -37 -1 -31 9 -30 178 17 79 22 263 69 409 105 146 36 279 70 296
75 39 13 71 13 59 1 -6 -5 -55 -21 -110 -36 -245 -66 -317 -87 -460 -130 -66
-20 -160 -47 -210 -59 -120 -31 -125 -34 -125 -62 0 -13 -3 -23 -7 -23 -21 3
-22 -3 -3 -23 24 -26 27 -68 5 -68 -8 0 -23 17 -32 37 -10 20 -32 43 -49 52
-37 19 -54 51 -54 103 0 25 -7 47 -20 60 -11 12 -20 30 -20 40 0 9 -9 34 -21
55 -20 35 -20 39 -5 70 9 19 16 40 16 48 0 7 4 15 9 17 5 2 3 8 -4 15 -10 9
-12 6 -12 -13 0 -14 -3 -28 -6 -31 -8 -8 -77 45 -77 59 0 6 -8 4 -19 -6 -17
-16 -19 -15 -30 12 -7 16 -11 35 -9 42 2 7 -3 15 -9 17 -8 3 -13 -3 -13 -14 0
-11 -5 -24 -12 -31 -8 -8 -8 -15 2 -27 10 -12 8 -18 -11 -35 -33 -27 -59 -26
-59 3 0 13 5 28 11 34 8 8 7 17 -5 34 -16 23 -16 23 -16 -19 0 -36 -3 -42 -21
-42 -19 0 -21 -4 -16 -36 5 -30 2 -40 -20 -62 l-26 -26 -18 22 c-12 15 -27 22
-51 21 -18 -1 -25 -3 -15 -6 12 -3 17 -15 17 -39 0 -42 -18 -44 -33 -4 -8 22
-18 30 -35 30 -22 0 -23 -3 -17 -40 8 -50 -2 -100 -21 -100 -14 0 -16 11 -18
113 -1 42 1 47 21 47 16 0 23 6 23 19 0 14 -6 17 -24 14 -30 -6 -40 9 -20 33
11 14 17 15 20 7 10 -23 24 -13 24 16 0 23 6 30 25 35 35 9 21 28 -18 24 -24
-2 -32 1 -35 16 -2 11 4 26 14 33 10 7 16 14 13 15 -37 23 -47 26 -58 15 -6
-6 -11 -18 -11 -27 0 -12 -9 -14 -45 -12 -28 3 -45 9 -45 17 0 7 -10 15 -23
19 -20 5 -22 10 -19 47 3 23 0 44 -4 48 -14 10 -34 49 -34 66 0 8 -5 15 -11
15 -14 0 -69 56 -69 70 0 12 -5 11 -62 -7 -10 -3 -18 0 -18 6 0 6 7 11 15 11
16 0 19 9 9 34 -7 19 -24 21 -24 3 0 -7 -9 -18 -20 -25 -16 -10 -24 -10 -40 0
-11 7 -20 16 -20 19 0 4 -9 9 -20 12 -11 3 -20 12 -20 21 0 9 -8 16 -20 16
-17 0 -20 7 -20 40 0 38 -2 40 -30 40 -28 0 -30 2 -30 40 0 34 -4 40 -26 46
-14 4 -41 4 -60 1 -20 -3 -47 -1 -61 6 -21 9 -27 9 -31 -1 -2 -6 -12 -12 -22
-12 -17 0 -31 38 -34 90 -1 10 -14 16 -45 18 -25 2 -54 10 -65 18 -28 20 -45
18 -68 -8 -16 -19 -19 -20 -14 -5 3 10 6 32 6 48 0 27 1 28 25 17 35 -16 53 1
37 36 -10 23 -9 25 15 28 l27 3 -32 30 c-21 20 -30 36 -26 47 3 11 0 18 -8 18
-8 0 -26 25 -42 55 -24 49 -30 54 -52 49 -14 -4 -24 -2 -24 5 0 6 -19 11 -44
11 -25 0 -48 5 -51 10 -3 6 -1 10 4 10 6 0 11 7 11 16 0 10 7 14 20 12 23 -4
25 0 16 30 -8 25 -36 30 -36 7 0 -11 -11 -15 -40 -15 -29 0 -40 4 -40 15 0 10
-11 15 -35 15 -34 0 -35 -1 -35 -40 0 -28 4 -40 14 -40 8 0 17 -7 20 -16 4 -9
13 -14 21 -10 10 3 15 -1 15 -13 0 -11 9 -21 23 -25 l22 -5 -21 -22 c-24 -24
-44 -18 -44 12 0 15 -5 19 -19 14 -32 -10 -50 28 -44 91 l6 54 -91 0 c-76 0
-91 -3 -97 -17 -6 -17 -7 -17 -16 0 -9 16 -38 17 -379 17 l-370 0 9 -22z m449
-27 c11 -7 10 -10 -3 -15 -19 -7 -35 0 -35 15 0 11 20 12 38 0z m32 -61 c0 -5
-4 -10 -10 -10 -5 0 -10 5 -10 10 0 6 5 10 10 10 6 0 10 -4 10 -10z m40 -86
c0 -18 -13 -24 -29 -14 -9 5 -11 17 -7 36 7 28 8 28 22 10 8 -11 14 -25 14
-32z m5150 36 c0 -5 -2 -10 -4 -10 -3 0 -8 5 -11 10 -3 6 -1 10 4 10 6 0 11
-4 11 -10z m-4508 -25 c-5 -28 -17 -33 -26 -9 -10 26 -7 34 13 34 14 0 17 -6
13 -25z m-42 -31 c0 -15 6 -24 15 -24 18 0 18 -4 3 -46 -6 -18 -19 -34 -27
-37 -13 -3 -15 4 -12 40 2 30 -1 43 -10 43 -10 0 -10 3 -1 12 7 7 12 20 12 31
0 10 5 15 10 12 6 -3 10 -17 10 -31z m126 -129 c10 -40 -33 -94 -51 -65 -3 6
-15 10 -25 10 -17 0 -50 34 -50 52 0 13 35 9 49 -4 10 -11 16 -9 29 9 22 29
40 29 48 -2z m5674 -44 c0 -24 -15 -35 -36 -27 -12 4 -13 10 -4 26 14 26 40
26 40 1z m-683 -38 c6 -18 -37 -37 -50 -24 -8 8 -5 15 9 26 21 16 36 15 41 -2z
m43 2 c0 -8 -4 -15 -10 -15 -5 0 -10 7 -10 15 0 8 5 15 10 15 6 0 10 -7 10
-15z m511 -11 c10 -13 10 -20 0 -36 -9 -15 -9 -23 -1 -33 18 -22 2 -55 -26
-55 -26 0 -33 27 -13 47 8 8 5 14 -10 22 -26 14 -27 39 -3 57 23 18 37 17 53
-2z m-636 -35 c-4 -5 -13 -9 -22 -9 -13 0 -13 3 -3 15 13 15 35 11 25 -6z
m-342 -146 c21 -82 28 -125 18 -119 -5 3 -12 23 -16 43 -3 21 -13 57 -21 81
-16 49 -18 65 -5 58 4 -3 15 -31 24 -63z m-4173 47 c0 -5 -9 -10 -20 -10 -11
0 -20 5 -20 10 0 6 9 10 20 10 11 0 20 -4 20 -10z m5040 -10 c0 -19 -20 -27
-33 -13 -8 7 11 33 24 33 5 0 9 -9 9 -20z m-5036 -56 c3 -9 6 -28 6 -42 0 -59
10 -72 51 -72 22 0 39 -4 39 -10 0 -5 -15 -10 -34 -10 -19 0 -41 -3 -50 -6
-11 -4 -16 0 -16 14 0 11 -8 23 -17 26 -25 8 -26 116 -2 116 9 0 20 -7 23 -16z
m-64 -44 c0 -33 -3 -40 -20 -40 -17 0 -20 7 -20 40 0 33 3 40 20 40 17 0 20
-7 20 -40z m5120 -49 c0 -5 -7 -12 -16 -15 -14 -5 -15 -4 -4 9 14 17 20 19 20
6z m145 -7 c-22 -17 -46 -15 -53 4 -2 8 8 12 35 12 36 -1 37 -1 18 -16z m-411
-60 c9 -3 16 -12 16 -20 0 -18 -44 -18 -59 -1 -18 23 7 35 43 21z m-4654 -14
c0 -5 -2 -10 -4 -10 -3 0 -8 5 -11 10 -3 6 -1 10 4 10 6 0 11 -4 11 -10z m148
-56 c20 -5 23 -8 10 -11 -13 -3 -18 -15 -18 -44 0 -29 -4 -39 -16 -39 -10 0
-14 6 -11 14 3 8 -1 20 -9 27 -8 7 -13 18 -10 25 3 7 -3 14 -12 16 -14 3 -13
7 8 28 21 21 25 22 28 8 2 -9 15 -20 30 -24z m-108 16 c0 -5 -2 -10 -4 -10 -3
0 -8 5 -11 10 -3 6 -1 10 4 10 6 0 11 -4 11 -10z m5050 -16 c8 -9 -44 -44 -64
-44 -11 0 -35 5 -53 12 -27 10 -38 10 -54 0 -21 -14 -72 -6 -66 11 4 14 33 20
89 19 26 -1 57 3 70 8 21 8 66 5 78 -6z m-5116 -3 c3 -5 -1 -11 -9 -14 -9 -4
-12 -1 -8 9 6 16 10 17 17 5z m226 -107 c0 -14 -3 -14 -15 -4 -8 7 -15 14 -15
16 0 2 7 4 15 4 8 0 15 -7 15 -16z m77 -46 c-2 -13 -4 -3 -4 22 0 25 2 35 4
23 2 -13 2 -33 0 -45z m201 -140 c-7 -19 -38 -22 -38 -4 0 10 9 16 21 16 12 0
19 -5 17 -12z m-118 -28 c0 -5 6 -10 14 -10 14 0 29 -95 19 -114 -9 -14 -55
44 -49 60 4 10 -5 21 -23 32 -26 15 -27 18 -13 29 20 15 52 17 52 3z m3950
-49 c0 -5 -7 -12 -16 -15 -22 -9 -24 -8 -24 9 0 8 9 15 20 15 11 0 20 -4 20
-9z m-3375 -31 c3 -5 1 -10 -4 -10 -6 0 -11 5 -11 10 0 6 2 10 4 10 3 0 8 -4
11 -10z m-1 -235 c3 -8 1 -15 -4 -15 -6 0 -10 7 -10 15 0 8 2 15 4 15 2 0 6
-7 10 -15z m-131 -36 c-6 -21 -29 -36 -39 -26 -12 11 8 47 26 47 13 0 17 -5
13 -21z m322 -119 c0 -7 -6 -15 -12 -17 -8 -3 -13 4 -13 17 0 13 5 20 13 18 6
-3 12 -11 12 -18z m-257 -88 c2 -7 -3 -12 -12 -12 -9 0 -16 7 -16 16 0 17 22
14 28 -4z m4472 13 c0 -2 -9 -9 -20 -15 -16 -9 -18 -8 -14 5 5 13 34 22 34 10z
m-4079 -62 c10 -3 19 -14 19 -25 0 -15 -5 -18 -19 -13 -21 6 -33 -7 -35 -38
-1 -19 -8 -23 -51 -29 -18 -3 -20 3 -22 47 -1 28 -2 55 -3 60 -6 26 3 34 43
37 34 2 43 0 45 -16 2 -10 12 -21 23 -23z m3189 11 c0 -8 -4 -12 -10 -9 -5 3
-10 10 -10 16 0 5 5 9 10 9 6 0 10 -7 10 -16z m870 -31 c0 -23 -2 -24 -17 -12
-9 8 -14 9 -10 3 4 -7 0 -17 -8 -24 -19 -16 -19 -11 0 34 17 40 35 40 35 -1z
m-4490 -64 c0 -5 -4 -9 -10 -9 -5 0 -10 7 -10 16 0 8 5 12 10 9 6 -3 10 -10
10 -16z m1300 -5 c24 -8 -8 -23 -55 -25 -39 -2 -39 -2 -6 -6 l34 -4 -36 -25
c-32 -22 -43 -23 -119 -19 -63 3 -84 8 -86 19 -3 16 -36 31 -49 23 -5 -2 -16
4 -26 13 -18 18 -17 19 35 27 55 9 282 7 308 -3z m85 -14 c7 -12 -2 -12 -30 0
-19 8 -19 9 2 9 12 1 25 -3 28 -9z m-1188 -16 c-3 -3 -12 -4 -19 -1 -8 3 -5 6
6 6 11 1 17 -2 13 -5z m98 -14 c-3 -5 -10 -10 -16 -10 -5 0 -9 5 -9 10 0 6 7
10 16 10 8 0 12 -4 9 -10z m-270 -10 c3 -5 1 -10 -4 -10 -6 0 -11 5 -11 10 0
6 2 10 4 10 3 0 8 -4 11 -10z m955 -10 c0 -5 -4 -10 -10 -10 -5 0 -10 5 -10
10 0 6 5 10 10 10 6 0 10 -4 10 -10z m-910 -10 c0 -5 -4 -10 -9 -10 -6 0 -13
5 -16 10 -3 6 1 10 9 10 9 0 16 -4 16 -10z m1086 -43 c4 -4 -25 -7 -64 -7 -40
0 -72 4 -72 9 0 5 5 11 11 13 16 5 117 -7 125 -15z m2388 -30 c69 -126 87
-149 113 -142 23 5 24 4 18 -27 -4 -18 -8 -34 -9 -35 -6 -7 -56 24 -56 34 0 7
-15 34 -34 60 -42 60 -87 149 -79 157 12 12 18 6 47 -47z m-3557 37 c-3 -3
-12 -4 -19 -1 -8 3 -5 6 6 6 11 1 17 -2 13 -5z m1393 -14 c0 -5 -4 -10 -9 -10
-6 0 -13 5 -16 10 -3 6 1 10 9 10 9 0 16 -4 16 -10z m3052 -165 c-4 -22 -1
-25 27 -25 22 0 31 -5 31 -16 0 -10 6 -14 15 -10 8 3 15 1 15 -4 0 -13 -77
-13 -85 0 -4 6 -10 8 -15 5 -14 -9 -22 14 -15 45 8 37 34 41 27 5z m-80 -40
c0 -5 -5 -11 -11 -13 -6 -2 -11 4 -11 13 0 9 5 15 11 13 6 -2 11 -8 11 -13z
m-3399 -66 c75 -27 23 -28 -130 -3 -18 3 -33 8 -33 12 0 12 124 5 163 -9z
m2757 -102 c0 -18 -2 -19 -10 -7 -6 10 -10 11 -10 3 0 -19 -27 -16 -34 3 -3 9
-6 32 -6 52 l1 37 29 -33 c17 -18 30 -42 30 -55z m-2835 33 c3 -5 -3 -10 -14
-10 -12 0 -21 5 -21 10 0 6 6 10 14 10 8 0 18 -4 21 -10z m65 0 c0 -5 -2 -10
-4 -10 -3 0 -8 5 -11 10 -3 6 -1 10 4 10 6 0 11 -4 11 -10z m2690 0 c0 -5 -4
-10 -10 -10 -5 0 -10 5 -10 10 0 6 5 10 10 10 6 0 10 -4 10 -10z m-4853 -12
c15 -6 35 -17 43 -24 15 -12 114 -44 134 -44 6 0 2 7 -8 15 -18 13 -18 15 -3
15 10 0 20 -7 23 -15 4 -8 12 -15 19 -15 7 0 20 -11 29 -25 9 -14 23 -25 31
-25 8 0 15 -4 15 -10 0 -14 -23 -13 -38 2 -9 9 -15 9 -23 1 -8 -8 -1 -14 25
-23 44 -14 66 -8 66 18 0 11 6 24 13 30 13 11 64 5 73 -9 3 -5 18 -9 33 -9 15
0 42 -11 61 -25 19 -14 39 -25 46 -25 15 0 21 -25 16 -62 -4 -24 -7 -26 -29
-17 -13 5 -31 16 -39 24 -9 8 -23 15 -32 15 -11 0 -13 3 -6 8 9 5 7 11 -4 21
-14 13 -15 9 -9 -37 3 -29 2 -52 -3 -52 -19 0 -40 13 -34 21 3 5 -13 9 -35 9
-23 0 -41 5 -41 10 0 6 -14 10 -31 10 -16 0 -28 4 -24 9 3 5 -21 15 -52 22
-32 7 -61 14 -65 15 -5 1 -15 2 -23 3 -10 1 -15 12 -15 32 l0 31 48 -6 c33 -5
43 -4 32 3 -26 18 -117 41 -135 35 -10 -4 -28 2 -45 15 -16 11 -32 21 -35 21
-13 0 -31 26 -27 38 5 15 14 15 49 0z m2308 -8 c3 -6 -5 -10 -19 -10 -14 0
-28 5 -31 10 -3 6 5 10 19 10 14 0 28 -4 31 -10z m-1025 -10 c0 -5 -7 -7 -15
-4 -8 4 -15 8 -15 10 0 2 7 4 15 4 8 0 15 -4 15 -10z m235 -10 c3 -11 12 -20
19 -20 27 0 44 -34 41 -85 -3 -65 -3 -65 -19 -65 -24 0 -29 20 -11 40 16 17
15 19 -6 22 -13 2 -29 14 -35 28 -39 82 -39 81 -24 90 22 14 28 12 35 -10z
m557 7 c26 -7 50 -16 54 -20 4 -4 14 -7 21 -7 15 0 43 -23 43 -36 0 -8 -98 0
-122 11 -11 4 -18 3 -18 -4 0 -5 18 -15 40 -21 38 -10 52 -24 30 -32 -5 -1 9
-4 33 -5 23 -1 56 -9 72 -18 l30 -16 -40 6 c-22 3 -62 8 -90 10 -27 2 -63 8
-80 14 -29 9 -29 9 -5 11 24 2 23 2 -8 16 -29 13 -31 17 -21 35 9 19 17 21 56
15 28 -4 42 -2 38 4 -3 6 -14 10 -23 10 -9 0 -39 9 -67 20 -44 17 -47 19 -20
19 17 0 51 -5 77 -12z m-2471 -32 c41 -8 88 -16 104 -17 19 -2 30 -9 30 -18 0
-25 -161 -25 -219 1 -46 20 -56 33 -33 42 21 9 42 8 118 -8z m234 5 c-3 -5
-15 -10 -25 -10 -10 0 -22 5 -25 10 -4 6 7 10 25 10 18 0 29 -4 25 -10z m2125
-40 c-8 -5 -24 -9 -35 -9 -16 1 -16 2 5 9 35 11 48 11 30 0z m2980 -16 c0 -8
-4 -12 -10 -9 -5 3 -10 10 -10 16 0 5 5 9 10 9 6 0 10 -7 10 -16z m-6026 0 c8
-3 12 -12 9 -20 -3 -8 -1 -14 5 -14 6 0 12 5 14 10 2 6 9 1 16 -11 13 -20 11
-20 -22 -18 -25 3 -42 -3 -61 -19 -33 -28 -41 -28 -49 4 -10 38 2 62 32 67 15
2 30 5 34 6 3 0 13 -2 22 -5z m2986 -14 c8 -5 11 -10 5 -10 -5 0 -17 5 -25 10
-8 5 -10 10 -5 10 6 0 17 -5 25 -10z m-2615 -10 c4 -6 -6 -10 -24 -10 -16 0
-33 5 -36 10 -4 6 6 10 24 10 16 0 33 -4 36 -10z m-535 -7 c0 -5 -26 -9 -58
-10 -40 -2 -52 0 -42 7 18 11 100 13 100 3z m6160 -50 c0 -24 -25 -9 -28 17
-3 21 -2 22 12 11 9 -7 16 -20 16 -28z m-4240 17 c0 -5 7 -10 15 -10 22 0 18
-27 -5 -40 -17 -9 -20 -7 -26 17 -4 16 -12 31 -18 35 -6 5 -1 8 12 8 12 0 22
-4 22 -10z m-1883 -46 c-3 -3 -12 -4 -19 -1 -8 3 -5 6 6 6 11 1 17 -2 13 -5z
m2813 -24 c0 -15 -7 -20 -25 -20 -41 0 -30 37 13 39 6 1 12 -8 12 -19z m635
-60 c4 -6 -5 -10 -19 -10 -14 0 -26 5 -26 10 0 6 9 10 19 10 11 0 23 -4 26
-10z m-1665 -35 c23 -14 46 -22 56 -18 14 5 15 3 4 -17 -12 -22 -13 -23 -26
-6 -18 25 -44 13 -44 -19 0 -25 -2 -26 -32 -20 -18 4 -38 12 -45 17 -7 5 -17
7 -22 4 -5 -4 -12 -2 -15 2 -7 12 39 36 53 28 16 -11 25 22 11 39 -20 25 14
19 60 -10z m1185 -1 c18 -23 24 -25 43 -15 23 12 94 0 119 -21 14 -11 67 -25
126 -33 22 -3 51 -11 65 -19 15 -7 52 -20 82 -30 41 -12 59 -24 72 -45 9 -17
40 -43 70 -60 29 -16 59 -35 66 -41 7 -7 19 -9 27 -6 7 2 25 -4 38 -14 14 -11
46 -29 71 -40 25 -10 69 -37 98 -59 29 -21 77 -51 106 -65 41 -21 51 -30 43
-40 -12 -14 26 -34 104 -55 40 -10 85 -42 133 -93 14 -16 31 -28 37 -28 14 0
115 -168 115 -193 0 -10 -11 -22 -24 -27 -13 -5 -27 -14 -31 -19 -3 -6 -21
-11 -38 -11 -43 0 -107 -19 -124 -36 -8 -8 -20 -14 -28 -14 -7 0 -26 -7 -41
-15 -16 -8 -38 -15 -49 -16 -11 0 -45 -13 -75 -29 -30 -16 -73 -37 -95 -48
-22 -11 -51 -31 -64 -46 -14 -14 -33 -26 -44 -26 -11 0 -33 -16 -50 -35 -16
-19 -36 -35 -43 -35 -11 0 -10 -8 2 -42 16 -47 14 -54 -15 -38 -12 6 -21 7
-21 1 0 -5 7 -12 16 -15 13 -5 15 -15 9 -59 -19 -130 0 -277 37 -289 17 -6 37
21 38 49 0 11 16 41 35 65 19 23 43 53 52 66 21 26 63 56 69 49 3 -3 -7 -25
-21 -50 -26 -48 -32 -77 -15 -77 6 0 10 7 10 15 0 18 12 19 29 3 10 -11 11
-10 7 2 -4 9 16 38 50 75 50 55 56 59 67 41 36 -55 49 -66 81 -66 17 0 37 5
43 11 13 13 22 14 169 25 110 8 138 -2 132 -47 -5 -33 15 -57 35 -42 21 16 92
35 117 31 24 -3 71 -60 110 -131 12 -21 29 -46 38 -56 28 -30 55 -85 43 -89
-7 -2 -8 -10 -2 -20 5 -9 14 -54 19 -98 6 -45 12 -86 13 -90 1 -5 -1 -25 -4
-44 -4 -19 -9 -56 -12 -82 -7 -68 -43 -140 -83 -168 -20 -14 -56 -45 -81 -70
-58 -57 -119 -90 -165 -90 -20 0 -36 -4 -36 -10 0 -5 -18 -10 -40 -10 -23 0
-40 -5 -40 -11 0 -7 9 -9 21 -6 12 3 22 0 26 -9 9 -25 62 -47 78 -34 18 15
173 20 200 7 13 -7 20 -6 23 2 2 6 17 11 34 11 28 0 30 -2 25 -29 -5 -24 -2
-31 13 -36 33 -10 55 3 81 48 l24 42 7 -45 c8 -57 -21 -183 -69 -294 -19 -45
-41 -97 -48 -116 -7 -19 -17 -33 -21 -30 -5 3 -11 -9 -15 -26 -3 -18 -15 -45
-26 -60 -11 -16 -23 -42 -27 -57 -4 -15 -18 -40 -32 -56 -13 -15 -35 -46 -47
-68 -34 -62 -87 -132 -139 -184 -27 -25 -48 -50 -48 -55 0 -5 -12 -22 -26 -39
-14 -16 -45 -55 -69 -85 -59 -77 -98 -117 -142 -147 -49 -33 -206 -101 -252
-109 -20 -3 -49 -10 -66 -15 -45 -13 -173 -30 -233 -30 -93 -1 -144 26 -255
131 -168 159 -317 307 -317 314 0 9 -40 64 -67 92 -13 13 -23 28 -23 34 0 12
-77 127 -90 135 -12 7 -93 115 -125 164 -14 23 -25 51 -25 65 0 13 -7 29 -15
36 -8 7 -15 26 -15 42 0 26 2 29 15 18 13 -11 15 -10 11 1 -3 8 -10 33 -16 56
-6 23 -16 48 -23 55 -25 27 -114 154 -125 181 -6 15 -21 64 -32 110 -12 45
-35 118 -52 162 -30 76 -32 89 -36 247 l-4 167 72 -3 c40 -2 77 -9 83 -15 20
-20 42 -11 62 27 14 25 35 45 70 62 28 14 52 28 55 32 3 4 19 7 35 7 39 -1
154 24 182 39 13 8 25 26 29 47 7 37 18 42 59 23 27 -12 32 -23 15 -33 -16
-10 -1 -25 24 -25 17 0 23 5 22 18 -1 13 5 16 27 14 31 -3 30 5 -5 44 -24 27
-11 36 31 24 25 -7 33 -6 38 6 9 23 -4 43 -42 61 -40 19 -43 28 -15 58 19 20
19 27 9 73 -16 75 -33 91 -124 114 -99 24 -221 30 -357 16 -56 -5 -123 -11
-148 -11 -44 -2 -80 -21 -80 -43 0 -6 -11 -17 -25 -24 -22 -12 -28 -12 -42 3
-14 13 -17 46 -19 204 -2 103 -10 234 -19 290 -8 57 -15 122 -15 146 0 49 43
193 65 216 8 9 28 31 45 49 16 18 30 40 30 50 0 9 17 35 38 58 20 23 44 54 52
70 8 16 23 36 33 46 9 10 17 24 17 31 0 22 48 108 53 95 3 -9 10 -6 22 10 9
12 22 22 30 22 8 0 19 9 25 19 10 19 9 19 -17 6 -35 -18 -38 -14 -16 21 21 34
73 45 73 16 0 -13 6 -11 25 10 20 22 31 26 55 21 19 -3 30 -1 30 6 0 20 24 12
45 -15z m-2695 -20 c0 -2 -9 -4 -21 -4 -11 0 -18 4 -14 10 5 8 35 3 35 -6z
m93 2 c11 -9 14 -17 8 -20 -14 -9 -91 12 -91 24 0 15 62 11 83 -4z m-266 -12
c-3 -3 -12 -4 -19 -1 -8 3 -5 6 6 6 11 1 17 -2 13 -5z m-97 -35 c0 -5 -7 -9
-15 -9 -15 0 -20 12 -9 23 8 8 24 -1 24 -14z m-120 2 c0 -5 -7 -11 -15 -15
-15 -5 -20 5 -8 17 9 10 23 9 23 -2z m6624 -34 c20 -53 21 -87 2 -87 -8 0 -21
-3 -29 -6 -12 -4 -13 1 -8 28 5 22 3 40 -7 56 -12 18 -12 25 -2 37 19 23 26
19 44 -28z m-4764 -16 c0 -17 -15 -19 -35 -5 -18 13 -18 14 8 14 15 0 27 -4
27 -9z m-313 -27 c-3 -3 -12 -4 -19 -1 -8 3 -5 6 6 6 11 1 17 -2 13 -5z m-800
-80 c-3 -3 -12 -4 -19 -1 -8 3 -5 6 6 6 11 1 17 -2 13 -5z m5623 -9 c0 -8 -4
-15 -10 -15 -5 0 -10 7 -10 15 0 8 5 15 10 15 6 0 10 -7 10 -15z m1030 -56 c0
-14 -42 -38 -56 -32 -19 7 -18 30 2 41 18 10 54 4 54 -9z m-5642 -47 c2 -7 -3
-12 -12 -12 -9 0 -16 7 -16 16 0 17 22 14 28 -4z m5045 -52 c3 -11 1 -18 -4
-14 -5 3 -9 12 -9 20 0 20 7 17 13 -6z m-1043 -54 c0 -19 -4 -22 -25 -18 -38
7 -32 42 7 42 12 0 18 -7 18 -24z m118 -18 c26 -26 9 -98 -23 -98 -11 0 -33
80 -27 99 5 15 35 14 50 -1z m1162 -58 c0 -5 -5 -10 -11 -10 -5 0 -7 5 -4 10
3 6 8 10 11 10 2 0 4 -4 4 -10z m-1235 -30 c3 -5 1 -10 -4 -10 -6 0 -11 5 -11
10 0 6 2 10 4 10 3 0 8 -4 11 -10z m1315 -70 c0 -13 -20 -13 -40 0 -12 8 -9
10 13 10 15 0 27 -4 27 -10z m-6627 -452 c-15 -16 -36 -39 -46 -50 -15 -15
-21 -17 -33 -7 -13 10 -12 15 8 37 30 32 79 62 90 55 5 -3 -3 -18 -19 -35z
m4090 -51 c20 -40 16 -92 -6 -84 -6 2 -18 -2 -25 -10 -8 -8 -38 -13 -78 -13
-36 0 -95 -4 -132 -10 -198 -28 -245 -31 -253 -18 -13 19 -12 21 29 47 132 85
198 109 327 118 44 3 82 7 85 9 12 13 37 -5 53 -39z m-4729 -44 c-9 -33 6 -50
23 -27 13 17 29 19 196 20 149 0 188 4 214 17 28 15 33 15 47 2 8 -8 20 -15
26 -15 6 0 13 -7 16 -15 4 -8 13 -15 21 -15 8 0 17 -8 20 -19 7 -26 70 -42
161 -41 42 1 83 1 90 1 6 -1 12 -12 12 -26 0 -23 4 -25 48 -25 26 -1 76 -8
112 -16 80 -19 218 -35 325 -36 77 -2 219 24 240 43 5 5 18 9 30 9 12 0 25 4
31 8 5 4 36 19 69 32 33 13 62 27 65 30 13 18 140 36 140 21 0 -6 5 -11 10
-11 6 0 10 6 10 14 0 16 27 29 41 20 5 -3 9 -14 9 -25 0 -10 5 -19 11 -19 15
0 49 -39 49 -56 0 -22 36 -35 65 -24 18 7 31 6 45 -3 27 -16 25 -43 -2 -52
-20 -6 -20 -8 -6 -12 10 -2 25 3 34 11 16 17 35 19 72 10 16 -5 22 -14 22 -34
0 -15 10 -39 21 -54 17 -22 20 -37 16 -71 -3 -31 0 -48 9 -56 8 -6 14 -19 14
-28 0 -9 5 -22 12 -29 25 -25 44 -242 25 -281 -9 -19 -9 -25 1 -28 20 -7 14
-71 -8 -93 -11 -11 -23 -34 -27 -50 -3 -17 -11 -30 -17 -30 -16 0 -53 -43 -58
-66 -4 -20 -82 -48 -148 -53 -29 -1 -68 -16 -110 -39 -36 -20 -68 -37 -71 -37
-3 0 -22 -14 -41 -31 -28 -25 -35 -37 -31 -58 3 -14 1 -26 -5 -26 -16 0 -32
-92 -32 -183 0 -64 8 -108 34 -197 18 -63 36 -133 40 -154 5 -23 26 -63 52
-98 26 -33 46 -71 49 -90 2 -18 11 -69 20 -113 21 -102 16 -152 -21 -199 -16
-20 -34 -36 -41 -36 -7 0 -16 -6 -20 -13 -4 -7 -39 -28 -78 -46 l-70 -33 -50
25 c-128 65 -308 99 -361 69 -17 -10 -15 -13 20 -27 32 -13 57 -15 131 -10 64
5 95 4 99 -4 4 -6 15 -11 26 -11 20 0 35 -26 19 -35 -5 -4 -33 -6 -62 -5 -79
3 -87 1 -87 -15 0 -18 -12 -19 -27 -4 -7 7 -17 8 -25 3 -7 -5 -36 -9 -65 -9
-34 0 -57 -6 -70 -18 -23 -20 -40 -22 -45 -5 -3 9 -9 8 -22 -5 -18 -18 -46
-23 -46 -8 0 13 -62 23 -74 11 -5 -5 -23 -10 -39 -10 -17 0 -36 -8 -43 -17
-11 -16 -13 -16 -14 -2 0 20 -60 14 -77 -9 -10 -12 -15 -12 -27 -3 -12 10 -17
8 -26 -9 -6 -11 -15 -18 -21 -15 -5 4 -9 1 -9 -6 0 -7 -3 -9 -6 -6 -8 8 23 59
43 70 7 4 20 22 29 40 10 18 42 64 74 102 81 101 97 126 102 163 4 32 3 33
-21 27 -14 -4 -45 -20 -69 -36 -23 -16 -47 -29 -52 -29 -5 0 -24 -18 -42 -41
-18 -22 -46 -55 -63 -74 -16 -19 -48 -54 -70 -79 -24 -29 -47 -46 -61 -46 -12
0 -32 -8 -45 -19 -21 -16 -22 -21 -9 -36 12 -14 12 -21 -2 -48 -46 -96 -57
-199 -28 -265 14 -32 14 -35 -7 -52 -13 -10 -23 -24 -23 -31 0 -20 -31 -49
-54 -50 -20 0 -20 -1 2 -9 44 -18 19 -40 -46 -40 -30 1 -34 2 -19 11 19 11 14
29 -9 29 -44 0 -95 -89 -73 -130 4 -8 11 -24 15 -35 6 -19 7 -18 13 5 4 14 14
25 23 25 9 0 20 4 24 8 12 12 45 8 60 -8 19 -19 47 -19 103 1 25 8 55 13 67
10 32 -8 145 47 167 81 4 7 13 13 20 13 6 0 28 17 50 38 l38 37 110 -2 109 -1
0 32 c0 17 -8 48 -18 68 -45 87 29 106 243 63 118 -24 256 -45 301 -45 24 0
55 -5 71 -11 27 -10 27 -11 8 -25 -13 -10 -44 -14 -95 -14 -106 1 -145 -10
-145 -40 0 -22 -6 -25 -47 -31 -41 -6 -205 -5 -233 1 -17 4 -39 0 -33 -6 14
-13 132 -34 166 -28 23 3 55 0 82 -10 63 -22 111 -21 117 2 3 12 23 24 56 35
71 21 137 31 137 20 0 -16 -47 -36 -69 -30 -25 6 -26 3 -6 -16 10 -10 28 -14
57 -11 24 3 53 2 66 -1 l23 -6 -30 -35 c-17 -19 -31 -40 -31 -46 0 -20 -72
-77 -137 -108 -34 -16 -64 -34 -68 -40 -3 -5 -17 -10 -30 -10 -18 0 -22 -4
-18 -19 3 -11 11 -17 18 -15 7 3 15 -2 18 -10 4 -9 16 -16 27 -16 11 0 20 -4
20 -9 0 -15 41 -20 61 -8 11 7 17 19 14 28 -5 14 1 17 29 17 32 0 79 7 119 19
12 3 16 11 12 24 -4 13 -2 19 9 19 9 0 16 -4 16 -9 0 -8 47 -26 61 -23 3 0 11
-14 17 -32 7 -18 23 -39 37 -46 14 -7 25 -22 25 -32 0 -10 6 -18 13 -18 8 0
12 -20 13 -65 1 -49 -2 -65 -12 -65 -12 0 -19 26 -15 52 1 10 -43 21 -66 16
-18 -3 -21 -21 -25 -158 -1 -19 -5 -38 -10 -41 -6 -4 -6 -20 0 -43 9 -31 8
-37 -9 -46 -10 -6 -19 -16 -19 -21 0 -15 -42 -59 -57 -59 -7 0 -16 8 -22 17
-8 14 -12 15 -25 4 -12 -10 -19 -11 -30 -2 -17 14 -39 -9 -30 -33 3 -9 1 -16
-5 -16 -7 0 -17 13 -22 29 -15 43 -39 48 -39 8 l-1 -32 -24 28 c-18 20 -33 27
-60 27 -19 0 -35 -5 -35 -11 0 -7 -10 -9 -25 -7 -27 6 -35 -9 -10 -18 8 -4 15
-13 15 -21 0 -17 -28 -11 -79 19 -44 25 -61 18 -61 -28 l0 -37 -30 41 c-17 23
-32 42 -33 42 -2 0 -2 -13 1 -29 3 -24 0 -29 -22 -33 -14 -3 -28 -2 -32 1 -3
3 -9 6 -12 7 -4 0 -16 5 -26 9 -13 6 -21 5 -24 -3 -2 -7 -12 -12 -23 -12 -11
0 -27 -9 -36 -20 -13 -15 -20 -17 -30 -8 -11 9 -15 7 -19 -9 -5 -20 -28 -24
-52 -9 -7 4 -12 32 -13 69 0 34 -3 56 -6 50 -2 -7 -13 -13 -23 -13 -11 0 -24
-9 -30 -20 -14 -26 -28 -25 -57 2 -20 18 -23 19 -23 5 0 -33 -28 -17 -36 21
-9 43 -9 46 1 90 7 33 7 34 -27 30 -27 -2 -32 0 -30 15 4 22 -6 22 -32 0 -12
-10 -15 -11 -8 -3 6 8 12 24 12 36 0 23 -22 48 -33 37 -4 -3 -7 1 -7 10 0 9 5
19 10 22 6 3 10 16 10 27 0 21 -1 21 -28 -5 -19 -18 -35 -25 -46 -21 -16 6
-16 8 0 25 27 29 11 41 -19 14 -15 -14 -33 -25 -40 -24 -46 6 -75 -2 -80 -23
-4 -12 -9 -19 -13 -15 -4 4 -2 18 6 31 13 26 8 56 -9 56 -7 0 -7 -9 -3 -22 6
-18 2 -30 -20 -53 -27 -28 -38 -26 -19 4 6 9 4 19 -4 28 -17 16 -27 17 -23 1
4 -21 -12 -68 -22 -68 -6 0 -10 4 -10 9 0 5 -8 12 -19 16 -18 5 -18 7 0 66 25
79 24 94 -6 107 -24 11 -25 10 -31 -29 -4 -22 -15 -45 -24 -52 -10 -7 -20 -24
-23 -37 -3 -14 -5 0 -6 30 -2 95 -6 125 -18 135 -6 6 -13 21 -15 35 -2 17 -8
24 -20 22 -11 -2 -18 4 -19 15 -1 20 -4 35 -9 43 -1 3 -7 34 -14 70 -8 46 -15
65 -26 65 -8 0 -20 4 -26 7 -7 5 -10 -1 -6 -17 2 -15 0 -25 -7 -25 -6 0 -11 5
-11 10 0 6 -7 10 -15 10 -7 0 -18 6 -22 13 -14 24 -52 27 -58 6 -4 -10 -10
-19 -14 -19 -5 0 -14 -14 -21 -31 l-13 -31 -21 24 c-30 33 -83 112 -91 137 -3
12 -11 21 -17 21 -15 0 -37 31 -38 53 0 10 7 25 16 34 10 10 12 19 6 25 -9 9
0 63 12 75 2 3 11 -8 20 -24 l15 -28 1 43 c0 23 -4 42 -9 42 -6 0 -13 21 -17
47 -4 27 -16 60 -26 74 -17 23 -23 25 -44 15 -13 -6 -24 -18 -24 -26 -1 -22
-30 49 -30 72 0 15 5 18 21 13 14 -5 19 -4 15 4 -5 7 -1 9 8 5 9 -3 16 -1 16
5 0 7 -7 14 -15 17 -8 4 -15 17 -15 30 0 13 -4 24 -10 24 -5 0 -10 11 -10 25
0 14 -4 25 -10 25 -5 0 -10 -4 -10 -10 0 -5 -4 -10 -10 -10 -5 0 -10 9 -10 19
0 11 -4 23 -10 26 -5 3 -10 -2 -10 -11 0 -10 -2 -15 -5 -12 -3 3 -7 48 -9 100
-3 63 -9 106 -21 128 -13 25 -18 64 -20 169 -2 134 -8 171 -27 171 -5 0 -9 24
-9 53 0 28 -3 115 -7 192 -4 77 -3 143 1 146 4 3 12 33 17 67 8 59 5 96 -10
117 -4 6 -7 84 -6 175 2 124 6 172 17 195 21 42 14 75 -15 75 -38 0 -49 22
-30 59 19 39 15 63 -14 76 -26 11 -29 25 -6 25 12 0 15 6 11 21 -3 12 4 42 15
68 12 25 25 55 30 67 5 11 23 28 39 38 16 9 29 26 29 36 0 11 10 25 22 31 14
8 18 14 10 17 -17 5 -15 22 4 22 8 0 21 15 29 33 18 44 39 61 67 54 13 -4 28
-3 35 1 14 9 12 64 -3 83 -16 20 -24 46 -16 54 3 3 7 22 8 40 0 19 8 43 17 53
10 10 17 24 17 30 0 6 17 23 37 36 40 28 57 20 47 -21z m524 29 c2 -7 -3 -12
-12 -12 -9 0 -16 7 -16 16 0 17 22 14 28 -4z m3902 -157 c-66 -13 -86 -11 -60
5 8 6 40 9 70 9 l55 -1 -65 -13z m-110 -25 c-20 -13 -33 -13 -25 0 3 6 14 10
23 10 15 0 15 -2 2 -10z m-80 -55 c-7 -9 -15 -13 -18 -10 -3 2 1 11 8 20 7 9
15 13 18 10 3 -2 -1 -11 -8 -20z m-989 -71 c27 -13 57 -24 69 -24 11 0 20 -7
20 -15 0 -8 6 -12 14 -9 8 3 17 1 21 -5 6 -10 -57 -17 -105 -13 -20 2 -103
-16 -170 -38 -95 -30 -163 -70 -227 -132 -56 -56 -66 -61 -115 -66 -29 -3 -56
-9 -60 -15 -9 -14 -31 71 -25 97 29 121 83 174 214 212 166 48 280 51 364 8z
m74 -127 c37 -19 20 -27 -34 -17 -25 4 -49 7 -55 5 -6 -2 -47 -11 -91 -21 -44
-9 -96 -25 -116 -35 -20 -10 -39 -16 -42 -12 -14 13 104 82 168 97 36 8 142
-2 170 -17z m-145 -61 c0 -11 -19 -15 -25 -6 -3 5 1 10 9 10 9 0 16 -2 16 -4z
m3610 -6 c0 -5 -19 -14 -42 -20 -24 -5 -55 -14 -70 -19 -28 -9 -41 -5 -32 10
3 5 20 9 37 9 18 0 43 7 57 14 30 17 50 19 50 6z m174 -99 c9 -29 23 -106 31
-170 23 -171 44 -297 62 -374 13 -54 14 -73 4 -94 -9 -20 -15 -23 -23 -15 -7
7 -22 12 -35 12 -13 0 -40 9 -60 20 -21 11 -42 20 -48 20 -11 0 -113 41 -132
53 -21 13 -15 42 16 71 31 30 50 83 82 231 12 55 27 118 34 140 7 22 16 63 19
90 14 102 24 105 50 16z m-7324 -276 c0 -8 -7 -15 -15 -15 -26 0 -18 20 13 29
1 1 2 -6 2 -14z m-123 -307 c-3 -8 -6 -5 -6 6 -1 11 2 17 5 13 3 -3 4 -12 1
-19z m7133 -58 c0 -5 -2 -10 -4 -10 -3 0 -8 5 -11 10 -3 6 -1 10 4 10 6 0 11
-4 11 -10z m16 -35 c4 -8 3 -23 0 -32 -6 -15 -8 -15 -23 -1 -16 17 -12 48 7
48 6 0 13 -7 16 -15z m-4534 -267 c3 -7 11 -13 19 -13 8 -1 46 -5 84 -10 39
-5 74 -8 78 -7 5 2 11 -7 14 -18 3 -11 10 -20 17 -20 6 0 21 -8 33 -18 25 -19
22 -62 -4 -62 -12 0 -13 -3 -4 -13 6 -8 42 -20 81 -27 39 -7 75 -19 81 -27 6
-7 16 -10 23 -6 6 3 8 3 4 -2 -5 -5 1 -15 13 -23 14 -10 19 -21 15 -35 -3 -14
4 -33 19 -53 14 -18 25 -38 25 -45 0 -6 9 -26 20 -44 29 -47 54 -188 39 -217
-7 -13 -18 -27 -25 -31 -8 -4 -14 -15 -14 -23 0 -11 -6 -13 -22 -8 -21 6 -21
6 -4 -11 18 -18 15 -66 -5 -73 -5 -2 -9 -10 -9 -17 0 -8 -6 -18 -14 -22 -7 -4
-23 -29 -34 -55 -33 -76 -81 -76 -120 -2 -75 142 -134 238 -155 251 -7 4 -43
51 -80 103 -51 70 -67 100 -62 117 3 12 1 24 -4 27 -5 3 -12 22 -16 42 -8 47
-46 125 -57 118 -4 -3 -8 1 -8 8 0 7 -9 24 -20 38 -27 34 -25 64 4 78 19 8 26
8 29 -1 2 -7 7 -9 11 -6 3 3 -3 15 -15 28 -24 26 -21 57 5 53 11 -2 20 4 23
17 6 23 29 28 35 9z m5138 -918 c0 -5 -4 -10 -10 -10 -5 0 -10 5 -10 10 0 6 5
10 10 10 6 0 10 -4 10 -10z m-5409 -165 c1 -11 -9 -16 -61 -35 -58 -20 -75
-18 -75 10 0 20 7 26 40 35 42 12 96 7 96 -10z m5589 -6 c0 -10 -4 -19 -10
-19 -5 0 -10 12 -10 26 0 14 4 23 10 19 6 -3 10 -15 10 -26z m-6017 -66 c22
-24 48 -43 58 -43 11 0 19 -4 19 -9 0 -6 11 -7 28 -1 79 25 129 15 86 -17 -21
-16 -92 -13 -204 7 -36 6 -90 13 -120 14 -101 5 -130 15 -148 52 -17 37 -11
54 13 34 12 -10 16 -9 21 4 10 26 58 20 70 -8 9 -22 11 -23 54 -12 25 6 46 17
46 24 1 6 2 15 3 18 2 9 28 -14 74 -63z m-1529 -44 c5 -32 2 -48 -14 -74 -11
-18 -20 -40 -20 -49 0 -16 -11 -21 -23 -9 -4 3 -3 11 2 17 12 16 20 56 11 56
-4 0 -11 16 -14 35 -5 26 -2 41 11 59 23 31 38 19 47 -35z m1256 -93 c0 -2 -8
-10 -17 -17 -16 -13 -17 -12 -4 4 13 16 21 21 21 13z m-1300 -86 c0 -5 -2 -10
-4 -10 -3 0 -8 5 -11 10 -3 6 -1 10 4 10 6 0 11 -4 11 -10z m5257 -142 c-3 -8
-6 -5 -6 6 -1 11 2 17 5 13 3 -3 4 -12 1 -19z m-4987 -99 c0 -6 -4 -7 -10 -4
-5 3 -10 11 -10 16 0 6 5 7 10 4 6 -3 10 -11 10 -16z m-20 -35 c0 -8 -4 -12
-10 -9 -5 3 -10 10 -10 16 0 5 5 9 10 9 6 0 10 -7 10 -16z m2044 -278 c-2 -6
-9 -24 -15 -41 -11 -29 -11 -30 -20 -7 -5 13 -5 32 1 45 5 12 12 36 16 52 l7
30 8 -34 c4 -19 5 -39 3 -45z m1206 -169 c0 -19 -37 -50 -49 -42 -18 11 -12
31 12 43 30 15 37 14 37 -1z m-2163 -279 c-3 -8 -6 -5 -6 6 -1 11 2 17 5 13 3
-3 4 -12 1 -19z m1106 -203 c28 -4 37 -11 37 -26 0 -15 -5 -19 -17 -15 -10 3
-31 8 -48 11 -16 4 -43 12 -60 18 l-29 11 24 7 c14 4 32 5 40 4 8 -2 32 -6 53
-10z m-25 -63 c23 -3 32 -9 32 -22 0 -16 -4 -17 -32 -9 -18 5 -39 7 -48 4 -8
-2 -21 0 -29 4 -12 8 -13 12 -1 26 8 9 20 13 29 9 9 -4 31 -9 49 -12z m112
-36 c35 -16 32 -41 -5 -41 -23 0 -31 5 -33 23 -2 12 -10 22 -18 22 -8 0 -14 5
-14 11 0 11 26 6 70 -15z m3223 -252 c-3 -8 0 -14 6 -14 6 0 11 5 11 11 0 7
11 9 26 6 14 -2 38 1 53 9 39 19 71 8 71 -25 0 -27 24 -70 47 -84 7 -4 13 -19
13 -33 0 -22 -4 -25 -27 -22 -26 3 -28 7 -28 46 0 34 -4 42 -18 42 -15 0 -17
-6 -12 -44 5 -35 3 -45 -11 -50 -25 -10 -56 25 -63 71 -7 45 -22 48 -36 7 -26
-75 -71 -76 -93 -1 -17 57 -13 78 17 93 28 15 52 8 44 -12z m217 -224 c0 -12
-28 -20 -45 -14 -28 11 -17 31 15 26 17 -2 30 -8 30 -12z m70 -365 c0 -8 -4
-15 -10 -15 -5 0 -10 7 -10 15 0 8 5 15 10 15 6 0 10 -7 10 -15z m-149 -72
c29 -17 38 -33 19 -33 -6 0 -10 -17 -9 -37 1 -21 -1 -52 -5 -68 l-7 -31 -67 3
c-113 4 -174 11 -185 22 -6 6 -18 11 -26 11 -8 0 -23 8 -34 18 -19 16 -20 16
-14 0 8 -23 -3 -29 -38 -20 -35 10 -45 32 -15 32 14 0 20 5 18 16 -5 26 51 51
150 68 49 9 100 20 113 25 37 15 68 13 100 -6z m69 -88 c0 -8 -9 -15 -20 -15
-17 0 -19 2 -8 15 17 19 28 19 28 0z m-523 -1071 c-3 -3 -12 -4 -19 -1 -8 3
-5 6 6 6 11 1 17 -2 13 -5z m623 -124 c18 -12 2 -12 -25 0 -13 6 -15 9 -5 9 8
0 22 -4 30 -9z m-1142 -622 c269 -257 248 -230 374 -468 13 -25 31 -56 41 -70
45 -70 -55 -42 -129 34 -23 24 -52 47 -65 51 -26 9 -50 35 -42 48 2 4 1 7 -4
6 -4 -1 -21 3 -36 9 -16 7 -32 12 -37 12 -5 0 -12 11 -16 25 -3 14 -10 25 -15
25 -5 0 -6 6 -3 14 4 10 -6 21 -28 32 -54 27 -126 87 -132 109 -9 37 -18 223
-12 234 13 20 28 11 104 -61z m1420 19 c3 -14 -1 -18 -20 -15 -12 2 -24 11
-26 21 -3 14 1 18 20 15 12 -2 24 -11 26 -21z m43 -91 c-9 -10 -9 -15 0 -18 6
-2 12 -24 13 -49 1 -24 5 -49 8 -54 12 -20 -9 -250 -26 -295 -18 -44 -43 -127
-51 -164 -3 -10 -11 -26 -20 -36 -8 -9 -15 -19 -15 -23 0 -14 -64 -68 -88 -73
-15 -3 -44 -12 -66 -20 -35 -14 -42 -13 -75 4 -75 39 -151 93 -151 107 0 41
126 195 198 242 12 9 22 19 22 24 0 5 12 28 27 52 42 65 60 97 87 154 14 28
29 54 35 57 5 4 13 21 17 38 7 35 29 57 57 58 9 0 17 8 17 17 0 13 3 14 12 5
8 -8 8 -15 -1 -26z m-430 -842 c38 -31 90 -85 116 -120 26 -35 50 -64 55 -64
4 0 8 -11 8 -25 0 -14 5 -25 10 -25 12 0 14 -47 2 -54 -13 -8 -89 57 -105 89
-8 17 -29 46 -46 65 -37 42 -101 136 -101 149 0 5 -7 11 -15 15 -18 6 -20 26
-4 26 7 0 43 -25 80 -56z m244 15 c4 -5 35 -23 70 -39 35 -16 66 -34 70 -39
10 -17 18 -108 11 -128 -6 -14 -9 -15 -16 -4 -5 9 -15 11 -26 6 -11 -4 -34 -9
-51 -11 -29 -3 -37 3 -78 56 -43 56 -75 116 -75 140 0 23 83 40 95 19z"/>
<path d="M5069 11008 c-1 -2 -3 -13 -4 -25 -2 -16 3 -23 15 -23 13 0 16 6 12
25 -3 20 -18 34 -23 23z"/>
<path d="M3830 10275 c-8 -9 -8 -15 -2 -15 12 0 26 19 19 26 -2 2 -10 -2 -17
-11z"/>
<path d="M6598 8473 c7 -3 16 -2 19 1 4 3 -2 6 -13 5 -11 0 -14 -3 -6 -6z"/>
<path d="M6410 8461 c-66 -4 -92 -8 -69 -11 51 -8 189 0 189 11 0 5 -3 8 -7 7
-5 -1 -55 -4 -113 -7z"/>
<path d="M5440 8390 c0 -5 9 -10 20 -10 11 0 20 5 20 10 0 6 -9 10 -20 10 -11
0 -20 -4 -20 -10z"/>
<path d="M5313 8257 c-4 -7 -19 -21 -33 -30 -20 -14 -21 -17 -6 -17 10 0 33 7
52 16 27 13 32 19 23 30 -14 18 -26 18 -36 1z"/>
<path d="M6090 8015 c-9 -10 -9 -15 -1 -15 6 0 11 -13 11 -29 0 -16 7 -61 16
-100 9 -39 13 -83 10 -97 -4 -15 -33 -54 -65 -88 -32 -34 -68 -77 -81 -96 -30
-44 -38 -50 -72 -50 -15 0 -30 -4 -33 -10 -10 -15 -45 -12 -103 10 -66 25 -85
25 -133 -2 -50 -28 -57 -47 -26 -74 20 -17 40 -21 108 -23 72 -2 92 -6 138
-32 41 -22 68 -29 107 -29 69 0 95 12 174 81 40 35 87 66 121 78 31 12 63 29
72 39 26 29 37 90 26 141 -21 97 -25 100 -58 40 -13 -22 -37 -49 -55 -60 -31
-19 -75 -26 -77 -11 -6 70 -11 154 -12 223 -2 85 -14 119 -42 119 -7 0 -18 -7
-25 -15z"/>
<path d="M6615 7465 c-27 -7 -88 -27 -135 -44 -47 -18 -103 -36 -125 -41 -97
-20 -181 -44 -195 -55 -8 -7 -26 -16 -40 -20 -14 -4 -43 -15 -65 -25 -93 -39
-120 -45 -226 -42 -59 1 -129 -3 -155 -9 -27 -6 -94 -11 -149 -10 -158 1 -172
-12 -70 -61 36 -17 68 -35 71 -39 12 -20 24 -7 24 26 0 40 12 45 95 44 71 -1
176 10 201 22 20 10 40 9 109 -6 20 -4 55 2 107 19 42 14 86 26 98 26 12 0 42
12 66 26 36 21 53 25 83 20 27 -4 42 -2 50 8 22 26 51 26 67 0 13 -19 15 -39
9 -104 l-7 -80 -29 21 c-29 21 -59 20 -59 -1 0 -22 -29 -40 -63 -40 -28 0 -36
-4 -41 -24 -3 -13 -21 -34 -38 -46 -29 -19 -30 -21 -8 -15 14 4 40 9 59 12 32
5 34 4 27 -21 -6 -23 -3 -26 17 -26 14 0 40 15 61 35 20 19 43 32 50 29 23 -9
56 44 56 89 0 22 3 37 7 34 3 -4 17 16 31 43 14 28 61 89 106 136 90 96 100
110 91 124 -8 12 -17 12 -80 -5z"/>
<path d="M5671 7019 c-11 -19 -11 -21 3 -16 10 4 19 1 22 -8 4 -8 10 -15 15
-15 5 0 3 14 -6 30 -9 17 -17 30 -18 30 -1 0 -8 -10 -16 -21z"/>
<path d="M5995 6990 c-40 -18 -40 -19 -10 -19 17 0 57 6 90 13 53 12 56 14 23
15 -20 1 -42 3 -50 5 -7 3 -31 -4 -53 -14z"/>
<path d="M5810 6988 l-25 -11 25 -6 c14 -4 37 -5 53 -3 l28 4 -27 14 c-14 8
-27 14 -28 13 0 0 -12 -5 -26 -11z"/>
<path d="M2602 7898 c-6 -6 -41 -13 -79 -16 -49 -4 -87 -14 -138 -39 -86 -42
-154 -98 -138 -114 6 -6 9 -18 6 -25 -4 -11 6 -14 43 -14 27 -1 69 -6 94 -11
77 -18 172 -17 193 3 16 13 25 14 50 5 23 -8 32 -7 35 1 5 16 22 15 22 0 0
-18 46 -38 58 -26 14 14 94 -1 89 -15 -4 -13 -28 -14 -69 -4 -20 5 -28 4 -28
-6 0 -20 -38 -35 -95 -40 -100 -8 -231 -56 -222 -81 3 -8 1 -18 -5 -24 -7 -7
-3 -17 11 -31 12 -12 21 -25 21 -31 0 -5 11 -12 24 -16 23 -5 209 0 323 10 39
3 57 1 68 -10 8 -9 15 -11 15 -6 0 11 101 3 117 -10 7 -5 37 -4 77 3 36 6 73
8 82 5 16 -6 49 8 72 31 7 7 29 13 49 13 31 0 35 3 30 21 -4 16 3 31 29 55 19
19 34 42 34 52 0 33 22 42 97 42 56 0 76 4 90 18 10 10 37 26 61 37 48 20 91
70 70 78 -10 4 -10 8 1 15 24 17 2 34 -35 27 -19 -3 -34 -2 -34 2 0 4 -7 16
-15 27 -13 18 -15 18 -41 -3 -34 -27 -42 -26 -46 1 -2 13 -11 24 -21 26 -15 3
-16 0 -7 -23 6 -15 8 -31 5 -36 -9 -13 -45 13 -45 33 0 14 -8 18 -34 18 -22 0
-36 6 -40 16 -4 11 -12 14 -24 9 -34 -15 -116 -24 -127 -15 -6 5 -42 12 -80
15 -39 4 -81 10 -95 15 -25 9 -144 20 -247 24 -37 1 -52 -2 -50 -11 1 -6 -2
-12 -8 -11 -5 0 -9 4 -7 9 1 5 -6 10 -15 10 -82 6 -113 5 -121 -3z m-167 -208
c3 -5 1 -10 -4 -10 -6 0 -11 5 -11 10 0 6 2 10 4 10 3 0 8 -4 11 -10z m265
-210 c0 -5 -5 -10 -11 -10 -5 0 -7 5 -4 10 3 6 8 10 11 10 2 0 4 -4 4 -10z"/>
<path d="M2605 7660 c-3 -5 3 -10 15 -10 12 0 18 5 15 10 -3 6 -10 10 -15 10
-5 0 -12 -4 -15 -10z"/>
<path d="M1761 6614 c0 -11 3 -14 6 -6 3 7 2 16 -1 19 -3 4 -6 -2 -5 -13z"/>
<path d="M2046 6184 c-4 -9 4 -38 16 -63 21 -41 23 -43 26 -21 2 14 8 29 13
35 14 14 11 35 -6 35 -9 0 -18 7 -21 15 -8 20 -20 19 -28 -1z"/>
<path d="M3308 6105 c-16 -18 -28 -38 -28 -44 0 -17 29 -13 61 9 25 19 27 24
17 45 -14 31 -17 31 -50 -10z"/>
<path d="M1976 6115 c-3 -9 -4 -21 0 -26 3 -5 0 -9 -5 -9 -6 0 -11 -10 -11
-22 1 -19 5 -16 21 16 13 24 17 42 11 48 -6 6 -12 3 -16 -7z"/>
<path d="M3485 6100 c-3 -5 -18 -10 -33 -11 l-27 -1 30 -13 c35 -16 95 -19 95
-5 0 6 -7 10 -15 10 -9 0 -18 7 -21 15 -7 17 -20 20 -29 5z"/>
<path d="M2193 6045 c-6 -7 -14 -30 -18 -51 -5 -34 -4 -36 6 -19 7 11 16 23
21 26 5 3 8 18 6 32 -2 20 -5 22 -15 12z"/>
<path d="M2238 6054 c-13 -20 -6 -84 9 -84 18 0 28 27 15 43 -5 6 -12 21 -14
32 -2 12 -6 16 -10 9z"/>
<path d="M2273 5928 c2 -12 8 -22 13 -20 14 3 11 35 -4 40 -8 2 -11 -4 -9 -20z"/>
<path d="M4521 12796 c2 -3 74 -14 159 -26 165 -22 246 -37 430 -75 95 -20
249 -47 460 -82 19 -3 41 -10 48 -16 8 -7 12 -5 12 6 0 18 -46 141 -66 176
l-14 26 2 -30 c3 -30 3 -30 -42 -27 -25 2 -79 13 -120 25 -64 18 -105 21 -285
23 -197 2 -207 1 -155 -12 92 -23 342 -72 400 -79 59 -6 199 -43 215 -57 15
-13 -55 -9 -125 8 -119 28 -373 74 -523 95 -81 11 -176 26 -210 34 -56 13
-197 21 -186 11z"/>
<path d="M6980 12721 c0 -5 14 -14 30 -21 17 -7 35 -20 40 -29 8 -14 9 -13 10
4 0 11 -4 26 -9 34 -10 16 -71 26 -71 12z"/>
<path d="M7029 12576 c8 -9 18 -16 24 -16 6 0 19 -8 30 -17 18 -17 19 -17 15
12 -3 27 -7 30 -42 33 -35 3 -38 2 -27 -12z"/>
<path d="M5635 12560 c4 -14 14 -40 21 -59 9 -21 11 -38 5 -44 -5 -5 -77 0
-177 13 -208 26 -753 86 -851 93 -40 3 -73 2 -73 -3 0 -4 9 -28 19 -53 l19
-45 129 -6 c70 -3 209 -15 308 -26 99 -11 236 -24 305 -30 196 -17 314 -31
330 -41 20 -11 -26 -11 -143 0 -147 15 -348 30 -552 41 -104 6 -227 13 -272
16 -68 5 -83 3 -83 -9 0 -16 82 -27 210 -27 41 0 154 -7 250 -15 251 -21 538
-44 590 -47 47 -3 47 -3 85 -91 30 -71 61 -67 -497 -61 -306 3 -508 1 -517 -4
-11 -8 -11 -17 5 -57 l18 -48 90 7 c50 3 280 9 510 12 316 5 417 4 412 -4 -5
-8 -40 -12 -99 -12 -108 0 -792 -29 -854 -36 -29 -4 -43 -10 -43 -20 0 -15 32
-15 275 2 44 3 220 10 390 15 171 6 326 11 345 12 33 2 35 0 54 -51 10 -29 21
-50 24 -48 5 6 -16 71 -68 211 -21 55 -41 114 -44 131 -8 34 -112 294 -122
303 -4 3 -3 -5 1 -19z"/>
<path d="M3498 12563 c7 -3 16 -2 19 1 4 3 -2 6 -13 5 -11 0 -14 -3 -6 -6z"/>
<path d="M776 12482 c7 -4 13 -16 15 -26 5 -23 29 -34 29 -13 0 18 -27 47 -43
47 -9 0 -9 -2 -1 -8z"/>
<path d="M7098 12452 c-37 -4 -35 -17 5 -33 17 -7 35 -14 40 -17 12 -6 8 23
-5 39 -8 8 -25 13 -40 11z"/>
<path d="M830 12383 c0 -10 25 -58 55 -108 30 -49 73 -126 95 -170 23 -44 49
-96 60 -115 10 -19 19 -43 20 -52 0 -12 8 -18 24 -18 l24 0 -22 43 c-13 23
-44 82 -70 131 -27 49 -56 103 -67 120 -10 17 -19 37 -19 44 0 16 -82 142 -92
142 -5 0 -8 -8 -8 -17z"/>
<path d="M3704 12369 c-10 -17 13 -36 27 -22 12 12 4 33 -11 33 -5 0 -12 -5
-16 -11z"/>
<path d="M7115 12302 c3 -7 5 -16 5 -18 0 -2 10 -4 23 -4 13 0 28 -5 35 -12 9
-9 12 -8 12 8 0 30 -13 41 -48 41 -24 -1 -31 -4 -27 -15z"/>
<path d="M2210 12150 c-13 -31 -12 -34 9 -51 29 -24 60 -27 38 -4 -9 8 -13 23
-11 32 3 10 -1 26 -9 37 -13 17 -14 17 -27 -14z"/>
<path d="M7162 12163 c2 -10 12 -19 23 -21 11 -2 28 -11 38 -20 19 -17 22 -6
7 32 -7 20 -16 26 -40 26 -25 0 -31 -4 -28 -17z"/>
<path d="M9505 12139 c-44 -16 -99 -36 -122 -45 -46 -17 -56 -43 -30 -79 13
-16 14 -15 9 13 -4 31 -3 32 32 32 34 0 60 10 96 36 8 6 36 18 63 28 26 10 47
24 47 32 0 18 -1 18 -95 -17z"/>
<path d="M3922 12100 c0 -14 2 -19 5 -12 2 6 2 18 0 25 -3 6 -5 1 -5 -13z"/>
<path d="M7228 12042 c-27 -3 -41 -32 -15 -32 6 0 25 -7 41 -15 28 -15 28 -15
21 13 -8 34 -14 38 -47 34z"/>
<path d="M4560 11990 c0 -11 7 -20 15 -20 8 0 15 9 15 20 0 11 -7 20 -15 20
-8 0 -15 -9 -15 -20z"/>
<path d="M1158 11923 c7 -3 16 -2 19 1 4 3 -2 6 -13 5 -11 0 -14 -3 -6 -6z"/>
<path d="M7271 11911 c-28 -7 -39 -29 -19 -35 46 -15 68 -16 68 -3 0 26 -24
44 -49 38z"/>
<path d="M5869 11891 c-2 -6 -98 -20 -224 -31 -121 -11 -274 -27 -340 -35 -66
-8 -178 -19 -250 -26 -71 -6 -139 -15 -151 -20 -23 -8 -23 -11 2 -81 8 -22 0
-23 201 6 92 14 263 37 378 51 116 14 239 30 275 35 82 12 137 13 125 1 -6 -4
-102 -20 -215 -35 -113 -15 -225 -31 -250 -36 -25 -5 -90 -17 -145 -25 -161
-26 -319 -57 -330 -66 -6 -4 -11 -20 -12 -36 0 -15 1 -20 4 -11 5 20 7 21 153
47 63 12 151 28 195 36 44 8 125 19 180 25 55 6 127 15 160 21 99 17 289 51
301 54 8 2 5 23 -10 66 -20 59 -40 83 -47 60z"/>
<path d="M4540 11860 l-25 -20 23 0 c12 0 22 -5 22 -11 0 -5 5 -7 11 -3 8 5 8
8 0 14 -7 3 -9 14 -5 23 8 21 5 21 -26 -3z"/>
<path d="M4640 11781 c0 -12 6 -21 15 -21 8 0 15 4 15 9 0 5 -7 14 -15 21 -13
10 -15 9 -15 -9z"/>
<path d="M7314 11780 c-23 -9 -39 -28 -31 -36 12 -12 77 -12 77 0 0 26 -24 44
-46 36z"/>
<path d="M4560 11770 c0 -5 5 -10 11 -10 5 0 7 5 4 10 -3 6 -8 10 -11 10 -2 0
-4 -4 -4 -10z"/>
<path d="M4720 11724 c0 -17 22 -14 28 4 2 7 -3 12 -12 12 -9 0 -16 -7 -16
-16z"/>
<path d="M5951 11705 c1 -19 18 -51 18 -35 0 8 -4 22 -9 30 -5 8 -9 11 -9 5z"/>
<path d="M4900 11651 c0 -5 5 -13 10 -16 6 -3 10 -2 10 4 0 5 -4 13 -10 16 -5
3 -10 2 -10 -4z"/>
<path d="M7343 11653 c-7 -3 -13 -16 -13 -29 0 -21 5 -24 35 -24 36 0 43 12
26 39 -10 16 -28 21 -48 14z"/>
<path d="M7374 11533 c-12 -4 -6 -61 8 -69 5 -4 14 -2 20 4 6 6 17 8 26 5 12
-5 14 -1 8 23 -8 32 -26 56 -26 35 0 -9 -4 -10 -12 -4 -7 6 -18 9 -24 6z"/>
<path d="M7416 11424 c-15 -11 -17 -19 -9 -51 7 -31 13 -38 33 -38 29 0 40
-12 39 -40 0 -12 -3 -15 -6 -7 -10 25 -34 -25 -27 -55 8 -33 25 -47 36 -30 6
9 12 7 23 -7 19 -25 19 -50 0 -66 -17 -14 -20 -46 -5 -55 6 -4 17 -2 25 5 11
9 16 7 25 -10 24 -45 22 -8 -5 77 -88 282 -97 301 -129 277z"/>
<path d="M6046 11408 c21 -62 15 -71 -79 -107 -72 -29 -87 -38 -84 -53 4 -16
-2 -18 -46 -19 -41 -1 -47 -3 -27 -9 34 -11 110 -12 110 -1 0 4 24 11 54 14
30 3 68 13 86 22 30 16 32 16 37 -4 3 -12 11 -21 19 -21 10 0 7 18 -13 73 -14
39 -30 76 -35 82 -4 5 -8 17 -8 27 0 10 -5 18 -11 18 -6 0 -7 -8 -3 -22z"/>
<path d="M4973 11284 c-7 -7 -13 -16 -13 -19 0 -9 59 -5 65 5 3 6 -3 10 -14
10 -10 0 -21 4 -23 9 -1 5 -9 3 -15 -5z"/>
<path d="M5040 11279 c0 -5 5 -7 10 -4 6 3 10 8 10 11 0 2 -4 4 -10 4 -5 0
-10 -5 -10 -11z"/>
<path d="M5040 11240 c0 -5 5 -10 10 -10 6 0 10 5 10 10 0 6 -4 10 -10 10 -5
0 -10 -4 -10 -10z"/>
<path d="M6050 11219 c0 -22 13 -25 29 -5 9 11 7 15 -9 19 -15 4 -20 0 -20
-14z"/>
<path d="M5170 11050 c0 -5 5 -10 10 -10 6 0 10 5 10 10 0 6 -4 10 -10 10 -5
0 -10 -4 -10 -10z"/>
<path d="M6430 11030 c0 -5 7 -10 15 -10 8 0 15 5 15 10 0 6 -7 10 -15 10 -8
0 -15 -4 -15 -10z"/>
<path d="M7535 11028 c-3 -9 -5 -31 -3 -50 3 -29 6 -33 31 -30 31 3 33 -4 11
-36 -17 -24 -12 -71 11 -107 6 -11 15 -41 19 -67 4 -25 14 -52 21 -58 8 -7 15
-24 15 -39 0 -37 19 -101 30 -101 6 0 10 -17 10 -37 0 -57 13 -70 40 -43 14
14 30 20 44 18 21 -4 22 -2 16 44 -5 34 -13 53 -29 64 -13 10 -20 22 -17 31 3
8 0 21 -8 28 -22 23 -76 161 -76 196 0 17 -9 46 -19 63 -11 17 -22 48 -26 68
-8 43 -29 66 -41 47 -5 -9 -9 -7 -15 7 -6 17 -8 17 -14 2z m95 -223 c0 -8 -4
-15 -10 -15 -5 0 -10 7 -10 15 0 8 5 15 10 15 6 0 10 -7 10 -15z"/>
<path d="M9280 11000 c0 -5 7 -10 15 -10 8 0 15 5 15 10 0 6 -7 10 -15 10 -8
0 -15 -4 -15 -10z"/>
<path d="M5635 10980 c-3 -5 -2 -10 4 -10 5 0 13 5 16 10 3 6 2 10 -4 10 -5 0
-13 -4 -16 -10z"/>
<path d="M9475 10850 c-3 -5 3 -10 14 -10 12 0 21 5 21 10 0 6 -6 10 -14 10
-8 0 -18 -4 -21 -10z"/>
<path d="M9374 10815 c1 -26 10 -32 22 -14 3 6 20 17 38 25 24 10 26 13 11 14
-12 0 -26 -5 -32 -11 -8 -8 -13 -8 -17 0 -12 19 -24 12 -22 -14z"/>
<path d="M7795 10520 c3 -5 8 -10 11 -10 2 0 4 5 4 10 0 6 -5 10 -11 10 -5 0
-7 -4 -4 -10z"/>
<path d="M9578 10483 c7 -3 16 -2 19 1 4 3 -2 6 -13 5 -11 0 -14 -3 -6 -6z"/>
<path d="M7815 10450 c3 -5 8 -10 11 -10 2 0 4 5 4 10 0 6 -5 10 -11 10 -5 0
-7 -4 -4 -10z"/>
<path d="M9329 10437 c-8 -19 -17 -23 -44 -21 -20 2 -38 -3 -45 -11 -7 -8 -19
-15 -26 -15 -8 0 -14 -4 -14 -9 0 -11 71 -2 85 10 5 5 24 9 42 9 18 0 33 5 33
11 0 7 12 10 30 7 19 -3 29 -1 27 6 -2 6 -16 12 -30 14 -15 2 -27 8 -27 13 0
18 -21 9 -31 -14z"/>
<path d="M7350 10441 c0 -6 4 -13 10 -16 6 -3 7 1 4 9 -7 18 -14 21 -14 7z"/>
<path d="M7795 10419 c7 -11 35 -12 35 -1 0 4 -9 8 -20 9 -11 1 -18 -2 -15 -8z"/>
<path d="M7387 10386 c16 -22 53 -42 53 -30 0 8 -53 54 -62 54 -5 0 -1 -11 9
-24z"/>
<path d="M7725 10324 c3 -13 7 -35 10 -49 3 -13 10 -37 16 -52 11 -27 11 -28
20 -6 4 12 26 34 48 48 44 27 45 43 4 70 -30 20 -39 14 -23 -15 16 -30 5 -57
-15 -40 -9 7 -15 18 -14 24 3 26 -2 34 -26 38 -22 5 -24 2 -20 -18z"/>
<path d="M7460 10302 c0 -5 11 -19 25 -32 19 -18 25 -20 25 -8 0 8 -8 22 -18
31 -20 19 -32 22 -32 9z"/>
<path d="M8204 10226 c-10 -8 -15 -18 -11 -22 4 -4 15 0 24 9 9 9 14 19 12 22
-3 2 -14 -2 -25 -9z"/>
<path d="M8110 10180 c-24 -15 -7 -19 20 -5 15 8 19 14 10 14 -8 1 -22 -3 -30
-9z"/>
<path d="M8451 10126 c7 -15 15 -23 17 -16 3 7 -3 19 -13 28 -15 16 -16 15 -4
-12z"/>
<path d="M7955 10030 c-3 -5 1 -10 9 -10 9 0 16 5 16 10 0 6 -4 10 -9 10 -6 0
-13 -4 -16 -10z"/>
<path d="M8357 9812 c-10 -15 -12 -70 -4 -79 13 -12 18 5 15 48 -2 28 -6 39
-11 31z"/>
<path d="M8610 9727 c0 -18 -6 -39 -12 -46 -11 -10 -10 -11 3 -6 9 3 20 20 23
37 8 41 8 48 -4 48 -5 0 -10 -15 -10 -33z"/>
<path d="M8180 9716 c0 -26 4 -36 16 -36 11 0 14 8 12 32 -4 46 -28 49 -28 4z"/>
<path d="M8477 9669 c3 -10 9 -16 14 -13 13 8 11 21 -5 27 -10 4 -12 0 -9 -14z"/>
<path d="M8600 9630 c0 -5 5 -10 11 -10 5 0 7 5 4 10 -3 6 -8 10 -11 10 -2 0
-4 -4 -4 -10z"/>
<path d="M9327 9433 c-2 -5 -1 -17 4 -28 8 -21 8 -21 14 7 3 19 -10 34 -18 21z"/>
<path d="M9520 9430 c0 -5 5 -10 11 -10 5 0 7 5 4 10 -3 6 -8 10 -11 10 -2 0
-4 -4 -4 -10z"/>
<path d="M9265 9191 c-3 -5 -1 -12 4 -15 5 -3 11 1 15 9 6 16 -9 21 -19 6z"/>
<path d="M9135 9161 c-7 -12 12 -24 25 -16 11 7 4 25 -10 25 -5 0 -11 -4 -15
-9z"/>
<path d="M9460 9024 c0 -9 5 -14 12 -12 18 6 21 28 4 28 -9 0 -16 -7 -16 -16z"/>
<path d="M9445 8760 c-3 -5 -1 -10 4 -10 6 0 11 5 11 10 0 6 -2 10 -4 10 -3 0
-8 -4 -11 -10z"/>
<path d="M1193 7614 c-7 -3 -13 -20 -13 -38 l0 -33 43 10 c23 5 51 13 62 17
18 6 18 8 -5 23 -29 18 -70 28 -87 21z"/>
<path d="M9511 7343 c8 -10 24 -29 37 -43 12 -14 22 -28 22 -31 0 -4 7 -9 15
-13 11 -4 15 2 15 23 0 23 -7 31 -40 46 -22 10 -40 22 -40 27 0 4 -5 8 -11 8
-8 0 -7 -6 2 -17z"/>
<path d="M1550 7251 c0 -20 17 -37 27 -28 7 8 -7 47 -18 47 -5 0 -9 -9 -9 -19z"/>
<path d="M9577 7133 c-12 -11 -8 -23 8 -23 8 0 15 7 15 15 0 16 -12 20 -23 8z"/>
<path d="M9520 6790 c0 -5 9 -10 20 -10 11 0 20 5 20 10 0 6 -9 10 -20 10 -11
0 -20 -4 -20 -10z"/>
<path d="M2057 4959 c7 -7 15 -10 18 -7 3 3 -2 9 -12 12 -14 6 -15 5 -6 -5z"/>
<path d="M2583 4263 c-24 -2 -43 -8 -43 -12 0 -5 44 -25 98 -44 53 -19 105
-38 115 -42 13 -6 17 -2 17 15 0 18 4 21 23 17 12 -3 30 -2 40 2 16 6 15 10
-13 35 -28 25 -40 28 -113 30 -45 1 -101 1 -124 -1z"/>
<path d="M7564 4246 c-6 -15 12 -56 24 -56 24 1 33 18 21 43 -13 29 -36 36
-45 13z"/>
<path d="M2998 4243 c7 -3 16 -2 19 1 4 3 -2 6 -13 5 -11 0 -14 -3 -6 -6z"/>
<path d="M3211 4174 c-21 -27 -51 -27 -51 0 0 24 -54 4 -58 -21 -4 -29 25 -37
114 -28 80 7 117 27 92 50 -7 7 -27 15 -45 18 -26 5 -36 2 -52 -19z"/>
<path d="M3766 4159 c-9 -18 -16 -36 -16 -41 0 -19 52 -118 61 -118 6 0 9 36
7 92 -2 77 -6 93 -19 96 -11 2 -23 -9 -33 -29z"/>
<path d="M7640 4120 c0 -6 5 -16 10 -23 6 -7 16 -20 23 -30 12 -17 13 -17 12
7 0 25 -45 70 -45 46z"/>
<path d="M7410 3860 c0 -5 5 -10 10 -10 6 0 10 5 10 10 0 6 -4 10 -10 10 -5 0
-10 -4 -10 -10z"/>
<path d="M2536 3693 c-3 -4 -6 -14 -6 -24 0 -10 -9 -23 -20 -29 -26 -14 -43
-47 -35 -68 5 -14 7 -14 15 -2 8 12 10 11 10 -6 0 -27 23 -46 50 -42 17 2 29
-9 53 -50 18 -30 46 -61 62 -70 17 -9 33 -21 36 -26 4 -5 12 -5 19 -1 10 6 9
10 -3 16 -9 5 -13 17 -10 28 5 21 -23 36 -49 26 -27 -11 -58 54 -56 112 2 35
7 49 16 46 17 -7 15 12 -3 27 -8 7 -15 20 -15 30 0 18 -52 44 -64 33z"/>
<path d="M4120 3664 c-65 -33 -80 -47 -61 -58 5 -3 7 -15 4 -26 -5 -17 0 -20
29 -20 21 0 41 7 51 18 13 14 57 105 57 118 0 8 -15 2 -80 -32z"/>
<path d="M3070 3145 c0 -24 5 -35 15 -35 15 0 20 26 9 54 -11 28 -24 17 -24
-19z"/>
<path d="M3190 3157 c0 -11 -13 -24 -32 -32 -43 -17 -47 -22 -41 -46 3 -12 17
-22 33 -26 17 -3 30 -13 33 -25 7 -24 45 -21 61 5 9 14 7 20 -6 28 -10 5 -20
26 -24 47 -8 45 -23 77 -24 49z"/>
<path d="M3370 3025 c0 -22 -3 -25 -24 -19 -28 7 -49 -22 -44 -58 4 -28 85
-73 104 -57 8 7 14 6 20 -2 9 -15 30 23 39 72 6 32 4 39 -22 56 -15 11 -38 24
-50 27 -20 6 -23 4 -23 -19z"/>
<path d="M1455 2420 c-4 -6 -10 -8 -15 -5 -4 3 -13 -2 -20 -10 -10 -12 -10
-15 0 -15 7 0 21 -9 30 -20 14 -16 25 -19 45 -14 26 6 26 7 5 21 -11 8 -20 23
-20 34 0 20 -15 26 -25 9z"/>
<path d="M4020 2411 c0 -6 5 -13 10 -16 6 -3 10 1 10 9 0 9 -4 16 -10 16 -5 0
-10 -4 -10 -9z"/>
<path d="M2183 2314 c-53 -55 -63 -74 -42 -74 7 0 9 -11 5 -30 -5 -26 -2 -32
19 -42 19 -8 28 -8 40 2 8 7 17 11 19 9 1 -2 12 -20 23 -39 22 -37 30 -123 13
-150 -6 -9 -2 -23 10 -40 11 -16 17 -35 13 -48 -4 -17 1 -24 22 -32 54 -21 60
-16 74 65 12 67 12 80 -2 108 -9 18 -18 40 -21 51 -4 11 -12 16 -21 12 -8 -3
-21 -8 -29 -12 -9 -3 -20 12 -35 45 -19 46 -21 59 -12 127 15 123 2 131 -76
48z"/>
<path d="M4655 2350 c-3 -5 -2 -10 4 -10 5 0 13 5 16 10 3 6 2 10 -4 10 -5 0
-13 -4 -16 -10z"/>
<path d="M4726 2324 c-8 -21 17 -50 50 -58 13 -4 24 -11 24 -17 0 -6 4 -8 9
-5 5 3 12 -1 15 -9 8 -21 122 -74 146 -68 26 7 26 23 0 23 -11 0 -20 5 -20 10
0 20 -50 58 -69 53 -13 -3 -27 7 -47 34 -16 21 -33 41 -39 45 -19 14 -63 8
-69 -8z"/>
<path d="M4116 2321 c-8 -12 30 -44 43 -37 5 4 15 -3 21 -14 11 -20 30 -27 30
-11 0 5 -14 23 -31 40 -30 31 -53 39 -63 22z"/>
<path d="M3667 2167 c-3 -8 -1 -20 4 -28 11 -19 32 2 23 24 -7 20 -20 22 -27
4z"/>
<path d="M4341 2145 c9 -11 19 -28 22 -37 7 -18 23 -24 30 -10 2 4 -12 20 -32
37 -20 16 -29 21 -20 10z"/>
<path d="M5030 2140 c0 -5 5 -10 11 -10 5 0 7 5 4 10 -3 6 -8 10 -11 10 -2 0
-4 -4 -4 -10z"/>
<path d="M5135 2090 c3 -5 10 -10 16 -10 5 0 9 5 9 10 0 6 -7 10 -16 10 -8 0
-12 -4 -9 -10z"/>
<path d="M4420 2060 c6 -11 12 -20 14 -20 2 0 2 9 -1 20 -3 11 -9 20 -15 20
-5 0 -4 -9 2 -20z"/>
<path d="M5200 2056 c0 -2 9 -6 20 -9 11 -3 18 -1 14 4 -5 9 -34 13 -34 5z"/>
<path d="M4480 2015 c0 -8 7 -15 16 -15 14 0 14 3 4 15 -7 8 -14 15 -16 15 -2
0 -4 -7 -4 -15z"/>
<path d="M4530 2000 c12 -8 10 -10 -9 -10 l-25 0 23 -21 c19 -18 25 -19 32 -8
13 21 11 36 -7 43 -24 9 -31 7 -14 -4z"/>
<path d="M4607 1906 c-3 -8 4 -22 15 -33 21 -17 21 -17 15 0 -4 10 -7 25 -7
33 0 18 -16 18 -23 0z"/>
<path d="M4664 1850 c-1 -18 4 -30 12 -30 7 0 21 -13 31 -30 9 -16 20 -30 24
-30 10 0 99 -87 99 -98 0 -5 19 -28 41 -51 37 -36 56 -46 82 -42 4 0 7 -8 7
-19 0 -11 3 -20 8 -20 4 0 20 -12 37 -27 32 -30 60 -49 88 -59 10 -4 17 -17
18 -33 0 -16 3 -20 6 -11 4 8 14 22 24 31 31 27 7 78 -52 114 -27 17 -49 33
-49 37 0 4 -9 9 -19 13 -11 3 -21 16 -23 28 -2 16 -10 22 -25 21 -15 0 -23 5
-23 15 0 9 -16 27 -35 40 -19 13 -35 27 -35 32 0 5 -9 9 -20 9 -13 0 -24 10
-30 25 -10 27 -30 34 -30 10 0 -8 -4 -15 -10 -15 -5 0 -10 8 -10 18 0 21 -19
42 -38 42 -7 0 -25 14 -39 30 -31 38 -38 38 -39 0z"/>
<path d="M2873 1837 c-3 -5 -11 -6 -19 -3 -11 4 -13 -9 -13 -64 1 -49 5 -70
15 -74 8 -3 14 -14 14 -24 0 -15 6 -18 31 -14 l31 5 -6 50 c-7 47 -6 49 15 44
l21 -6 -21 23 c-27 28 -26 40 2 59 21 15 21 16 -21 14 -24 -1 -46 -6 -49 -10z"/>
<path d="M3025 1580 c-10 -11 -24 -20 -32 -20 -10 0 -13 -21 -13 -89 0 -50 4
-92 9 -96 5 -3 21 18 34 47 14 29 36 65 50 79 23 24 24 27 8 32 -14 3 -17 12
-13 36 5 37 -15 42 -43 11z"/>
<path d="M5481 1434 c-23 -17 -23 -18 -5 -24 10 -4 19 -15 19 -26 0 -26 31
-29 52 -5 9 12 20 21 23 21 15 0 51 -84 52 -120 0 -29 5 -40 15 -40 10 0 14
-7 10 -19 -6 -25 10 -31 54 -22 26 6 33 12 31 27 -11 64 -16 76 -38 86 -13 6
-24 15 -24 20 0 4 -9 8 -20 8 -11 0 -20 4 -20 8 0 5 -13 22 -30 38 -16 16 -30
35 -30 42 0 6 -6 12 -12 12 -7 0 -22 3 -33 6 -11 2 -31 -3 -44 -12z"/>
<path d="M5160 1384 c0 -8 5 -12 10 -9 6 3 10 10 10 16 0 5 -4 9 -10 9 -5 0
-10 -7 -10 -16z"/>
<path d="M5224 1375 c-4 -9 -4 -18 -2 -21 9 -8 39 8 35 19 -6 18 -27 20 -33 2z"/>
<path d="M5450 1067 c0 -19 51 -93 81 -117 17 -14 127 -148 138 -167 6 -13 18
-23 25 -23 8 0 25 -15 39 -32 13 -18 48 -58 76 -88 28 -30 59 -71 68 -90 10
-19 53 -71 97 -115 43 -44 103 -113 133 -152 29 -40 57 -73 61 -73 9 0 102
-86 102 -94 0 -3 8 -14 18 -25 31 -34 52 -65 52 -78 0 -9 15 -13 45 -13 45 0
45 0 45 34 0 24 -5 36 -17 39 -10 3 -3 5 15 6 17 0 32 5 32 10 0 6 -12 9 -26
8 -23 -2 -26 2 -29 32 -2 19 -9 38 -16 42 -43 26 -43 26 -30 55 9 20 9 30 1
38 -8 8 -9 6 -5 -6 11 -28 -3 -21 -19 10 l-15 27 -1 -27 c0 -23 -4 -28 -25
-28 -14 0 -25 5 -25 10 0 6 7 10 15 10 8 0 15 7 15 16 0 10 -6 14 -14 11 -21
-8 -33 32 -40 130 0 12 -7 28 -13 35 -7 6 -13 21 -13 31 0 26 -91 137 -112
137 -5 0 -13 -10 -18 -22 -5 -13 -9 -17 -9 -11 -1 7 -11 12 -23 10 -18 -2 -24
5 -32 36 -9 37 -26 51 -26 22 0 -8 -4 -15 -10 -15 -11 0 -50 85 -50 111 0 10
-5 21 -11 24 -6 4 -8 13 -5 21 3 8 0 11 -10 7 -8 -3 -23 5 -35 21 -26 33 -39
33 -39 1 0 -41 -32 -31 -52 15 -13 31 -22 40 -41 40 -22 0 -26 6 -32 40 -7 42
-35 57 -35 18 0 -20 -1 -21 -20 -3 -11 10 -20 24 -20 30 0 7 -17 20 -39 28
-21 9 -41 23 -44 31 -4 9 -16 16 -27 16 -13 0 -24 10 -30 25 -13 33 -50 35
-50 2z m650 -547 c0 -5 -4 -10 -10 -10 -5 0 -10 5 -10 10 0 6 5 10 10 10 6 0
10 -4 10 -10z m297 -482 c-3 -8 -6 -5 -6 6 -1 11 2 17 5 13 3 -3 4 -12 1 -19z"/>
<path d="M6940 1049 c0 -13 25 -39 39 -39 7 0 7 8 -1 25 -11 25 -38 35 -38 14z"/>
<path d="M5776 903 c-11 -11 -6 -23 9 -23 8 0 15 4 15 9 0 13 -16 22 -24 14z"/>
<path d="M3236 629 c-12 -29 -12 -36 0 -50 8 -8 14 -25 14 -37 0 -26 18 -29
35 -5 14 19 1 89 -21 112 -11 13 -16 10 -28 -20z"/>
<path d="M7380 506 c0 -30 22 -71 57 -103 34 -33 35 -35 31 -95 -3 -35 -10
-64 -16 -66 -7 -2 -12 -16 -12 -32 0 -20 -13 -42 -45 -76 -32 -33 -45 -55 -45
-75 0 -22 -6 -32 -25 -39 -14 -5 -25 -12 -25 -14 0 -3 158 -6 350 -6 193 0
350 3 350 6 0 3 -18 23 -40 44 -22 21 -40 43 -40 49 0 5 -9 13 -21 16 -14 5
-19 13 -16 26 4 15 0 19 -20 19 -20 0 -23 4 -18 20 5 15 3 18 -8 14 -8 -3 -23
6 -35 20 -11 14 -27 26 -35 26 -9 0 -18 9 -22 19 -3 11 -17 27 -31 36 -13 9
-22 20 -19 25 8 13 -80 104 -93 96 -6 -4 -16 2 -21 13 -10 19 -40 35 -48 27
-3 -2 0 -13 6 -25 11 -19 10 -20 -21 -9 -43 15 -77 40 -78 56 0 7 -4 11 -9 7
-6 -3 -15 4 -21 15 -12 23 -30 27 -30 6z m72 -378 c-9 -9 -12 -7 -12 12 0 19
3 21 12 12 9 -9 9 -15 0 -24z"/>
<path d="M3385 403 c4 -16 8 -47 10 -70 3 -51 8 -59 40 -65 24 -5 24 -5 18 56
-5 49 -11 65 -32 83 -35 30 -45 29 -36 -4z"/>
<path d="M2110 291 c0 -12 5 -21 10 -21 6 0 10 6 10 14 0 8 -4 18 -10 21 -5 3
-10 -3 -10 -14z"/>
<path d="M3787 295 c-14 -7 -28 -11 -30 -9 -2 3 -10 -2 -16 -10 -8 -10 -10
-34 -5 -76 6 -51 13 -68 40 -98 18 -20 36 -33 40 -29 10 9 10 58 1 85 -7 17
-5 22 8 22 15 0 15 4 -3 34 -18 30 -19 36 -6 47 15 13 19 35 6 43 -5 3 -20 -1
-35 -9z"/>
<path d="M2090 221 c0 -11 -6 -26 -13 -33 -16 -17 -41 -114 -32 -128 4 -6 -1
-22 -9 -35 l-16 -25 52 0 53 0 -2 98 c-1 53 -2 107 -2 120 -1 27 -31 30 -31 3z"/>
<path d="M7880 196 c0 -9 5 -16 10 -16 6 0 10 4 10 9 0 6 -4 13 -10 16 -5 3
-10 -1 -10 -9z"/>
<path d="M3916 24 c-9 -23 -8 -24 19 -24 23 0 24 2 15 20 -13 24 -26 26 -34 4z"/>
<path d="M6470 18 c0 -8 7 -15 15 -15 18 0 15 19 -3 25 -7 2 -12 -3 -12 -10z"/>
</g>
</svg>
