<?xml version="1.0" standalone="no"?>
<!DOCTYPE svg PUBLIC "-//W3C//DTD SVG 20010904//EN"
 "http://www.w3.org/TR/2001/REC-SVG-20010904/DTD/svg10.dtd">
<svg version="1.0" xmlns="http://www.w3.org/2000/svg"
 width="606.000000pt" height="1280.000000pt" viewBox="0 0 606.000000 1280.000000"
 preserveAspectRatio="xMidYMid meet">

<g transform="translate(0.000000,1280.000000) scale(0.100000,-0.100000)"
fill="#000000" stroke="none">
<path d="M0 10241 l0 -2558 38 -44 c21 -24 47 -55 58 -68 10 -13 41 -49 68
-80 26 -31 53 -66 59 -78 6 -13 13 -23 17 -23 4 0 21 -20 39 -45 17 -24 37
-50 44 -57 16 -16 171 -206 212 -258 17 -21 51 -63 76 -92 26 -29 59 -71 73
-92 l26 -39 -26 -18 c-15 -10 -50 -21 -78 -24 -73 -10 -123 -35 -184 -93 -53
-50 -55 -51 -130 -56 -74 -6 -182 -46 -182 -67 0 -4 -25 -16 -55 -25 l-55 -18
0 -3253 0 -3253 3030 0 3030 0 0 6400 0 6400 -3030 0 -3030 0 0 -2559z m2221
-1196 c19 -14 59 -33 89 -42 54 -15 119 -64 120 -90 0 -7 6 -16 13 -20 8 -4
16 -16 20 -25 3 -10 15 -18 25 -18 10 0 27 -8 36 -19 9 -10 44 -26 76 -35 35
-10 64 -25 70 -35 7 -14 22 -18 64 -19 41 0 59 -5 75 -21 11 -11 38 -23 59
-27 25 -4 51 -18 73 -40 19 -18 46 -45 60 -59 15 -15 42 -34 60 -44 24 -13 37
-30 47 -62 8 -24 19 -46 25 -48 5 -2 30 -24 56 -50 67 -67 86 -81 175 -130 43
-24 94 -33 117 -20 11 6 42 12 70 14 44 4 49 2 49 -16 0 -33 28 -90 56 -111
14 -11 30 -31 34 -44 5 -13 16 -24 24 -24 26 0 41 -71 28 -135 -10 -47 -19
-64 -57 -100 -35 -33 -56 -44 -93 -50 -26 -3 -54 -8 -63 -10 -9 -1 -49 -6 -89
-9 -41 -4 -77 -9 -81 -11 -3 -3 -22 6 -40 18 -46 31 -81 44 -165 61 -71 14
-104 29 -196 86 -26 16 -65 34 -87 40 -22 6 -43 15 -46 20 -3 6 -17 10 -29 10
-13 0 -29 6 -35 14 -7 8 -23 17 -38 20 -14 4 -44 15 -67 25 -91 40 -177 55
-371 66 -38 2 -97 9 -129 14 -86 15 -133 5 -152 -31 -21 -41 -9 -89 35 -140
20 -24 45 -56 55 -71 25 -40 51 -69 133 -149 109 -107 168 -142 267 -158 139
-23 173 -38 182 -78 9 -36 19 -41 64 -30 27 7 53 6 87 -2 155 -38 217 -17 273
95 15 31 44 48 138 84 65 25 67 21 53 -84 -14 -96 -14 -161 -1 -186 11 -19 60
-69 126 -126 36 -32 36 -33 20 -57 -32 -50 -10 -98 64 -140 19 -11 49 -34 66
-51 48 -49 85 -72 128 -79 44 -8 106 -36 106 -48 0 -4 19 -17 41 -29 l42 -21
52 26 c63 31 98 69 135 150 40 89 47 168 20 231 -33 78 -87 153 -167 233 -40
41 -73 82 -73 92 0 10 37 56 83 101 179 181 209 197 542 283 160 42 391 43
417 3 4 -7 8 -24 8 -38 0 -14 8 -33 18 -43 29 -29 77 -66 84 -66 4 0 9 -9 13
-19 3 -11 19 -34 35 -53 16 -18 47 -76 67 -128 21 -52 41 -97 46 -98 17 -8 35
-61 40 -122 4 -36 14 -101 24 -145 11 -52 18 -132 19 -230 7 -475 4 -562 -21
-559 -5 1 -23 26 -40 56 -55 98 -70 117 -95 123 -14 4 -42 19 -62 36 -20 16
-42 29 -48 29 -7 0 -44 23 -83 50 -39 28 -77 50 -84 50 -7 0 -13 4 -13 8 0 11
-57 31 -112 38 -49 7 -119 -2 -116 -14 1 -4 -1 -14 -5 -22 -3 -8 -8 -27 -11
-42 -5 -22 -13 -28 -44 -33 -62 -10 -162 -62 -162 -84 0 -24 20 -71 31 -71 16
0 16 -30 -1 -62 -17 -33 -17 -34 5 -60 19 -22 30 -26 67 -25 28 1 54 -5 72
-17 26 -16 28 -22 23 -60 -5 -34 -3 -44 12 -51 39 -21 105 -72 152 -117 27
-27 75 -65 106 -85 32 -21 68 -47 81 -58 37 -32 60 -37 67 -15 8 24 58 43 74
27 6 -6 11 -23 11 -39 0 -15 7 -31 17 -36 13 -8 15 -19 10 -58 -8 -57 -37
-144 -49 -144 -4 0 -8 -10 -8 -22 0 -19 -119 -149 -147 -159 -5 -2 -28 -19
-49 -37 -22 -18 -64 -49 -94 -68 -52 -33 -60 -35 -128 -32 -44 1 -76 -2 -80
-8 -12 -19 -99 -26 -158 -14 -68 14 -90 9 -137 -31 -43 -37 -47 -56 -12 -65
14 -3 25 -10 25 -14 0 -4 13 -13 28 -19 16 -7 35 -24 44 -39 16 -26 15 -28 -9
-50 -24 -22 -44 -25 -165 -24 -18 0 -78 5 -133 12 -117 15 -220 15 -259 1 -15
-6 -48 -11 -73 -11 -43 0 -50 -4 -113 -68 -118 -117 -213 -133 -425 -72 -22 6
-71 16 -110 21 -77 11 -114 31 -185 100 -25 24 -65 62 -90 84 -106 94 -190
228 -190 304 0 76 41 254 61 267 5 3 9 12 9 21 0 9 7 23 15 32 53 57 75 88 75
108 0 12 4 24 9 27 5 3 16 47 26 97 17 93 68 214 118 281 14 18 32 60 42 93
32 115 37 130 64 185 14 30 28 57 32 60 11 11 49 78 49 89 0 6 -16 18 -37 26
-20 8 -58 35 -84 60 -32 30 -59 46 -85 50 -91 15 -138 29 -156 47 -20 20 -20
27 -2 116 5 26 3 32 -10 32 -11 0 -26 -20 -41 -52 -26 -55 -32 -98 -15 -98 6
0 10 -9 10 -20 0 -36 26 -85 73 -138 68 -77 73 -89 47 -117 -28 -30 -139 -75
-184 -75 -30 0 -77 -16 -116 -41 -8 -5 -28 -16 -45 -25 -16 -9 -48 -34 -69
-57 -32 -32 -41 -37 -50 -26 -6 8 -19 19 -27 24 -35 22 -76 50 -111 77 l-36
28 -26 -31 -26 -30 -10 26 c-9 23 -15 27 -42 23 -24 -4 -32 -1 -36 14 -2 10
-9 18 -14 18 -6 0 -30 18 -55 40 -39 34 -47 37 -64 27 -16 -9 -21 -9 -28 1 -4
7 -12 12 -17 11 -20 -3 -26 2 -15 15 16 19 3 50 -15 35 -18 -15 -29 11 -20 51
4 24 1 32 -17 41 -29 16 -37 28 -37 61 0 15 -4 30 -10 33 -5 3 -10 1 -10 -5 0
-7 -7 -4 -16 5 -12 12 -15 28 -12 59 9 74 -17 114 -69 107 -9 -1 -13 12 -13
38 0 22 -5 43 -10 46 -6 3 -10 14 -10 24 0 10 -9 25 -20 32 -22 15 -53 91 -40
99 4 3 9 21 12 39 4 25 0 41 -13 55 -11 11 -19 28 -19 38 0 10 -6 35 -14 55
-54 147 -63 288 -25 391 12 31 33 91 48 132 15 41 35 92 44 114 10 21 17 42
17 47 0 5 4 9 8 9 5 0 16 26 26 57 23 73 140 231 176 239 14 3 36 10 50 14 14
5 52 12 85 15 113 10 172 23 218 52 26 15 49 34 52 41 3 8 5 57 6 110 1 84 -2
98 -19 111 -33 26 -48 97 -32 147 10 30 20 37 66 43 5 0 26 -10 45 -24z
m-1138 -478 c49 -37 89 -108 94 -166 6 -66 -7 -80 -45 -52 -17 12 -40 37 -52
55 -28 46 -80 90 -141 121 -91 47 -76 78 37 73 59 -3 77 -8 107 -31z m-309
-138 c-19 -36 -20 -105 -2 -126 6 -7 18 -13 28 -13 9 0 23 -11 30 -24 18 -35
35 -39 83 -17 23 10 61 22 85 26 40 7 42 6 42 -20 0 -14 -9 -39 -20 -55 -11
-17 -29 -44 -41 -61 -11 -17 -23 -54 -26 -82 -5 -51 -4 -54 33 -87 22 -20 39
-39 39 -42 0 -4 21 -29 47 -55 26 -27 58 -75 73 -108 24 -56 25 -64 16 -135
-9 -64 -23 -136 -46 -237 -3 -13 -12 -23 -20 -23 -17 0 -19 13 -5 59 11 41 -2
71 -31 71 -40 0 -118 52 -157 104 -58 77 -113 266 -137 476 -4 30 -13 93 -21
139 -16 95 -10 203 13 240 24 37 39 11 17 -30z m478 -419 c13 0 3 -42 -23 -97
-18 -37 -22 -40 -47 -34 -23 6 -27 13 -29 47 -2 21 3 46 10 54 19 23 50 39 65
34 8 -2 18 -4 24 -4z m1408 -275 c15 -19 6 -30 -32 -39 -30 -7 -35 2 -18 35
13 23 33 25 50 4z m1070 -320 c7 -8 30 -20 51 -25 48 -13 94 -52 131 -109 23
-38 28 -56 28 -111 0 -76 -11 -94 -46 -78 -33 15 -39 5 -20 -36 33 -69 14 -84
-54 -41 -22 14 -46 25 -54 25 -7 0 -19 7 -26 15 -7 8 -18 15 -24 15 -16 0
-116 69 -116 80 0 6 6 10 14 10 8 0 22 7 31 16 8 9 22 13 31 10 8 -3 12 -2 9
4 -3 6 -13 10 -21 10 -8 0 -22 4 -32 9 -9 5 -29 14 -44 19 l-27 11 21 58 c22
63 83 133 116 133 11 0 25 -7 32 -15z m1112 -783 c6 -6 24 -12 39 -12 15 0 32
-7 39 -15 7 -8 18 -15 24 -15 6 0 33 -20 60 -45 27 -24 58 -45 70 -47 23 -3
60 -62 76 -120 8 -27 7 -56 -2 -104 -10 -55 -18 -73 -54 -110 -23 -25 -44 -58
-48 -75 -4 -20 -10 -28 -18 -23 -9 6 -9 9 0 12 12 4 17 32 6 32 -4 0 -12 -8
-19 -17 -12 -15 -16 -16 -39 -4 -14 8 -28 24 -32 35 -3 12 -19 58 -36 103 -31
84 -77 141 -139 173 -23 12 -23 12 -9 -6 28 -34 58 -98 66 -139 8 -45 7 -45
-66 25 -74 72 -156 145 -178 160 -12 8 -22 20 -22 27 0 7 -5 13 -11 13 -6 0
-8 7 -5 16 4 11 -4 26 -24 44 -36 32 -32 53 14 78 50 28 283 39 308 14z
m-2312 -576 c0 -37 -10 -56 -31 -56 -24 0 -24 24 -1 55 22 31 32 31 32 1z
m1105 -1237 c69 -13 104 -29 160 -75 22 -18 52 -35 68 -39 15 -4 27 -11 27
-16 0 -5 11 -15 25 -21 14 -6 25 -18 25 -25 0 -8 5 -11 10 -8 6 3 13 -1 16 -9
9 -23 27 -19 21 4 -3 11 -1 23 4 26 13 8 41 -24 96 -108 24 -38 48 -68 53 -68
5 0 11 -10 13 -22 4 -20 4 -20 6 4 0 15 -3 29 -8 32 -13 9 -63 118 -56 124 3
4 29 -17 56 -45 27 -29 58 -55 67 -58 9 -3 37 -33 62 -66 25 -32 56 -74 70
-92 14 -19 34 -50 45 -71 11 -21 35 -54 53 -73 17 -19 32 -41 32 -48 0 -8 18
-26 40 -42 26 -18 40 -36 40 -50 0 -13 5 -23 10 -23 12 0 13 16 1 38 -5 9 -11
31 -14 47 -3 17 -8 47 -12 68 -10 50 19 52 35 2 9 -27 16 -34 30 -30 11 3 28
-5 47 -22 23 -22 33 -43 43 -95 7 -37 9 -79 6 -92 -3 -14 -1 -28 4 -31 6 -4 8
-11 5 -16 -4 -5 -2 -9 3 -9 13 0 32 -47 32 -80 0 -16 5 -32 10 -35 7 -4 9 2 4
19 -5 22 -3 26 17 26 22 0 22 0 3 15 -19 16 -19 16 1 13 16 -3 27 -26 55 -108
20 -58 41 -114 47 -125 33 -58 76 -361 88 -625 8 -166 8 -153 -5 -245 -6 -38
-14 -108 -19 -155 -11 -101 -47 -268 -61 -285 -17 -21 -40 -164 -34 -206 5
-32 4 -39 -9 -39 -11 0 -18 -13 -22 -37 -3 -21 -17 -86 -31 -145 -13 -58 -24
-114 -24 -122 0 -9 -5 -16 -11 -16 -8 0 -10 29 -4 102 4 57 9 144 11 193 3 50
6 106 7 125 1 25 -2 35 -13 35 -8 0 -22 8 -30 18 -14 16 -15 14 -12 -32 3 -38
7 -48 18 -44 12 4 14 -13 12 -104 -2 -61 -8 -116 -14 -124 -14 -17 -34 -98
-34 -135 0 -15 -3 -25 -6 -21 -3 3 -3 56 1 117 5 65 11 106 16 99 4 -8 6 15 4
51 -2 36 -4 73 -4 83 -1 10 -5 16 -10 13 -17 -11 -23 28 -6 40 13 10 14 17 6
33 -6 11 -11 44 -11 73 0 29 -5 60 -10 68 -7 12 -10 8 -10 -15 0 -44 -13 -60
-31 -39 -11 14 -14 88 -16 403 -2 240 -7 389 -13 395 -14 14 -13 109 1 100 8
-5 8 -1 0 14 -6 12 -15 23 -20 27 -9 5 -19 87 -25 195 -1 25 -9 61 -18 80 -9
19 -19 44 -23 54 -11 35 -17 8 -6 -31 18 -72 31 -173 42 -325 6 -84 14 -200
20 -258 5 -58 11 -127 13 -155 6 -93 7 -535 2 -544 -3 -5 1 -60 10 -122 10
-79 15 -179 13 -324 -1 -115 3 -228 8 -250 l9 -40 7 45 c4 25 6 78 6 119 0 71
4 91 17 78 9 -9 10 -344 1 -353 -13 -14 -27 18 -28 66 -1 42 -2 41 -15 -27
-14 -72 -14 -74 11 -123 24 -47 25 -57 19 -143 -3 -51 -8 -101 -9 -112 -2 -11
-4 -28 -4 -37 -1 -17 -84 -18 -1591 -18 l-1589 0 6 33 c3 17 21 68 40 112 19
44 43 107 55 140 11 33 24 65 28 70 19 25 120 228 116 233 -3 2 4 16 14 30 11
13 20 31 20 38 0 8 4 14 9 14 5 0 14 15 21 32 15 41 48 117 61 141 5 10 24 44
41 75 17 31 37 66 44 77 8 11 14 26 14 34 0 8 6 22 13 30 8 9 24 41 36 71 37
92 42 104 62 142 10 20 19 43 19 50 0 7 11 33 24 58 13 25 38 90 56 145 18 55
39 107 47 116 7 8 13 21 13 28 0 7 6 25 14 39 13 27 22 50 57 157 11 33 27 65
35 71 8 6 14 19 14 29 0 9 11 26 25 37 14 11 25 28 25 39 0 11 9 39 19 62 11
24 23 56 26 72 17 74 27 95 46 95 16 0 19 7 19 40 0 22 5 40 10 40 6 0 10 11
10 23 0 13 9 32 20 42 11 10 20 26 20 35 0 9 9 35 20 58 11 22 20 49 20 59 0
10 14 47 30 81 17 35 30 70 30 78 0 8 10 31 23 52 25 39 38 67 43 92 12 58 19
78 35 102 11 14 19 30 19 35 0 12 40 96 49 103 14 11 47 68 76 130 16 36 40
78 53 94 12 16 22 35 22 42 0 8 4 14 8 14 5 0 17 19 28 43 10 23 41 65 69 94
27 28 59 62 70 75 49 58 211 146 284 155 40 4 56 1 95 -21 26 -14 49 -26 51
-26 2 0 -1 14 -7 31 -7 22 -7 37 1 55 6 13 12 24 14 24 2 0 30 -5 62 -11z
m913 -164 c25 -7 112 -89 112 -105 0 -5 20 -25 44 -45 24 -19 50 -50 57 -68 7
-18 27 -47 45 -66 31 -32 49 -87 37 -117 -4 -12 -8 -12 -21 -2 -31 26 -152
217 -152 241 0 9 -7 17 -15 17 -8 0 -15 7 -15 15 0 8 -6 15 -13 15 -8 0 -28
15 -45 33 -17 17 -45 45 -62 60 -33 31 -45 74 -12 45 9 -9 27 -19 40 -23z
m411 -925 c10 -19 26 -71 36 -115 9 -44 21 -89 25 -100 5 -11 11 -38 14 -59 7
-49 20 -64 41 -46 13 11 19 11 31 -2 13 -13 14 -20 4 -38 -9 -17 -9 -28 0 -50
7 -16 9 -34 5 -40 -4 -6 -4 -23 -1 -36 6 -21 9 -24 21 -14 12 10 16 9 20 -1
10 -30 29 -229 30 -329 2 -125 14 -210 29 -207 39 7 40 -349 0 -400 -12 -16
-14 6 -10 167 2 102 1 194 -4 205 -7 19 -9 18 -19 -8 -6 -16 -11 -63 -11 -106
0 -135 -28 -314 -71 -460 -21 -71 -24 -101 -9 -101 6 0 10 9 10 19 0 11 5 23
10 26 16 10 36 65 44 119 10 65 26 47 31 -35 2 -35 6 -72 10 -82 4 -9 2 -31
-5 -47 -14 -33 -6 -85 11 -74 16 9 2 -165 -22 -291 -21 -108 -59 -257 -68
-265 -4 -3 -29 -50 -56 -104 -46 -91 -128 -196 -153 -196 -5 0 -13 -11 -16
-25 -6 -24 -10 -25 -85 -25 l-78 0 9 63 c4 34 13 76 18 92 5 17 15 64 21 105
6 41 15 100 20 130 5 30 13 89 18 130 9 72 42 196 62 232 5 10 9 26 9 36 0 10
6 38 14 63 25 82 37 142 47 238 14 136 24 206 53 371 14 80 26 166 26 191 0
25 7 68 15 95 8 27 15 66 15 87 0 20 5 37 10 37 6 0 10 5 10 11 0 6 -7 9 -15
5 -8 -3 -15 -1 -15 5 0 6 -6 9 -14 6 -12 -5 -13 -1 -4 25 6 17 8 56 4 90 -4
38 -2 57 4 53 11 -7 12 -4 12 35 2 69 -3 90 -17 90 -18 0 -21 61 -4 89 13 20
-8 108 -42 172 -20 39 -26 95 -9 84 6 -3 10 -1 10 5 0 16 -29 109 -46 148 -17
39 -20 106 -3 82 5 -8 18 -31 28 -50z m67 -17 c4 -16 13 -38 21 -51 8 -13 13
-33 11 -45 -3 -18 -7 -14 -24 23 -27 59 -37 100 -24 100 5 0 12 -12 16 -27z
m201 -905 c-3 -8 -6 -5 -6 6 -1 11 2 17 5 13 3 -3 4 -12 1 -19z"/>
<path d="M3316 7212 c-3 -5 -8 -31 -12 -59 -7 -54 7 -78 25 -44 22 40 9 138
-13 103z"/>
<path d="M3610 6871 c0 -8 54 -41 67 -41 1 0 3 7 3 15 0 8 -9 15 -19 15 -11 0
-23 5 -26 10 -8 13 -25 13 -25 1z"/>
<path d="M2370 6796 c0 -2 7 -6 15 -10 8 -3 15 -1 15 4 0 6 -7 10 -15 10 -8 0
-15 -2 -15 -4z"/>
<path d="M3369 6357 c-58 -48 -62 -89 -19 -184 17 -36 30 -72 30 -79 0 -7 12
-26 26 -43 22 -26 33 -31 70 -31 24 0 44 5 44 10 0 6 6 10 13 10 8 0 24 11 37
25 13 14 29 25 36 25 17 0 40 -39 48 -82 8 -44 44 -68 101 -68 35 0 43 8 25
26 -14 14 -80 125 -80 135 0 14 -49 42 -75 42 -14 0 -25 3 -25 8 0 5 -13 9
-28 9 -20 0 -35 9 -50 30 -12 16 -22 34 -22 39 0 5 -9 16 -19 23 -11 8 -31 39
-45 71 -14 31 -29 57 -33 57 -4 -1 -20 -11 -34 -23z"/>
<path d="M2983 6150 c-33 -13 -28 -29 20 -76 55 -54 101 -77 136 -69 31 7 54
-11 110 -85 19 -25 62 -63 95 -85 49 -33 67 -52 93 -104 19 -35 46 -73 61 -85
15 -11 48 -40 74 -64 35 -33 52 -42 67 -37 30 9 26 25 -15 65 -20 19 -69 85
-110 146 -50 75 -93 127 -131 159 -32 26 -67 64 -78 84 -36 67 -50 79 -120
106 -39 15 -85 33 -103 41 -37 16 -67 17 -99 4z"/>
<path d="M3020 5815 c-8 -10 -8 -34 -1 -91 10 -66 16 -81 44 -109 37 -37 112
-66 143 -55 35 13 73 90 44 90 -8 0 -29 19 -72 66 -77 85 -138 123 -158 99z"/>
<path d="M3990 4591 c0 -5 9 -19 21 -32 16 -19 19 -20 15 -6 -3 10 -6 22 -6
27 0 4 -7 10 -15 14 -8 3 -15 2 -15 -3z"/>
<path d="M4526 3730 c8 -43 14 -51 14 -19 0 13 -5 31 -10 39 -7 11 -8 5 -4
-20z"/>
<path d="M4795 3641 c3 -41 9 -79 14 -85 5 -6 14 -30 20 -53 13 -48 50 -100
51 -70 0 10 -7 28 -14 40 -8 12 -19 47 -25 77 -5 30 -19 80 -30 110 l-21 55 5
-74z"/>
<path d="M4581 1528 c-1 -16 4 -28 9 -28 12 0 12 8 0 35 -8 18 -9 17 -9 -7z"/>
<path d="M5081 3244 c0 -11 3 -14 6 -6 3 7 2 16 -1 19 -3 4 -6 -2 -5 -13z"/>
<path d="M5074 3115 c-5 -17 -8 -54 -6 -84 3 -52 4 -53 23 -35 22 20 25 73 5
119 l-12 30 -10 -30z"/>
<path d="M5030 1876 c0 -14 -4 -28 -10 -31 -5 -3 -10 -14 -10 -23 0 -14 3 -13
14 4 21 29 31 74 17 74 -6 0 -11 -11 -11 -24z"/>
<path d="M4961 1688 c0 -9 -4 -25 -7 -35 -5 -17 -5 -17 6 0 6 10 9 25 7 35 -4
15 -5 15 -6 0z"/>
</g>
</svg>
